<svg width="40" height="41" viewBox="0 0 40 41" fill="none" xmlns="http://www.w3.org/2000/svg">
<path d="M12.1875 25.5684C12.1875 27.812 10.3687 29.6309 8.125 29.6309C5.88134 29.6309 4.0625 27.812 4.0625 25.5684C4.0625 23.3247 5.88134 21.5059 8.125 21.5059C10.3687 21.5059 12.1875 23.3247 12.1875 25.5684ZM35.9375 25.5684C35.9375 27.812 34.1186 29.6309 31.875 29.6309C29.6314 29.6309 27.8125 27.812 27.8125 25.5684C27.8125 23.3247 29.6314 21.5059 31.875 21.5059C34.1186 21.5059 35.9375 23.3247 35.9375 25.5684Z" fill="#F4C6AD"/>
<path d="M29.0114 8.11857C27.0726 6.66843 24.7512 5.88086 22.3787 5.88086H17.6212C15.2487 5.88086 12.9274 6.66843 10.9886 8.11857C7.68505 10.6063 5.89935 14.7442 6.30751 18.9821L7.42995 29.1206C7.79985 33.046 10.4019 36.3462 14.0115 37.4714C17.9145 38.684 22.0855 38.684 25.9885 37.4714C29.5981 36.3462 32.2001 33.046 32.57 29.1206L33.6925 18.9821C34.1006 14.7442 32.315 10.6063 29.0114 8.11857Z" fill="#FFD7C2"/>
<path d="M19.99 30.8345C18.6085 30.8345 17.3141 30.4958 16.2313 29.9186C15.8579 29.7179 15.4596 30.1445 15.6961 30.5084C16.6046 31.9261 18.1978 32.8671 20.0024 32.8671C21.8071 32.8671 23.3878 31.9261 24.3088 30.5084C24.5328 30.157 24.147 29.7304 23.7736 29.9186C22.6659 30.4958 21.3715 30.8345 19.99 30.8345Z" fill="#990839"/>
<path d="M20.0027 29.1934C20.606 29.1934 21.145 28.8867 21.453 28.427C21.7354 28.0054 21.4401 27.4434 20.9269 27.4434H19.0787C18.5654 27.4434 18.2574 28.0182 18.5525 28.427C18.8605 28.8996 19.3995 29.1934 20.0027 29.1934Z" fill="#E5AF93"/>
<path d="M9.2122 25.4406C9.6747 23.5385 11.3747 22.1309 13.3872 22.1309C15.4747 22.1309 17.2247 23.6526 17.6122 25.6562C17.6997 26.1001 17.3497 26.5059 16.9122 26.5059H10.0372C9.4872 26.5059 9.0747 25.986 9.2122 25.4406ZM30.0622 25.4406C29.5997 23.5385 27.8997 22.1309 25.8872 22.1309C23.7872 22.1309 22.0497 23.6526 21.6622 25.6562C21.5747 26.1001 21.9247 26.5059 22.3622 26.5059H29.2372C29.7872 26.5059 30.1997 25.986 30.0622 25.4406Z" fill="white"/>
<path d="M11.2754 25.7812C11.2754 24.2687 12.5004 23.0312 14.0254 23.0312C15.5504 23.0312 16.7754 24.2687 16.7879 25.7812C16.7879 26.0312 16.7504 26.2687 16.6879 26.5062H11.3754C11.3129 26.2812 11.2754 26.0312 11.2754 25.7812ZM28.0004 25.7812C28.0004 24.2687 26.7754 23.0312 25.2504 23.0312C23.7254 23.0312 22.4879 24.2687 22.4879 25.7812C22.4879 26.0312 22.5254 26.2687 22.5879 26.5062H27.9004C27.9629 26.2812 28.0004 26.0312 28.0004 25.7812Z" fill="#7D4533"/>
<path d="M14.0252 24.207C14.9002 24.207 15.6002 24.907 15.6002 25.782C15.6002 26.0445 15.5252 26.2945 15.4127 26.507H12.6252C12.5127 26.2945 12.4502 26.0445 12.4502 25.782C12.4502 24.907 13.1502 24.207 14.0252 24.207ZM25.2502 24.207C24.3752 24.207 23.6752 24.907 23.6752 25.782C23.6752 26.0445 23.7377 26.2945 23.8627 26.507H26.6502C26.7627 26.2945 26.8252 26.0445 26.8252 25.782C26.8252 24.907 26.1252 24.207 25.2502 24.207Z" fill="black"/>
<path d="M13.1625 24.7063C13.1625 24.9755 12.9443 25.1938 12.675 25.1938C12.4058 25.1938 12.1875 24.9755 12.1875 24.7063C12.1875 24.4371 12.4058 24.2188 12.675 24.2188C12.9443 24.2188 13.1625 24.4371 13.1625 24.7063ZM24.875 24.7063C24.875 24.9755 24.6568 25.1938 24.3875 25.1938C24.1182 25.1938 23.9 24.9755 23.9 24.7063C23.9 24.4371 24.1182 24.2188 24.3875 24.2188C24.6568 24.2188 24.875 24.4371 24.875 24.7063Z" fill="white"/>
<path d="M12.0594 20.3201C12.711 20.0881 13.6444 19.912 14.8786 20.0285C15.2222 20.0609 15.5271 19.8086 15.5595 19.465C15.592 19.1212 15.3396 18.8164 14.996 18.784C13.5801 18.6505 12.4636 18.8494 11.6402 19.1424C11.315 19.2581 11.1452 19.6156 11.261 19.9409C11.3767 20.266 11.7342 20.4357 12.0594 20.3201ZM27.7719 19.1424C26.9485 18.8494 25.8319 18.6505 24.416 18.784C24.0724 18.8164 23.8201 19.1212 23.8525 19.465C23.8849 19.8086 24.1897 20.0609 24.5335 20.0285C25.7676 19.912 26.701 20.0881 27.3526 20.3201C27.6779 20.4357 28.0354 20.266 28.1511 19.9409C28.2667 19.6156 28.097 19.2581 27.7719 19.1424ZM19.7747 3.38127C17.7247 3.35627 15.9497 4.48127 15.0247 6.15627C15.7997 5.98127 16.5872 5.88127 17.3747 5.88127H17.5622C19.8247 5.88127 21.7247 7.73127 21.7122 9.99377C21.6997 11.0188 21.3247 11.9438 20.6997 12.6563C20.5872 12.7813 20.5247 12.9438 20.5247 13.1063C20.5247 13.5687 20.9747 13.9062 21.4122 13.7562C23.5122 13.0438 25.0247 11.0563 25.0247 8.70627C25.0372 5.80627 22.6747 3.41877 19.7747 3.38127Z" fill="#212121"/>
</svg>
