<svg width="40" height="41" viewBox="0 0 40 41" fill="none" xmlns="http://www.w3.org/2000/svg">
<path d="M35.8501 17.6064C35.1787 14.8788 33.6881 12.4222 31.5787 10.5672C29.4693 8.71222 26.8424 7.54778 24.0513 7.23055C21.2603 6.91333 18.4391 7.45854 15.9672 8.79284C13.4953 10.1271 11.4914 12.1865 10.2251 14.6939C7.69278 14.9774 5.36427 16.217 3.71504 18.1593C2.0658 20.1017 1.22026 22.6004 1.35109 25.1452C1.48192 27.6899 2.57924 30.0887 4.41897 31.8517C6.2587 33.6148 8.70205 34.609 11.2501 34.6314H28.7501C30.7209 34.628 32.6468 34.0424 34.2859 32.9481C35.925 31.8537 37.2042 30.2994 37.9628 28.4804C38.7214 26.6614 38.9256 24.6588 38.5497 22.7241C38.1738 20.7894 37.2346 19.009 35.8501 17.6064Z" fill="#96D7FF"/>
<path d="M2.49995 25.8816C2.48687 23.3978 3.3986 20.9981 5.05763 19.1496C6.71665 17.3011 9.00422 16.1362 11.4749 15.8816C12.4143 14.0162 13.7663 12.3894 15.4283 11.1245C17.0902 9.85957 19.0185 8.9899 21.0667 8.58146C23.1149 8.17301 25.2293 8.23654 27.2493 8.7672C29.2693 9.29787 31.1419 10.2817 32.725 11.6441C31.2271 9.98284 29.3466 8.71207 27.2465 7.94203C25.1463 7.17198 22.8901 6.92592 20.6734 7.22518C18.4566 7.52443 16.3464 8.35998 14.5257 9.65933C12.7049 10.9587 11.2287 12.6826 10.225 14.6816C8.25197 14.8857 6.38426 15.6719 4.8593 16.9403C3.33433 18.2087 2.22101 19.9019 1.6609 21.8047C1.10078 23.7075 1.11918 25.7338 1.71375 27.6261C2.30832 29.5184 3.45221 31.1911 4.99995 32.4316C3.39755 30.6251 2.50872 28.2964 2.49995 25.8816Z" fill="#86C3EF"/>
</svg>
