<svg width="40" height="41" viewBox="0 0 40 41" fill="none" xmlns="http://www.w3.org/2000/svg">
<path d="M25.5579 3.61885V6.20602C25.5579 6.84829 25.0371 7.3698 24.3948 7.3698H15.6054C14.9631 7.3698 14.4424 6.84904 14.4424 6.20602V3.61885C14.4424 2.97583 14.9631 2.45508 15.6054 2.45508H24.3948C25.0371 2.45508 25.5579 2.97583 25.5579 3.61885Z" fill="#474646"/>
<path d="M25.5551 3.62062V6.2093C25.5551 6.85081 25.0343 7.37157 24.3928 7.37157H15.6079C15.0721 7.37157 14.6117 7.00175 14.4834 6.50364C14.574 6.52628 14.6721 6.54138 14.7702 6.54138H23.5551C24.2042 6.54138 24.7249 6.02062 24.7249 5.37911V2.79043C24.7249 2.68477 24.7098 2.58666 24.6872 2.49609C25.1853 2.6244 25.5551 3.08477 25.5551 3.62062Z" fill="#2D2C2C"/>
<path d="M35.2553 24.0501C35.2553 32.4712 28.4312 39.3052 20.0002 39.3052C11.5791 39.3052 4.74512 32.4712 4.74512 24.0501C4.74512 15.6191 11.5791 8.78516 20.0002 8.78516C28.4304 8.78516 35.2553 15.6191 35.2553 24.0501Z" fill="#B75F25"/>
<path opacity="0.2" d="M6.53424 27.495C6.24159 26.3693 6.09098 25.2114 6.08594 24.0482C6.08594 17.8784 10.2218 12.3765 16.1425 10.6694C16.286 10.6302 16.4391 10.649 16.5688 10.7218C16.6985 10.7946 16.7943 10.9155 16.8356 11.0584C16.8768 11.2013 16.8602 11.3547 16.7892 11.4854C16.7183 11.6161 16.5988 11.7136 16.4565 11.7569C11.0173 13.3252 7.21877 18.3803 7.21877 24.0482C7.21877 25.0799 7.35688 26.1441 7.63084 27.2135C7.64933 27.2855 7.65345 27.3605 7.64297 27.4341C7.63249 27.5077 7.60762 27.5785 7.56978 27.6425C7.53193 27.7064 7.48186 27.7623 7.42241 27.807C7.36296 27.8516 7.2953 27.8841 7.2233 27.9026C7.15129 27.9211 7.07635 27.9252 7.00276 27.9147C6.92916 27.9042 6.85835 27.8794 6.79436 27.8415C6.66514 27.7651 6.57157 27.6404 6.53424 27.495ZM25.2814 12.4105C24.1189 11.8805 22.8835 11.5274 21.6165 11.363C21.4734 11.3373 21.3457 11.2576 21.2597 11.1404C21.1737 11.0232 21.136 10.8775 21.1544 10.7333C21.1728 10.5891 21.2459 10.4575 21.3586 10.3657C21.4713 10.2738 21.615 10.2288 21.7599 10.2399C23.1305 10.4165 24.4731 10.8007 25.7501 11.3803C25.8194 11.41 25.8821 11.4532 25.9345 11.5075C25.9869 11.5617 26.0279 11.6259 26.0551 11.6962C26.0824 11.7665 26.0953 11.8415 26.0931 11.9169C26.091 11.9923 26.0738 12.0664 26.0425 12.1351C26.0113 12.2037 25.9667 12.2654 25.9113 12.3166C25.8559 12.3677 25.7908 12.4073 25.7199 12.4329C25.649 12.4586 25.5737 12.4698 25.4984 12.466C25.4231 12.4621 25.3493 12.4433 25.2814 12.4105Z" fill="white"/>
<path d="M35.2525 24.0505C35.2525 32.4731 28.4299 39.3033 19.9997 39.3033C14.9054 39.3033 10.3997 36.8052 7.62988 32.9713C9.04989 34.4325 10.7489 35.5936 12.6262 36.3857C14.5034 37.1778 16.5207 37.5848 18.5582 37.5826C26.9884 37.5826 33.811 30.7524 33.811 22.3298C33.811 19.009 32.7544 15.9373 30.9506 13.4316C33.6148 16.1788 35.2525 19.9147 35.2525 24.0505Z" fill="#994F1D"/>
<path d="M31.5921 24.0492C31.5921 30.4492 26.4072 35.6417 19.9997 35.6417C13.5997 35.6417 8.40723 30.4492 8.40723 24.0492C8.40723 17.8756 13.2223 12.8341 19.2978 12.4719C19.5318 12.4568 19.7657 12.4492 19.9997 12.4492C20.0525 12.4492 20.1053 12.4492 20.1582 12.4568C26.4902 12.5322 31.5921 17.6945 31.5921 24.0492Z" fill="white"/>
<path d="M31.5921 24.049C31.5921 30.449 26.4072 35.6415 19.9997 35.6415C15.5242 35.6415 11.645 33.1056 9.71289 29.3924C11.7506 31.1811 14.4223 32.2603 17.3431 32.2603C23.7506 32.2603 28.9355 27.0679 28.9355 20.6679C28.9355 18.7434 28.4676 16.932 27.645 15.332C30.0676 17.4528 31.5921 20.5698 31.5921 24.049Z" fill="#E4E3FF"/>
<path d="M22.1889 7.36328V8.94064C21.4719 8.83498 20.7474 8.78215 20.0002 8.78215C19.2606 8.78215 18.5285 8.83498 17.8115 8.94064V7.36328H22.1889Z" fill="#474646"/>
<path d="M22.1889 7.36328V7.75573H18.9844C18.7915 7.75573 18.6066 7.83228 18.4702 7.96856C18.3337 8.10484 18.257 8.2897 18.2568 8.48253V8.88781C18.1059 8.9029 17.9549 8.918 17.8115 8.94064V7.36328H22.1889Z" fill="#2D2C2C"/>
<path d="M20.158 12.4568V13.3851C20.158 13.4992 20.1127 13.6086 20.032 13.6893C19.9514 13.7699 19.8419 13.8153 19.7278 13.8153C19.6138 13.8153 19.5043 13.7699 19.4237 13.6893C19.343 13.6086 19.2977 13.4992 19.2977 13.3851V12.4719C19.5316 12.4568 19.7656 12.4492 19.9995 12.4492C20.0524 12.4492 20.1052 12.4492 20.158 12.4568ZM14.3429 13.93L14.8071 14.7337C14.8353 14.7827 14.8537 14.8368 14.861 14.8928C14.8684 14.9488 14.8646 15.0058 14.85 15.0604C14.8353 15.115 14.8101 15.1661 14.7757 15.211C14.7412 15.2558 14.6983 15.2934 14.6494 15.3217C14.6004 15.3499 14.5464 15.3682 14.4903 15.3756C14.4343 15.383 14.3773 15.3792 14.3227 15.3646C14.2681 15.3499 14.217 15.3247 14.1721 15.2902C14.1273 15.2558 14.0897 15.2129 14.0614 15.1639L13.6048 14.373C13.8003 14.2432 13.9988 14.1194 14.2011 14.0032C14.2471 13.976 14.2931 13.9504 14.3429 13.93ZM10.0433 18.1134L10.8471 18.5775C10.8972 18.6051 10.9413 18.6425 10.9768 18.6873C11.0124 18.7322 11.0386 18.7837 11.0539 18.8388C11.0693 18.894 11.0735 18.9516 11.0663 19.0084C11.0591 19.0651 11.0407 19.1199 11.0121 19.1695C10.9834 19.219 10.9452 19.2624 10.8996 19.297C10.8541 19.3316 10.802 19.3567 10.7466 19.371C10.6912 19.3852 10.6335 19.3883 10.5769 19.3799C10.5203 19.3716 10.4659 19.352 10.4169 19.3224L9.62596 18.8658C9.73011 18.656 9.8403 18.45 9.95728 18.247C9.9837 18.2017 10.0101 18.1556 10.0433 18.1134ZM8.41087 23.887H9.33917C9.45326 23.887 9.56268 23.9323 9.64336 24.013C9.72403 24.0936 9.76936 24.203 9.76936 24.3171C9.76936 24.4312 9.72403 24.5407 9.64336 24.6213C9.56268 24.702 9.45326 24.7473 9.33917 24.7473H8.42596C8.41087 24.5134 8.40332 24.2794 8.40332 24.0454C8.40332 23.9926 8.40332 23.9398 8.41087 23.887ZM9.88483 29.702L10.6886 29.2379C10.7376 29.2083 10.792 29.1887 10.8486 29.1804C10.9052 29.1721 10.9629 29.1751 11.0183 29.1894C11.0737 29.2036 11.1258 29.2288 11.1713 29.2634C11.2169 29.298 11.2551 29.3413 11.2838 29.3909C11.3124 29.4404 11.3308 29.4952 11.338 29.552C11.3452 29.6087 11.341 29.6664 11.3256 29.7215C11.3103 29.7766 11.2841 29.8281 11.2485 29.873C11.213 29.9179 11.1689 29.9552 11.1188 29.9828L10.3278 30.4394C10.198 30.2447 10.0744 30.0459 9.95728 29.8432C9.92981 29.7979 9.90559 29.7508 9.88483 29.702ZM14.0682 34.0017L14.5324 33.1979C14.56 33.1478 14.5973 33.1037 14.6422 33.0681C14.6871 33.0326 14.7386 33.0064 14.7937 32.9911C14.8488 32.9757 14.9065 32.9715 14.9632 32.9787C15.02 32.9859 15.0748 33.0043 15.1243 33.0329C15.1739 33.0616 15.2172 33.0998 15.2518 33.1453C15.2864 33.1909 15.3116 33.243 15.3258 33.2984C15.3401 33.3538 15.3431 33.4115 15.3348 33.4681C15.3264 33.5247 15.3069 33.5791 15.2773 33.6281L14.8207 34.419C14.6109 34.315 14.4045 34.2043 14.2018 34.087C14.1553 34.0617 14.1107 34.0332 14.0682 34.0017ZM19.8411 35.6334V34.7051C19.8411 34.591 19.8864 34.4816 19.9671 34.4009C20.0477 34.3202 20.1572 34.2749 20.2712 34.2749C20.3853 34.2749 20.4948 34.3202 20.5754 34.4009C20.6561 34.4816 20.7014 34.591 20.7014 34.7051V35.6183C20.4675 35.6334 20.2335 35.6409 19.9995 35.6409C19.9467 35.6409 19.8939 35.6409 19.8411 35.6334ZM25.6561 34.1602L25.192 33.3564C25.1638 33.3074 25.1454 33.2534 25.1381 33.1973C25.1307 33.1413 25.1345 33.0843 25.1491 33.0298C25.1637 32.9752 25.189 32.924 25.2234 32.8792C25.2579 32.8343 25.3008 32.7967 25.3497 32.7685C25.3987 32.7402 25.4527 32.7219 25.5088 32.7145C25.5648 32.7072 25.6218 32.7109 25.6764 32.7256C25.731 32.7402 25.7821 32.7655 25.827 32.7999C25.8718 32.8343 25.9094 32.8772 25.9377 32.9262L26.3943 33.7171C26.1988 33.847 26.0003 33.9707 25.798 34.087C25.752 34.1141 25.706 34.1398 25.6561 34.1602ZM29.9558 29.9768L29.152 29.5126C29.103 29.4844 29.0601 29.4468 29.0257 29.4019C28.9913 29.3571 28.966 29.3059 28.9514 29.2513C28.9367 29.1967 28.933 29.1398 28.9403 29.0837C28.9477 29.0277 28.966 28.9736 28.9943 28.9247C29.0225 28.8757 29.0601 28.8328 29.105 28.7984C29.1498 28.764 29.201 28.7387 29.2556 28.7241C29.3102 28.7094 29.3671 28.7057 29.4231 28.713C29.4792 28.7204 29.5332 28.7387 29.5822 28.767L30.3731 29.2236C30.269 29.4341 30.1588 29.6402 30.0418 29.8424C30.0154 29.8885 29.989 29.9345 29.9558 29.9768ZM31.5882 24.2032H30.6599C30.5458 24.2032 30.4364 24.1579 30.3557 24.0772C30.2751 23.9965 30.2297 23.8871 30.2297 23.773C30.2297 23.6589 30.2751 23.5495 30.3557 23.4688C30.4364 23.3881 30.5458 23.3428 30.6599 23.3428H31.5731C31.5882 23.5768 31.5958 23.8107 31.5958 24.0447C31.5958 24.0975 31.5958 24.1503 31.5882 24.2032ZM30.1143 18.3881L29.3105 18.8522C29.2615 18.8819 29.2071 18.9014 29.1505 18.9097C29.0939 18.9181 29.0362 18.915 28.9808 18.9008C28.9254 18.8865 28.8733 18.8614 28.8278 18.8268C28.7822 18.7922 28.744 18.7488 28.7153 18.6993C28.6867 18.6497 28.6683 18.5949 28.6611 18.5382C28.6539 18.4814 28.6581 18.4238 28.6735 18.3686C28.6888 18.3135 28.715 18.262 28.7506 18.2171C28.7861 18.1723 28.8302 18.1349 28.8803 18.1073L29.6712 17.6507C29.8011 17.8454 29.9248 18.0447 30.0418 18.247C30.0682 18.2922 30.0946 18.3383 30.1143 18.3881ZM25.9309 14.0885L25.4667 14.8922C25.4391 14.9424 25.4018 14.9865 25.3569 15.022C25.312 15.0575 25.2605 15.0837 25.2054 15.0991C25.1503 15.1144 25.0926 15.1186 25.0359 15.1115C24.9791 15.1043 24.9243 15.0858 24.8748 15.0572C24.8252 15.0286 24.7819 14.9904 24.7473 14.9448C24.7127 14.8992 24.6875 14.8472 24.6733 14.7918C24.659 14.7363 24.656 14.6786 24.6643 14.622C24.6726 14.5654 24.6922 14.511 24.7218 14.462L25.1784 13.6711C25.3882 13.7753 25.595 13.8854 25.7973 14.0032C25.8426 14.0288 25.8894 14.056 25.9309 14.0885Z" fill="#474646"/>
<path d="M21.4526 26.284L15.4209 29.0787C15.3574 29.1084 15.2862 29.1177 15.2171 29.1055C15.148 29.0934 15.0843 29.0602 15.0347 29.0106C14.9851 28.961 14.9519 28.8973 14.9398 28.8282C14.9276 28.7591 14.937 28.688 14.9666 28.6244L17.7613 22.5927C17.9228 22.244 18.2029 21.964 18.5515 21.8025L24.5787 19.0123C24.6422 18.9828 24.7132 18.9735 24.7822 18.9857C24.8511 18.9979 24.9147 19.0309 24.9643 19.0804C25.0138 19.1299 25.047 19.1934 25.0593 19.2623C25.0716 19.3313 25.0624 19.4023 25.033 19.4659L22.2428 25.493C22.0814 25.842 21.8014 26.1223 21.4526 26.284Z" fill="#7979F7"/>
<path d="M21.9446 25.9278C22.0653 25.8002 22.1687 25.6553 22.2434 25.493L25.0336 19.4659C25.063 19.4023 25.0722 19.3313 25.0599 19.2623C25.0476 19.1934 25.0144 19.1299 24.9649 19.0804C24.9153 19.0309 24.8518 18.9979 24.7828 18.9857C24.7138 18.9735 24.6428 18.9828 24.5793 19.0123L18.5521 21.8025C18.3906 21.878 18.2457 21.9798 18.1182 22.1013L21.9446 25.9278Z" fill="#FC6559"/>
<path d="M22.2428 25.494L25.033 19.4668C25.0574 19.4132 25.0666 19.3539 25.0597 19.2953C25.0528 19.2368 25.03 19.1813 24.9938 19.1348L15.0889 29.0412C15.1354 29.0774 15.1909 29.1002 15.2494 29.1071C15.308 29.114 15.3673 29.1048 15.4209 29.0804L21.4526 26.2857C21.8014 26.124 22.0814 25.8429 22.2428 25.494Z" fill="#5E5EEF"/>
<path d="M20.0723 24.057L21.944 25.9287C22.0647 25.8012 22.1681 25.6563 22.2428 25.494L25.033 19.4668C25.0574 19.4132 25.0666 19.3539 25.0597 19.2953C25.0528 19.2368 25.03 19.1813 24.9938 19.1348L20.0723 24.057Z" fill="#F05543"/>
<path d="M20.9205 24.96C20.8002 25.0816 20.657 25.1783 20.4992 25.2444C20.3414 25.3106 20.1721 25.3449 20.001 25.3455C19.8299 25.346 19.6604 25.3128 19.5022 25.2477C19.344 25.1826 19.2002 25.0869 19.079 24.9661C18.9582 24.845 18.8624 24.7012 18.7972 24.543C18.732 24.3848 18.6987 24.2153 18.6992 24.0442C18.6997 23.8731 18.734 23.7038 18.8001 23.546C18.8661 23.3882 18.9627 23.2449 19.0843 23.1245C19.2048 23.004 19.3479 22.9083 19.5054 22.8431C19.6629 22.7778 19.8317 22.7442 20.0022 22.7441C20.1726 22.7441 20.3414 22.7776 20.4989 22.8429C20.6565 22.9081 20.7996 23.0036 20.9202 23.1242C21.0407 23.2447 21.1364 23.3878 21.2016 23.5453C21.2669 23.7027 21.3005 23.8715 21.3006 24.042C21.3006 24.2125 21.2671 24.3813 21.2018 24.5388C21.1366 24.6963 21.041 24.8394 20.9205 24.96Z" fill="white"/>
<path d="M20.4262 24.4703C20.3717 24.5318 20.3053 24.5815 20.2309 24.6164C20.1565 24.6512 20.0758 24.6705 19.9937 24.673C19.9116 24.6755 19.8298 24.6612 19.7535 24.6309C19.6771 24.6007 19.6077 24.5551 19.5496 24.4971C19.4915 24.439 19.4459 24.3697 19.4156 24.2933C19.3853 24.217 19.3709 24.1353 19.3733 24.0532C19.3757 23.9711 19.395 23.8903 19.4297 23.8159C19.4645 23.7415 19.5142 23.675 19.5756 23.6205C19.6307 23.5615 19.6971 23.5143 19.7708 23.4815C19.8446 23.4488 19.9241 23.4312 20.0048 23.4298C20.0855 23.4284 20.1656 23.4433 20.2404 23.4735C20.3152 23.5037 20.3832 23.5487 20.4402 23.6057C20.4973 23.6627 20.5423 23.7306 20.5726 23.8054C20.6029 23.8802 20.6178 23.9603 20.6165 24.041C20.6152 24.1216 20.5977 24.2012 20.565 24.275C20.5323 24.3487 20.4851 24.4152 20.4262 24.4703Z" fill="#474646"/>
<path opacity="0.3" d="M19.0923 3.993H17.1346C17.0345 3.993 16.9385 3.95324 16.8677 3.88247C16.797 3.8117 16.7572 3.71572 16.7572 3.61564C16.7572 3.51556 16.797 3.41958 16.8677 3.34881C16.9385 3.27804 17.0345 3.23828 17.1346 3.23828H19.0923C19.1924 3.23828 19.2884 3.27804 19.3591 3.34881C19.4299 3.41958 19.4697 3.51556 19.4697 3.61564C19.4697 3.71572 19.4299 3.8117 19.3591 3.88247C19.2884 3.95324 19.1924 3.993 19.0923 3.993ZM15.8923 3.993H15.7006C15.6005 3.993 15.5045 3.95324 15.4338 3.88247C15.363 3.8117 15.3232 3.71572 15.3232 3.61564C15.3232 3.51556 15.363 3.41958 15.4338 3.34881C15.5045 3.27804 15.6005 3.23828 15.7006 3.23828H15.8923C15.9924 3.23828 16.0884 3.27804 16.1591 3.34881C16.2299 3.41958 16.2697 3.51556 16.2697 3.61564C16.2697 3.71572 16.2299 3.8117 16.1591 3.88247C16.0884 3.95324 15.9924 3.993 15.8923 3.993Z" fill="white"/>
</svg>
