<svg width="40" height="40" viewBox="0 0 40 40" fill="none" xmlns="http://www.w3.org/2000/svg">
<path d="M29.9125 4.14062H5.12578C4.71761 4.1447 4.32759 4.30989 4.04064 4.6002C3.7537 4.89051 3.59307 5.28244 3.59375 5.69062V37.2422C3.59429 37.4421 3.63447 37.6399 3.71195 37.8242C3.78943 38.0084 3.90269 38.1755 4.04516 38.3158C4.18764 38.456 4.3565 38.5666 4.54199 38.6411C4.72747 38.7156 4.9259 38.7526 5.12578 38.75H29.9125C30.1104 38.7519 30.3066 38.7141 30.4897 38.6388C30.6727 38.5635 30.8387 38.4523 30.978 38.3117C31.1173 38.1712 31.2269 38.0041 31.3005 37.8204C31.374 37.6366 31.41 37.44 31.4063 37.2422V5.69062C31.4063 4.84453 30.7586 4.14062 29.9125 4.14062Z" fill="#A2C6F8"/>
<path d="M27.1258 7.26562H7.9125C7.70368 7.26832 7.50389 7.35115 7.35441 7.49699C7.20494 7.64283 7.11721 7.84053 7.10938 8.04922V34.9609C7.10938 35.3836 7.48984 35.7031 7.9125 35.7031H23.1281C23.232 35.7115 23.3365 35.7028 23.4375 35.6773L27.7859 31.3281L27.8113 31.3383C27.8639 31.2249 27.8909 31.1015 27.8906 30.9766V8.04922C27.8914 7.84439 27.8117 7.64745 27.6686 7.50087C27.5255 7.35429 27.3306 7.2698 27.1258 7.26562Z" fill="#F1DBCD"/>
<path d="M27.7855 31.3242L27.8113 31.3359C27.7653 31.4388 27.7009 31.5325 27.6215 31.6125L23.7777 35.4563C23.6783 35.556 23.5572 35.6314 23.4238 35.6766V31.3242H27.7855Z" fill="#D5D6D7"/>
<path d="M21.8896 20.543L12.7686 20.5461C11.8311 20.6211 10.8949 20.7185 9.95996 20.8383V27.1008H20.9029L24.7271 24.5875V20.8383L21.8896 20.543Z" fill="#D28B94"/>
<path d="M36.1551 19.904L35.6988 19.2103C35.5884 19.0422 35.446 18.8974 35.2796 18.7843C35.1132 18.6713 34.9262 18.5921 34.7292 18.5513C34.5323 18.5105 34.3292 18.509 34.1316 18.5467C33.934 18.5845 33.7458 18.6607 33.5777 18.7712L33.0684 19.1064L35.2059 22.3603V22.3611L35.716 22.0259C36.0555 21.8026 36.2924 21.4537 36.3747 21.0559C36.457 20.658 36.378 20.2437 36.1551 19.904Z" fill="#495F7B"/>
<path d="M34.1371 20.7344L17.4863 31.675L18.5559 33.3023L35.2059 22.3625V22.3617L34.1371 20.7344Z" fill="#ECD17D"/>
<path d="M33.0678 19.1074L16.417 30.0473L17.4857 31.6746L34.1365 20.734L33.0678 19.1074Z" fill="#F3E08C"/>
<path d="M16.4176 30.0469L14.2324 33.8125L18.5559 33.3016L16.4176 30.0469Z" fill="#495F7B"/>
<path d="M12.7684 20.5451C12.6298 19.9323 12.4293 19.3352 12.1699 18.7631H12.1723C11.69 17.7015 11.4065 16.5605 11.3356 15.3966C11.3317 15.3373 11.3301 15.2779 11.3301 15.2193C11.3288 14.7913 11.4264 14.3687 11.6152 13.9846C11.8041 13.6005 12.0791 13.2652 12.4189 13.0049C12.7586 12.7445 13.1539 12.5662 13.5739 12.4837C13.9939 12.4012 14.4273 12.4169 14.8402 12.5295L15.9465 12.8318C16.8609 13.0821 17.8257 13.0823 18.7402 12.8326L19.8488 12.5302C20.2761 12.4144 20.7249 12.4022 21.1578 12.4947C21.5907 12.5872 21.9953 12.7817 22.338 13.0621C22.6806 13.3424 22.9513 13.7005 23.1277 14.1066C23.3041 14.5126 23.3809 14.9549 23.352 15.3966C23.2814 16.5605 22.9978 17.7016 22.5152 18.7631H22.5168C22.2554 19.3363 22.0455 19.9316 21.8895 20.542C21.7113 21.2416 21.6206 21.9606 21.6192 22.6826V24.2466C21.6206 24.5392 21.5067 24.8205 21.302 25.0295C21.201 25.1325 21.0803 25.2142 20.9472 25.2699C20.8141 25.3256 20.6712 25.3541 20.527 25.3537C20.2473 25.3534 19.9773 25.2512 19.7676 25.0662C19.476 24.8195 19.2408 24.5131 19.078 24.1676C18.9152 23.8221 18.8285 23.4457 18.8238 23.0638V22.2045C18.8261 22.0039 18.7885 21.805 18.7132 21.6191C18.6379 21.4332 18.5264 21.2642 18.3852 21.1218C18.2439 20.9794 18.0758 20.8665 17.8906 20.7896C17.7054 20.7127 17.5067 20.6734 17.3062 20.674C17.1057 20.6746 16.9072 20.715 16.7224 20.7929C16.5377 20.8708 16.3702 20.9847 16.2298 21.1279C16.0894 21.2711 15.9789 21.4408 15.9046 21.6271C15.8304 21.8134 15.7939 22.0125 15.7973 22.2131V23.0638C15.7977 23.4439 15.716 23.8195 15.5578 24.1651C15.3997 24.5107 15.1687 24.8181 14.8809 25.0662C14.7758 25.1576 14.6555 25.2298 14.5254 25.2795C14.3953 25.3287 14.2574 25.3538 14.1184 25.3537C13.8238 25.354 13.5411 25.2378 13.3319 25.0304C13.1227 24.823 13.0041 24.5412 13.002 24.2466V22.6826C13.0038 21.9636 12.9255 21.2467 12.7684 20.5451Z" fill="#DEEAFB"/>
<path d="M20.2764 5.67429V3.98288C20.2642 3.25961 19.9683 2.57007 19.4525 2.06289C18.9367 1.5557 18.2423 1.27148 17.5189 1.27148C16.7956 1.27148 16.1011 1.5557 15.5854 2.06289C15.0696 2.57007 14.7737 3.25961 14.7615 3.98288V5.67429H11.4248V9.03835H23.6131V5.67429H20.2764Z" fill="#445668"/>
<path d="M5.9375 37.2422V5.69062C5.93682 5.28244 6.09745 4.89051 6.38439 4.6002C6.67134 4.30989 7.06136 4.1447 7.46953 4.14062H5.12578C4.71761 4.1447 4.32759 4.30989 4.04064 4.6002C3.7537 4.89051 3.59307 5.28244 3.59375 5.69062V37.2422C3.59429 37.4421 3.63447 37.6399 3.71195 37.8242C3.78943 38.0084 3.90269 38.1755 4.04516 38.3158C4.18764 38.456 4.3565 38.5666 4.54199 38.6411C4.72747 38.7156 4.9259 38.7526 5.12578 38.75H7.46953C7.26965 38.7526 7.07122 38.7156 6.88574 38.6411C6.70025 38.5666 6.53139 38.456 6.38891 38.3158C6.24644 38.1755 6.13318 38.0084 6.0557 37.8242C5.97822 37.6399 5.93804 37.4421 5.9375 37.2422Z" fill="#90B4E0"/>
<path d="M15.3465 22.6826C15.3484 21.9636 15.2701 21.2467 15.1129 20.5451C14.9744 19.9323 14.7739 19.3352 14.5145 18.7631H14.5168C14.0346 17.7015 13.751 16.5605 13.6801 15.3966C13.6762 15.3373 13.6747 15.2779 13.6747 15.2193C13.673 14.6778 13.8296 14.1475 14.1252 13.6938C14.4209 13.2401 14.8427 12.8826 15.3387 12.6654L14.8412 12.5295C14.4283 12.4169 13.9949 12.4012 13.5749 12.4837C13.1549 12.5662 12.7596 12.7445 12.4198 13.0049C12.0801 13.2652 11.8051 13.6005 11.6162 13.9846C11.4274 14.3687 11.3298 14.7913 11.3311 15.2193C11.3311 15.2779 11.3326 15.3373 11.3365 15.3966C11.4074 16.5605 11.691 17.7015 12.1733 18.7631H12.1709C12.4303 19.3352 12.6308 19.9323 12.7693 20.5451C12.9265 21.2467 13.0048 21.9636 13.0029 22.6826V24.2466C13.0051 24.5412 13.1237 24.823 13.3329 25.0304C13.542 25.2378 13.8248 25.354 14.1193 25.3537C14.2584 25.3538 14.3963 25.3287 14.5264 25.2795C14.6565 25.2298 14.7768 25.1576 14.8818 25.0662C15.0731 24.9007 15.2397 24.7086 15.3765 24.4959C15.357 24.4141 15.347 24.3304 15.3467 24.2464L15.3465 22.6826Z" fill="#C8D7E8"/>
<path d="M5.19531 17.2229C5.07099 17.2229 4.95176 17.1735 4.86386 17.0856C4.77595 16.9977 4.72656 16.8785 4.72656 16.7541V9.54602C4.72656 9.4217 4.77595 9.30247 4.86386 9.21456C4.95176 9.12665 5.07099 9.07727 5.19531 9.07727C5.31963 9.07727 5.43886 9.12665 5.52677 9.21456C5.61468 9.30247 5.66406 9.4217 5.66406 9.54602V16.7543C5.66402 16.8786 5.61462 16.9978 5.52671 17.0857C5.43881 17.1735 5.31961 17.2229 5.19531 17.2229ZM5.19531 8.54453C5.07099 8.54453 4.95176 8.49515 4.86386 8.40724C4.77595 8.31933 4.72656 8.2001 4.72656 8.07578V7.69141C4.72656 7.56709 4.77595 7.44786 4.86386 7.35995C4.95176 7.27204 5.07099 7.22266 5.19531 7.22266C5.31963 7.22266 5.43886 7.27204 5.52677 7.35995C5.61468 7.44786 5.66406 7.56709 5.66406 7.69141V8.07578C5.66406 8.2001 5.61468 8.31933 5.52677 8.40724C5.43886 8.49515 5.31963 8.54453 5.19531 8.54453Z" fill="#F4F8FC"/>
</svg>
