<svg width="40" height="41" viewBox="0 0 40 41" fill="none" xmlns="http://www.w3.org/2000/svg">
<path d="M33.2574 25.2207H4.10664C3.69286 25.2207 3.35742 25.5561 3.35742 25.9699V37.7934C3.35742 38.2071 3.69286 38.5426 4.10664 38.5426H33.2574C33.6712 38.5426 34.0066 38.2071 34.0066 37.7934V25.9699C34.0066 25.5561 33.6712 25.2207 33.2574 25.2207Z" fill="#E73F46"/>
<path d="M6.1875 25.2215C6.1875 25.2215 7.77344 33.7246 10.1063 34.5332C12.4391 35.3418 13.0008 33.3816 13.0008 33.3816C13.0008 33.3816 13.7141 35.434 15.6109 34.9676C17.5078 34.5012 18.5016 31.2668 18.5016 31.2668C18.5016 31.2668 18.7859 34.266 20.9312 35.0371C23.0766 35.8082 23.8219 33.5059 23.8219 33.5059C23.8219 33.5059 24.8789 35.559 27.5852 34.9371C30.2914 34.3152 31.6898 25.2207 31.6898 25.2207L6.1875 25.2215Z" fill="#CC3745"/>
<path d="M20.8602 12.8414C20.8602 12.8414 21.9539 14.657 21.2586 15.6367C20.5633 16.6164 19.3055 14.5148 18.0992 14.2031C16.893 13.8914 15.6938 15.3906 13.7508 14.5344L12.632 15.8953C12.632 15.8953 8.16328 12.9492 6.97656 9.47578L8.99297 8.47031C10.3773 6.24012 12.4479 4.51932 14.8938 3.56641C16.8828 6.65807 18.8716 9.74974 20.8602 12.8414Z" fill="#40C2D6"/>
<path d="M18.0353 19.5354C17.6712 19.2416 16.7954 18.7159 14.9103 19.0432C14.4595 19.0432 14.0603 19.2776 13.7384 19.662C13.6482 19.7714 13.5348 19.8596 13.4065 19.9201C13.2782 19.9807 13.1381 20.0121 12.9962 20.0121C12.8543 20.0121 12.7142 19.9807 12.5859 19.9201C12.4576 19.8596 12.3443 19.7714 12.254 19.662C11.9321 19.276 11.5337 19.0432 11.0821 19.0432C9.20012 18.7159 8.32355 19.2416 7.95715 19.5354C6.10324 21.033 6.40402 25.519 9.4298 30.4784C9.55903 30.766 9.76359 31.0134 10.0219 31.1944C10.2801 31.3754 10.5825 31.4832 10.897 31.5065C11.4939 31.4815 12.0087 30.9956 12.0978 30.3276L12.279 28.9635C12.3915 28.1213 13.6071 28.1213 13.7212 28.9635L13.9064 30.3237C13.9954 30.9916 14.5095 31.4776 15.1064 31.5026C15.4185 31.4776 15.7182 31.3694 15.9743 31.1893C16.2304 31.0092 16.4336 30.7637 16.5626 30.4784C19.5884 25.519 19.89 21.033 18.0353 19.5354Z" fill="#86EBF9"/>
<path d="M29.7237 19.5354C29.3597 19.2416 28.4831 18.7159 26.5987 19.0432C26.148 19.0432 25.7487 19.2776 25.4269 19.662C25.3366 19.7714 25.2233 19.8596 25.095 19.9201C24.9667 19.9807 24.8266 20.0121 24.6847 20.0121C24.5428 20.0121 24.4027 19.9807 24.2744 19.9201C24.1461 19.8596 24.0327 19.7714 23.9425 19.662C23.6214 19.276 23.2222 19.0432 22.7706 19.0432C20.8886 18.7159 20.012 19.2416 19.6456 19.5354C17.7917 21.033 18.0925 25.519 21.1183 30.4784C21.2476 30.7658 21.4521 31.0131 21.7101 31.194C21.9682 31.375 22.2704 31.4829 22.5847 31.5065C23.1816 31.4815 23.6964 30.9956 23.7855 30.3276L23.9667 28.9635C24.0792 28.1213 25.2948 28.1213 25.4089 28.9635L25.5909 30.3276C25.68 30.9956 26.1948 31.4815 26.7917 31.5065C27.1044 31.4821 27.4048 31.3741 27.6615 31.194C27.9182 31.0138 28.1218 30.768 28.2511 30.4823C31.2761 25.519 31.5777 21.033 29.7237 19.5354Z" fill="#86EBF9"/>
<path d="M13 20.4403C13 20.4403 13.7078 20.7239 14.1578 20.1403C14.6078 19.5567 15.5406 18.9395 17.6906 19.6653C17.6906 19.6653 15.707 19.7239 15.1578 20.1075C14.6086 20.4911 13.8922 21.0903 13 20.4403ZM30.2805 21.6239C30.2805 21.6239 30.0305 18.8809 26.2062 19.6653C26.2062 19.6653 29.3055 19.5528 30.2805 21.6239Z" fill="#EFEFEF"/>
<path d="M10.6817 24.4027C9.30513 24.3097 8.32544 24.1464 7.97544 23.2597C7.62544 22.373 8.28091 20.6355 7.28873 20.3847C7.28873 20.3847 6.74185 20.4144 6.52935 21.1144C6.31685 21.8144 5.75982 21.3941 5.9231 22.4668C6.08638 23.5394 6.18716 25.2222 6.18716 25.2222C6.18716 25.2222 6.81216 27.7621 7.4856 28.648C8.15904 29.5339 7.74263 30.141 8.67232 30.8871C9.60201 31.6332 10.3051 31.6574 10.7036 31.0277C11.102 30.398 10.9606 29.1613 11.3333 27.9714C11.7059 26.7816 12.0364 26.2925 12.2903 25.3824C12.5442 24.4722 12.0575 24.4964 10.6817 24.4027ZM18.4997 20.0339C18.4997 20.0339 18.6825 23.5863 17.6911 24.4574C16.6997 25.3285 16.627 24.6402 17.1036 26.6347C17.5801 28.6293 16.3676 30.8097 16.3676 30.8097C16.3676 30.8097 17.995 28.841 18.6817 27.8785C19.3684 26.916 19.5684 28.8894 21.3215 30.8097C21.3215 30.8097 22.0059 28.0339 21.0942 26.6964C20.1825 25.3589 19.3114 24.398 19.6231 22.9644C19.9348 21.5308 20.3145 19.1105 21.5684 18.9402C21.5684 18.9402 20.709 18.7144 20.0934 18.9402C19.4778 19.166 19.1481 19.7214 18.7872 19.3378C18.4262 18.9543 17.2036 19.1035 17.2036 19.1035C17.2036 19.1035 18.1544 19.4433 18.4997 20.0339ZM26.7918 31.5074C26.7918 31.5074 28.3426 30.4011 28.2434 28.8777C28.1442 27.3543 28.4864 26.5761 29.3879 25.705C30.2895 24.8339 30.3809 23.2261 30.477 22.0003C30.5731 20.7746 30.7567 20.7566 31.102 21.1918C31.4473 21.6269 31.1333 22.3425 31.6926 23.1511C32.252 23.9597 31.6926 25.2222 31.6926 25.2222C31.6926 25.2222 30.884 26.1371 30.5731 27.6605C30.2622 29.1839 29.1083 32.3293 26.7918 31.5074Z" fill="#EFBD42"/>
<path d="M30.6151 22.1426C30.5586 22.1426 30.5032 22.1272 30.4548 22.0982C30.4064 22.0692 30.3667 22.0276 30.34 21.9778C30.3133 21.9281 30.3006 21.872 30.3033 21.8156C30.3059 21.7592 30.3237 21.7045 30.3549 21.6575L31.0049 20.6762C31.2061 20.3713 31.2779 19.999 31.2047 19.6411C31.1314 19.2832 30.9191 18.969 30.6143 18.7676L18.2815 10.5926C18.2124 10.5468 18.1643 10.4755 18.1478 10.3942C18.1314 10.313 18.1478 10.2285 18.1936 10.1594C18.2394 10.0903 18.3108 10.0423 18.392 10.0258C18.4733 10.0093 18.5577 10.0258 18.6268 10.0715L30.9628 18.2465C31.4051 18.5401 31.7128 18.9972 31.8184 19.5175C31.9241 20.0378 31.8189 20.5787 31.526 21.0215L30.876 22.0028C30.8475 22.0459 30.8087 22.0812 30.7632 22.1056C30.7176 22.13 30.6668 22.1427 30.6151 22.1426Z" fill="#1573D8"/>
<mask id="mask0_1622_17330" style="mask-type:luminance" maskUnits="userSpaceOnUse" x="11" y="5" width="14" height="10">
<path d="M24.3368 14.2318C24.7626 13.5897 24.5954 12.6928 23.9274 12.2139L14.7931 5.66622C13.6438 4.842 12.1782 4.87247 11.5782 5.77716C10.979 6.68185 11.522 8.04278 12.729 8.78106L22.3196 14.6404C23.0173 15.0678 23.9071 14.8772 24.3368 14.2318Z" fill="white"/>
</mask>
<g mask="url(#mask0_1622_17330)">
<path d="M24.3368 14.2318C24.7626 13.5897 24.5954 12.6928 23.9274 12.2139L14.7931 5.66622C13.6438 4.842 12.1782 4.87247 11.5782 5.77716C10.979 6.68185 11.522 8.04278 12.729 8.78106L22.3196 14.6404C23.0173 15.0678 23.9071 14.8772 24.3368 14.2318Z" fill="#287EEF"/>
<path d="M19.1139 14.1594C19.8741 14.1594 20.4904 13.5431 20.4904 12.7828C20.4904 12.0226 19.8741 11.4062 19.1139 11.4062C18.3536 11.4062 17.7373 12.0226 17.7373 12.7828C17.7373 13.5431 18.3536 14.1594 19.1139 14.1594Z" fill="#1573D8"/>
<path d="M16.8199 12.6379C17.5802 12.6379 18.1965 12.0216 18.1965 11.2613C18.1965 10.5011 17.5802 9.88477 16.8199 9.88477C16.0597 9.88477 15.4434 10.5011 15.4434 11.2613C15.4434 12.0216 16.0597 12.6379 16.8199 12.6379Z" fill="#1573D8"/>
<path d="M14.525 11.1184C15.2853 11.1184 15.9016 10.5021 15.9016 9.7418C15.9016 8.98154 15.2853 8.36523 14.525 8.36523C13.7647 8.36523 13.1484 8.98154 13.1484 9.7418C13.1484 10.5021 13.7647 11.1184 14.525 11.1184Z" fill="#1573D8"/>
</g>
<path d="M23.7359 9.01583C23.8136 9.26198 23.8042 9.52733 23.7094 9.76739C23.2305 11.083 21.9297 13.3674 20.7789 13.3713C19.6281 13.3752 20.25 10.6721 20.25 10.6721C20.25 10.6721 19.1172 12.6838 18.1609 12.0994C17.2047 11.515 18.2227 9.21973 18.2227 9.21973C18.2227 9.21973 17.3969 11.3369 16.3969 10.7041C15.3969 10.0713 16.3445 7.66427 16.3445 7.66427C16.3445 7.66427 15.0242 9.90958 14.2016 9.23692C13.3789 8.56427 14.793 5.66739 14.793 5.66739C14.793 5.66739 13.5164 4.8127 12.4844 5.14552C12.4844 5.14552 14.257 3.40802 15.7914 3.38692C17.3258 3.36583 17.5789 4.99473 17.5789 4.99473C17.5789 4.99473 19.8742 4.32833 19.4305 6.3127C19.6912 6.15449 19.9932 6.07757 20.2978 6.09176C20.6025 6.10596 20.896 6.21062 21.1409 6.39239C21.3858 6.57415 21.571 6.82478 21.6728 7.11227C21.7746 7.39976 21.7884 7.71107 21.7125 8.00645C21.8984 8.01895 23.4313 8.13848 23.7359 9.01583Z" fill="#40C2D6"/>
<path d="M35.9377 23.9527L33.6721 22.5637L34.9221 21.4035L33.733 21.1566C34.0893 20.5801 34.4452 20.0038 34.801 19.4277L33.1025 19.709C33.3109 18.8757 33.5192 18.0423 33.7275 17.209C33.8317 17.7965 33.9343 18.384 34.0354 18.9715L35.4416 18.8934L34.7135 20.6816L36.9846 20.9535L34.8439 22.4934L35.9377 23.9527ZM25.3447 17.5832L27.5783 18.0684L27.6697 16.1496L29.2002 17.2434C29.3893 16.7902 29.5781 16.3366 29.7666 15.8824L30.5229 16.9168L32.1307 15.1855L30.5494 16.0605L29.7314 15.0449L28.6768 16.3121L27.1705 15.2871L26.9643 17.3363L25.3447 17.5832Z" fill="#917EEC"/>
<path d="M13.4941 4.57209C13.4941 4.57209 15.0691 3.55021 16.1895 3.90803C17.3098 4.26584 17.034 5.31428 17.034 5.31428C17.034 5.31428 16.4309 3.34553 13.4941 4.57209ZM17.6371 5.49709C17.6371 5.49709 18.8441 5.13537 19.0051 5.93928C19.166 6.74318 17.2957 10.1432 17.2957 10.1432C17.2957 10.1432 18.5254 6.54318 18.4535 6.08068C18.3816 5.61818 17.6371 5.49709 17.6371 5.49709ZM19.7488 6.72365C19.7488 6.72365 20.9988 6.54318 21.2777 7.38771C21.5566 8.23224 19.0121 11.6112 19.0121 11.6112C19.0121 11.6112 20.391 8.59396 20.5129 7.89006C20.6348 7.18615 19.7488 6.72365 19.7488 6.72365ZM22.3441 8.67443C22.3441 8.67443 23.1105 8.55099 23.4098 9.15959C23.709 9.76818 21.1777 13.0588 21.1777 13.0588C21.1777 13.0588 22.6246 10.0221 22.766 9.49943C22.9074 8.97678 22.3441 8.67443 22.3441 8.67443Z" fill="#86EBF9"/>
</svg>
