<svg width="40" height="41" viewBox="0 0 40 41" fill="none" xmlns="http://www.w3.org/2000/svg">
<path d="M34.375 34.0059H5.625V5.25586C5.625 3.87461 6.74375 2.75586 8.125 2.75586H31.875C33.2563 2.75586 34.375 3.87461 34.375 5.25586V34.0059Z" fill="#63989C"/>
<path d="M34.375 34.0059H5.625V36.5059C5.625 37.8871 6.74375 39.0059 8.125 39.0059H31.875C33.2563 39.0059 34.375 37.8871 34.375 36.5059V34.0059ZM19.9937 20.3934C17.3125 20.3934 16.825 25.2934 16.7313 27.0996C16.7125 27.4746 16.3625 27.7621 15.9563 27.7559C14.5125 27.7434 13.7875 26.4121 13.7875 24.9684V21.3934C13.7875 18.8559 11.5 16.9246 11.2563 13.8871C11.05 11.3621 13.1 9.06836 15.8563 9.00586C16.7313 8.98711 17.55 9.18711 18.2562 9.54336C19.325 10.0871 20.6562 10.0871 21.725 9.54336C22.4312 9.18086 23.25 8.98711 24.125 9.00586C26.8875 9.06836 28.9312 11.3621 28.725 13.8871C28.4812 16.9246 26.1938 18.8559 26.1938 21.3934V24.9684C26.1938 26.4059 25.4688 27.7434 24.025 27.7559C23.6187 27.7559 23.2688 27.4684 23.25 27.0996C23.1625 25.2934 22.6687 20.3934 19.9875 20.3934H19.975H19.9937ZM13.125 5.25586H10C8.96875 5.25586 8.125 6.09961 8.125 7.13086V10.2559C8.125 10.5996 8.40625 10.8809 8.75 10.8809C9.09375 10.8809 9.375 10.5996 9.375 10.2559V7.13086C9.375 6.78711 9.65625 6.50586 10 6.50586H13.125C13.4688 6.50586 13.75 6.22461 13.75 5.88086C13.75 5.53711 13.4688 5.25586 13.125 5.25586ZM31.25 25.8809C30.9062 25.8809 30.625 26.1621 30.625 26.5059V29.6309C30.625 29.9746 30.3438 30.2559 30 30.2559H27.5C27.1562 30.2559 26.875 30.5371 26.875 30.8809C26.875 31.2246 27.1562 31.5059 27.5 31.5059H30C31.0312 31.5059 31.875 30.6621 31.875 29.6309V26.5059C31.875 26.1621 31.5938 25.8809 31.25 25.8809ZM13.125 30.2559H10C9.65625 30.2559 9.375 29.9746 9.375 29.6309V26.5059C9.375 26.1621 9.09375 25.8809 8.75 25.8809C8.40625 25.8809 8.125 26.1621 8.125 26.5059V29.6309C8.125 30.6621 8.96875 31.5059 10 31.5059H13.125C13.4688 31.5059 13.75 31.2246 13.75 30.8809C13.75 30.5371 13.4688 30.2559 13.125 30.2559ZM30 5.25586H27.5C27.1562 5.25586 26.875 5.53711 26.875 5.88086C26.875 6.22461 27.1562 6.50586 27.5 6.50586H30C30.3438 6.50586 30.625 6.78711 30.625 7.13086V10.2559C30.625 10.5996 30.9062 10.8809 31.25 10.8809C31.5938 10.8809 31.875 10.5996 31.875 10.2559V7.13086C31.875 6.09961 31.0312 5.25586 30 5.25586Z" fill="#F2F3F5"/>
</svg>
