<svg width="40" height="41" viewBox="0 0 40 41" fill="none" xmlns="http://www.w3.org/2000/svg">
<path d="M29.1924 4.3279L5.57074 6.69398C5.18649 6.73247 4.9062 7.07516 4.94469 7.45941L7.99302 37.8923C8.03151 38.2765 8.3742 38.5568 8.75845 38.5183L32.3801 36.1522C32.7643 36.1138 33.0446 35.7711 33.0061 35.3868L29.9578 4.95395C29.9193 4.5697 29.5766 4.28941 29.1924 4.3279Z" fill="#917EEC"/>
<path d="M27.8808 6.06676L6.98145 8.16016L9.86471 36.945L30.764 34.8516L27.8808 6.06676Z" fill="#C6C6C6"/>
<path d="M28.8327 5.58098L8.15332 7.65234L11.0062 36.134L31.6855 34.0627L28.8327 5.58098Z" fill="#EFEFEF"/>
<path d="M17.0809 10.8804C16.8411 10.7241 16.2754 10.4569 15.1504 10.771C14.8754 10.7983 14.6473 10.9647 14.4747 11.2186C14.4265 11.2906 14.363 11.351 14.2888 11.3955C14.2145 11.4401 14.1314 11.4677 14.0452 11.4763C13.9591 11.485 13.8721 11.4745 13.7905 11.4456C13.7088 11.4167 13.6346 11.3702 13.5731 11.3093C13.3543 11.0944 13.0973 10.9764 12.8223 11.0038C11.6567 10.9194 11.1559 11.2929 10.952 11.4936C9.91528 12.5179 10.3715 15.2296 12.5145 18.0639C12.6105 18.2299 12.7493 18.3669 12.9165 18.4608C13.0836 18.5547 13.2729 18.6019 13.4645 18.5975C13.8262 18.546 14.1098 18.2194 14.1239 17.8077L14.1512 16.9655C14.1676 16.4468 14.909 16.3725 15.0286 16.878L15.2223 17.6975C15.3168 18.0983 15.6598 18.3624 16.0247 18.3413C16.2134 18.3074 16.3896 18.2235 16.5349 18.0983C16.6801 17.9732 16.7891 17.8113 16.8504 17.6296C18.3903 14.4296 18.3004 11.6811 17.0809 10.8804Z" fill="#287EEF"/>
<path d="M27.444 10.6967L19.4885 11.4936C19.3562 11.5068 19.2598 11.6248 19.273 11.757L19.276 11.7873C19.2893 11.9196 19.4072 12.016 19.5395 12.0028L27.495 11.2059C27.6272 11.1927 27.7236 11.0747 27.7104 10.9425L27.7074 10.9122C27.6941 10.7799 27.5762 10.6835 27.444 10.6967Z" fill="#C6C6C6"/>
<path d="M27.6539 12.8041L19.6984 13.601C19.5662 13.6143 19.4697 13.7322 19.483 13.8644L19.486 13.8947C19.4992 14.027 19.6172 14.1234 19.7494 14.1102L27.7049 13.3133C27.8371 13.3001 27.9336 13.1821 27.9204 13.0499L27.9173 13.0196C27.9041 12.8874 27.7861 12.7909 27.6539 12.8041Z" fill="#C6C6C6"/>
<path d="M28.2915 19.1655L14.1164 20.5854C13.9841 20.5986 13.8877 20.7166 13.9009 20.8488L13.904 20.8791C13.9172 21.0114 14.0351 21.1078 14.1674 21.0946L28.3425 19.6747C28.4748 19.6615 28.5712 19.5435 28.558 19.4113L28.5549 19.381C28.5417 19.2487 28.4238 19.1523 28.2915 19.1655Z" fill="#C6C6C6"/>
<path d="M23.581 21.0341L14.2551 21.9682C14.1228 21.9815 14.0264 22.0994 14.0396 22.2316L14.0426 22.2619C14.0559 22.3942 14.1738 22.4906 14.3061 22.4774L23.632 21.5432C23.7643 21.53 23.8607 21.4121 23.8475 21.2798L23.8445 21.2495C23.8312 21.1173 23.7133 21.0208 23.581 21.0341Z" fill="#C6C6C6"/>
<path d="M28.732 23.5542L14.5568 24.9741C14.4246 24.9873 14.3281 25.1052 14.3414 25.2375L14.3444 25.2678C14.3576 25.4 14.4756 25.4965 14.6078 25.4832L28.783 24.0634C28.9152 24.0501 29.0117 23.9322 28.9984 23.8L28.9954 23.7696C28.9821 23.6374 28.8642 23.541 28.732 23.5542Z" fill="#C6C6C6"/>
<path d="M24.0215 25.4227L14.6955 26.3569C14.5632 26.3701 14.4668 26.4881 14.48 26.6203L14.4831 26.6506C14.4963 26.7828 14.6143 26.8793 14.7465 26.866L24.0725 25.9319C24.2047 25.9187 24.3012 25.8007 24.2879 25.6685L24.2849 25.6382C24.2716 25.5059 24.1537 25.4095 24.0215 25.4227Z" fill="#C6C6C6"/>
<path d="M29.1714 27.9429L14.9963 29.3627C14.864 29.376 14.7676 29.4939 14.7808 29.6261L14.7839 29.6565C14.7971 29.7887 14.915 29.8852 15.0473 29.8719L29.2224 28.452C29.3547 28.4388 29.4511 28.3209 29.4379 28.1886L29.4348 28.1583C29.4216 28.0261 29.3037 27.9296 29.1714 27.9429Z" fill="#C6C6C6"/>
<path d="M24.4599 29.8114L15.134 30.7455C15.0017 30.7588 14.9053 30.8767 14.9185 31.009L14.9216 31.0393C14.9348 31.1715 15.0527 31.268 15.185 31.2547L24.511 30.3206C24.6432 30.3073 24.7396 30.1894 24.7264 30.0572L24.7234 30.0268C24.7101 29.8946 24.5922 29.7982 24.4599 29.8114Z" fill="#C6C6C6"/>
<path d="M12.87 20.7093L10.6266 20.934C10.4995 20.9467 10.4068 21.0601 10.4195 21.1871L10.6443 23.4306C10.657 23.5577 10.7703 23.6504 10.8974 23.6376L13.1409 23.4129C13.2679 23.4002 13.3606 23.2869 13.3479 23.1598L13.1232 20.9163C13.1105 20.7892 12.9971 20.6965 12.87 20.7093Z" fill="#C6C6C6"/>
<path d="M13.3085 25.0999L11.0651 25.3246C10.938 25.3373 10.8453 25.4507 10.858 25.5778L11.0827 27.8212C11.0955 27.9483 11.2088 28.041 11.3359 28.0283L13.5793 27.8035C13.7064 27.7908 13.7991 27.6775 13.7864 27.5504L13.5617 25.3069C13.5489 25.1799 13.4356 25.0872 13.3085 25.0999Z" fill="#C6C6C6"/>
<path d="M13.7489 29.4886L11.5055 29.7133C11.3784 29.726 11.2857 29.8393 11.2984 29.9664L11.5232 32.2099C11.5359 32.337 11.6492 32.4297 11.7763 32.4169L14.0198 32.1922C14.1468 32.1795 14.2395 32.0662 14.2268 31.9391L14.0021 29.6956C13.9894 29.5685 13.876 29.4758 13.7489 29.4886Z" fill="#C6C6C6"/>
<path d="M10.8418 20.8078L12.1441 22.7695L14.566 18.5508L11.9957 21.5906L10.8418 20.8078ZM11.2816 25.1969L12.584 27.1594L15.0059 22.9406L12.4348 25.9805L11.2816 25.1969ZM11.7184 29.5859L13.0207 31.5484L15.4426 27.3297L12.8723 30.3695L11.7184 29.5859Z" fill="#287EEF"/>
<path d="M17.1208 3.39318C15.7029 3.53772 14.631 4.48225 14.7333 5.50803C14.8357 6.53381 16.0716 7.25022 17.4927 7.10803C18.9138 6.96584 19.9825 6.01897 19.8794 4.9924C19.7763 3.96584 18.5411 3.25022 17.1208 3.39318ZM17.9185 5.19006L16.6943 5.31272C16.6067 5.31819 16.5205 5.28954 16.4536 5.23279C16.3868 5.17603 16.3445 5.09558 16.3357 5.00832C16.3269 4.92107 16.3523 4.8338 16.4065 4.76484C16.4606 4.69588 16.5394 4.6506 16.6263 4.6385L17.8513 4.51584C17.8965 4.50945 17.9426 4.51228 17.9867 4.52415C18.0309 4.53601 18.0721 4.55667 18.1081 4.58489C18.144 4.61311 18.1739 4.6483 18.1959 4.68835C18.2179 4.7284 18.2315 4.77249 18.2361 4.81795C18.2406 4.86342 18.2359 4.90934 18.2222 4.95294C18.2086 4.99654 18.1862 5.03694 18.1566 5.07169C18.1269 5.10645 18.0905 5.13485 18.0496 5.15519C18.0087 5.17553 17.9641 5.18739 17.9185 5.19006Z" fill="#EFBD42"/>
<path d="M21.7518 4.34556L18.1885 4.70181C18.2128 4.75078 18.2249 4.80492 18.2236 4.85957C18.2224 4.91422 18.2079 4.96775 18.1813 5.01555C18.1548 5.06335 18.1171 5.104 18.0714 5.134C18.0257 5.16399 17.9734 5.18244 17.919 5.18775L16.6948 5.31041C16.6404 5.31586 16.5856 5.30808 16.5349 5.28772C16.4842 5.26736 16.4392 5.23503 16.4037 5.1935C16.3683 5.15196 16.3434 5.10246 16.3312 5.04922C16.319 4.99597 16.3199 4.94057 16.3338 4.88775L12.8667 5.23463C12.6765 5.25377 12.5017 5.34763 12.3807 5.49559C12.2597 5.64355 12.2024 5.8335 12.2213 6.02369L12.4557 8.38697C12.4749 8.57715 12.5687 8.75194 12.7167 8.87295C12.8646 8.99395 13.0546 9.05126 13.2448 9.03228L22.1323 8.14556C22.2265 8.13618 22.3179 8.10833 22.4013 8.06358C22.4848 8.01884 22.5586 7.95809 22.6185 7.8848C22.6784 7.81152 22.7233 7.72714 22.7506 7.63649C22.7779 7.54584 22.7871 7.4507 22.7776 7.3565L22.5432 4.994C22.5341 4.89934 22.5064 4.80741 22.4617 4.72351C22.4169 4.63961 22.356 4.56538 22.2824 4.50511C22.2089 4.44485 22.1241 4.39972 22.0331 4.37234C21.942 4.34496 21.8464 4.33586 21.7518 4.34556Z" fill="#EFBD42"/>
<path d="M19.3912 5.04028C19.3912 5.04028 19.4475 7.27231 17.5459 8.2684L21.5092 7.87153C21.5852 7.86419 21.659 7.84193 21.7264 7.80602C21.7938 7.77011 21.8534 7.72125 21.9019 7.66225C21.9504 7.60325 21.9868 7.53526 22.0089 7.46218C22.0311 7.3891 22.0386 7.31236 22.0311 7.23637L21.835 5.27544C21.8287 5.21306 21.8102 5.15252 21.7806 5.09728C21.7509 5.04204 21.7107 4.99319 21.6621 4.9535C21.6136 4.91382 21.5577 4.88409 21.4977 4.866C21.4377 4.84791 21.3747 4.84183 21.3123 4.84809L19.3912 5.04028Z" fill="#D7981A"/>
<path d="M33.5586 16.9263C33.0376 16.9263 32.6516 16.4498 32.7172 15.9279C32.7258 15.8591 32.6047 16.1169 34.7485 11.8513C34.7742 11.7986 34.7877 11.7407 34.788 11.682C34.7882 11.6233 34.7753 11.5653 34.7501 11.5123C34.7248 11.4593 34.688 11.4127 34.6423 11.3759C34.5966 11.3391 34.5431 11.3131 34.486 11.2998L33.4305 11.0654C33.3946 11.0585 33.3604 11.0444 33.3301 11.0241C33.2997 11.0037 33.2737 10.9775 33.2536 10.9469C33.2335 10.9163 33.2198 10.8821 33.2132 10.8461C33.2066 10.8101 33.2074 10.7732 33.2153 10.7375C33.2232 10.7018 33.2383 10.668 33.2595 10.6382C33.2807 10.6085 33.3077 10.5832 33.3388 10.5641C33.37 10.5449 33.4046 10.5321 33.4408 10.5266C33.4769 10.5211 33.5138 10.5228 33.5493 10.5318L34.6055 10.7662C34.7434 10.7978 34.8723 10.8602 34.9826 10.9488C35.093 11.0373 35.1818 11.1497 35.2425 11.2775C35.3033 11.4052 35.3343 11.5451 35.3333 11.6865C35.3323 11.828 35.2993 11.9674 35.2368 12.0943L33.2571 16.0373C33.2539 16.1069 33.2725 16.1757 33.3101 16.2343C33.3478 16.293 33.4026 16.3385 33.4672 16.3646C33.5516 16.3875 33.6416 16.3776 33.719 16.3368C33.7964 16.2961 33.8555 16.2276 33.8844 16.1451L34.0407 15.4529C34.0476 15.417 34.0616 15.3828 34.082 15.3524C34.1023 15.322 34.1286 15.296 34.1591 15.276C34.1897 15.2559 34.224 15.2422 34.26 15.2356C34.296 15.229 34.3329 15.2297 34.3686 15.2377C34.4043 15.2456 34.438 15.2606 34.4678 15.2818C34.4976 15.3031 34.5228 15.33 34.542 15.3612C34.5612 15.3923 34.5739 15.427 34.5795 15.4631C34.585 15.4993 34.5832 15.5362 34.5743 15.5716C34.4024 16.3404 34.418 16.288 34.4079 16.3084C34.3481 16.4868 34.2342 16.6423 34.082 16.753C33.9298 16.8638 33.7469 16.9244 33.5586 16.9263Z" fill="#EFBD42"/>
<path d="M33.2507 8.85795L33.0951 8.82329C32.4002 8.66847 31.7114 9.10629 31.5566 9.80118L30.9895 12.3466C30.8347 13.0415 31.2725 13.7303 31.9674 13.8851L32.1229 13.9198C32.8178 14.0746 33.5067 13.6368 33.6615 12.9419L34.2286 10.3965C34.3834 9.70159 33.9456 9.01277 33.2507 8.85795Z" fill="#EFBD42"/>
<path d="M34.1612 10.6949L31.4893 10.0996L27.4781 28.1035L30.1501 28.6988L34.1612 10.6949Z" fill="#287EEF"/>
<path d="M34.2445 10.6563L31.4314 10.0296C31.3388 10.0089 31.2469 10.0673 31.2263 10.1599L31.1697 10.4139C31.1491 10.5065 31.2075 10.5984 31.3001 10.619L34.1132 11.2457C34.2058 11.2664 34.2977 11.208 34.3183 11.1154L34.3749 10.8614C34.3955 10.7688 34.3371 10.6769 34.2445 10.6563Z" fill="#EFBD42"/>
<path d="M27.4785 28.103C27.6801 29.2848 27.8814 30.4668 28.0824 31.6491L30.1512 28.6983C29.79 28.3853 29.3566 28.167 28.89 28.0631C28.4235 27.9592 27.9384 27.9729 27.4785 28.103Z" fill="#EFBD42"/>
<path d="M31.366 10.6465C31.7811 10.9039 32.1205 11.2667 32.3496 11.698C32.5059 12.0051 32.6473 12.434 32.6324 13.0996C32.6074 14.2332 32.1223 16.6785 31.1988 19.8184C30.8488 22.7777 30.4993 25.7371 30.1504 28.6965L34.0418 11.2293L31.366 10.6465Z" fill="#1573D8"/>
<path d="M32.0684 20.0127L29.4277 19.4244C29.3295 19.4025 29.2323 19.4643 29.2104 19.5624L29.155 19.811C29.1332 19.9092 29.195 20.0064 29.2931 20.0283L31.9338 20.6166C32.032 20.6385 32.1292 20.5767 32.1511 20.4785L32.2065 20.2299C32.2283 20.1318 32.1665 20.0345 32.0684 20.0127Z" fill="#EFBD42"/>
<path d="M28.2705 30.7933L28.2423 30.787C28.1214 30.7601 28.0016 30.8363 27.9747 30.9571L27.7358 32.0293C27.7089 32.1502 27.785 32.27 27.9059 32.2969L27.9341 32.3032C28.055 32.3301 28.1748 32.254 28.2017 32.1331L28.4406 31.0609C28.4675 30.9401 28.3914 30.8203 28.2705 30.7933Z" fill="#2D1929"/>
<path d="M31.7793 9.90367C31.7793 9.90367 32.1879 8.71226 33.302 9.08336C32.7227 9.19532 32.1914 9.48152 31.7793 9.90367Z" fill="#EFEFEF"/>
<path d="M31.2137 15.4422C31.6435 13.5134 31.8945 11.9281 31.7745 11.9013C31.6545 11.8746 31.2088 13.4165 30.7791 15.3454C30.3493 17.2742 30.0983 18.8596 30.2183 18.8863C30.3383 18.9131 30.784 17.3711 31.2137 15.4422Z" fill="#EFEFEF"/>
<path d="M29.203 24.4657C29.6327 22.5368 29.8838 20.9515 29.7638 20.9248C29.6437 20.898 29.1981 22.44 28.7683 24.3688C28.3386 26.2977 28.0875 27.883 28.2076 27.9097C28.3276 27.9365 28.7733 26.3945 29.203 24.4657Z" fill="#EFEFEF"/>
<path d="M31.7363 10.0992L34.1738 10.6461C34.1738 10.6461 34.3418 9.96641 34.0551 9.48828C34.0551 9.48828 33.8863 10.0563 33.7191 10.1359C33.552 10.2156 31.7363 10.0992 31.7363 10.0992Z" fill="#D7981A"/>
<path d="M14.4939 12.4371L13.834 12.5176L14.1847 15.3947L14.8447 15.3143L14.4939 12.4371Z" fill="#EFEFEF"/>
<path d="M12.8619 13.7619L12.9424 14.4219L15.8195 14.0712L15.7391 13.4112L12.8619 13.7619Z" fill="#EFEFEF"/>
</svg>
