<svg width="40" height="41" viewBox="0 0 40 41" fill="none" xmlns="http://www.w3.org/2000/svg">
<path d="M32.5828 28.4355H29.4844V29.6637H32.5828V28.4355Z" fill="#40C2D6"/>
<path d="M34.9461 25.7461H31.8477V26.9742H34.9461V25.7461Z" fill="#40C2D6"/>
<path d="M28.2488 29.8066H27.4676V24.7488C27.4676 24.4757 27.3591 24.2138 27.166 24.0207C26.9729 23.8276 26.711 23.7191 26.4379 23.7191C26.1648 23.7191 25.9029 23.8276 25.7098 24.0207C25.5167 24.2138 25.4082 24.4757 25.4082 24.7488V24.827H24.627V24.7488C24.627 24.269 24.8176 23.8087 25.1569 23.4694C25.4962 23.1301 25.9565 22.9395 26.4363 22.9395C26.9162 22.9395 27.3764 23.1301 27.7157 23.4694C28.0551 23.8087 28.2457 24.269 28.2457 24.7488L28.2488 29.8066Z" fill="#40C2D6"/>
<path d="M27.2888 29.6648H23.8075C23.7163 29.6647 23.6263 29.6428 23.5452 29.6008C23.4642 29.5588 23.3943 29.498 23.3416 29.4236C23.2888 29.3491 23.2546 29.263 23.2419 29.1726C23.2292 29.0822 23.2383 28.9901 23.2685 28.9039L23.699 27.6789C23.7382 27.5673 23.8112 27.4706 23.9077 27.4022C24.0043 27.3337 24.1197 27.297 24.238 27.2969H27.2849C27.36 27.2968 27.4343 27.3115 27.5037 27.3401C27.5731 27.3688 27.6361 27.4108 27.6892 27.4639C27.7423 27.5169 27.7845 27.5799 27.8132 27.6492C27.842 27.7186 27.8568 27.7929 27.8568 27.868V29.093C27.8568 29.244 27.7971 29.3888 27.6907 29.496C27.5842 29.6031 27.4398 29.6638 27.2888 29.6648Z" fill="#40C2D6"/>
<path d="M34.527 23.0547H38.4488V29.2149H34.5426C34.337 29.2149 34.1399 29.1332 33.9946 28.9879C33.8492 28.8425 33.7676 28.6454 33.7676 28.4399V23.8094C33.7677 23.7099 33.7874 23.6114 33.8257 23.5196C33.8639 23.4278 33.92 23.3444 33.9905 23.2743C34.0611 23.2042 34.1448 23.1487 34.2368 23.111C34.3289 23.0733 34.4275 23.0542 34.527 23.0547Z" fill="#86EBF9"/>
<path d="M35.5637 31.3199C35.5176 31.3199 35.472 31.3108 35.4294 31.2932C35.3869 31.2756 35.3482 31.2498 35.3156 31.2172C35.2831 31.1846 35.2572 31.1459 35.2396 31.1034C35.222 31.0608 35.2129 31.0152 35.2129 30.9691V24.5996C35.2129 24.5064 35.2499 24.4169 35.3159 24.351C35.3818 24.2851 35.4712 24.248 35.5645 24.248C35.6577 24.248 35.7471 24.2851 35.813 24.351C35.879 24.4169 35.916 24.5064 35.916 24.5996V30.9691C35.9159 31.0153 35.9067 31.061 35.889 31.1036C35.8712 31.1462 35.8452 31.1849 35.8125 31.2175C35.7798 31.2501 35.741 31.2759 35.6983 31.2935C35.6556 31.311 35.6098 31.32 35.5637 31.3199ZM37.0441 31.3199C36.9512 31.3197 36.8621 31.2827 36.7963 31.217C36.7306 31.1512 36.6936 31.0621 36.6934 30.9691V24.5996C36.6934 24.5064 36.7304 24.4169 36.7963 24.351C36.8623 24.2851 36.9517 24.248 37.0449 24.248C37.1382 24.248 37.2276 24.2851 37.2935 24.351C37.3594 24.4169 37.3965 24.5064 37.3965 24.5996V30.9691C37.3965 31.0153 37.3874 31.0611 37.3696 31.1037C37.3519 31.1464 37.3259 31.1851 37.2932 31.2177C37.2605 31.2503 37.2216 31.2761 37.1789 31.2937C37.1361 31.3112 37.0903 31.3201 37.0441 31.3199Z" fill="#40C2D6"/>
<path d="M8.75883 19.5799L6.84961 20.4355L9.84913 27.1285L11.7584 26.2729L8.75883 19.5799Z" fill="#40C2D6"/>
<path d="M9.57159 14.2626L2.71165 16.9468C2.02737 17.2146 1.68971 17.9864 1.95746 18.6706L3.44833 22.4807C3.71608 23.165 4.48785 23.5027 5.17213 23.2349L12.0321 20.5507C12.7164 20.2829 13.054 19.5112 12.7863 18.8269L11.2954 15.0168C11.0276 14.3325 10.2559 13.9948 9.57159 14.2626Z" fill="#86EBF9"/>
<path d="M4.99667 25.1561L14.543 21.2701C14.9338 21.111 15.3717 21.1137 15.7604 21.2775C16.1492 21.4413 16.4569 21.7528 16.616 22.1436L21.1869 33.3723L8.69409 38.4578L4.12315 27.2291C3.9641 26.8384 3.96677 26.4005 4.13059 26.0117C4.29441 25.623 4.60595 25.3152 4.99667 25.1561Z" fill="#86EBF9"/>
<path d="M8.69336 38.4594H23.4238L20.0957 30.6953L10.9457 33.8531L8.69336 38.4594Z" fill="#86EBF9"/>
<path d="M32.7973 38.4602H31.6254V10.132C31.6244 9.28655 31.2882 8.47595 30.6906 7.87789C30.0929 7.27982 29.2826 6.94306 28.4371 6.94141H18.998V5.76953H28.4371C29.5929 5.77077 30.701 6.23046 31.5183 7.04773C32.3356 7.86501 32.7952 8.97311 32.7965 10.1289L32.7973 38.4602Z" fill="#86EBF9"/>
<path d="M23.1145 13.7602C11.4738 3.91642 11.7676 4.1508 11.7598 4.15861C13.8168 2.97267 16.2254 3.06486 17.5105 4.15314L22.1645 8.0883C23.3441 9.08439 24.0004 11.3766 23.1145 13.7602Z" fill="#40C2D6"/>
<path d="M23.1106 13.7412C22.5082 14.4616 18.8184 12.5545 16.2254 10.4459C13.5934 8.30765 10.9684 5.04672 11.5559 4.30922C12.1434 3.57172 15.8676 5.33344 18.5621 7.53031C21.2567 9.72719 23.7082 13.0256 23.1106 13.7412Z" fill="#2D1929"/>
<path d="M15.0714 7.03174C15.3599 6.6217 14.9113 5.80905 14.0693 5.21664C13.2273 4.62424 12.3109 4.47641 12.0224 4.88645C11.7339 5.2965 12.1826 6.10915 13.0245 6.70155C13.8665 7.29396 14.7829 7.44179 15.0714 7.03174Z" fill="#86EBF9"/>
<path d="M22.3117 13.2837C22.6002 12.8737 22.1515 12.061 21.3095 11.4686C20.4676 10.8762 19.5511 10.7284 19.2626 11.1384C18.9741 11.5485 19.4228 12.3611 20.2648 12.9535C21.1067 13.5459 22.0232 13.6937 22.3117 13.2837Z" fill="#86EBF9"/>
<path d="M19.2837 9.50848C19.5909 9.11226 19.1805 8.27967 18.3669 7.64883C17.5533 7.01799 16.6448 6.82778 16.3375 7.224C16.0303 7.62021 16.4408 8.4528 17.2543 9.08365C18.0679 9.71449 18.9765 9.90469 19.2837 9.50848Z" fill="#86EBF9"/>
<path d="M18.1383 10.9095C18.3912 10.5885 17.9406 9.81184 17.1319 9.17477C16.3232 8.5377 15.4626 8.28145 15.2098 8.60242C14.9569 8.92339 15.4075 9.70004 16.2162 10.3371C17.0249 10.9742 17.8855 11.2304 18.1383 10.9095Z" fill="#86EBF9"/>
<path d="M19.2715 28.4355H30.7699V28.573C30.7699 29.4669 30.4148 30.3242 29.7828 30.9562C29.1507 31.5883 28.2935 31.9434 27.3996 31.9434H22.6418C21.7479 31.9434 20.8907 31.5883 20.2586 30.9562C19.6266 30.3242 19.2715 29.4669 19.2715 28.573V28.4355Z" fill="#86EBF9"/>
<mask id="mask0_1676_8028" style="mask-type:luminance" maskUnits="userSpaceOnUse" x="10" y="18" width="7" height="10">
<path d="M13.3855 18.9804L10.0938 20.377L12.9577 27.1273L16.2495 25.7307L13.3855 18.9804Z" fill="white"/>
</mask>
<g mask="url(#mask0_1676_8028)">
<path d="M13.3855 18.9804L10.0938 20.377L12.9577 27.1273L16.2495 25.7307L13.3855 18.9804Z" fill="#E39C76"/>
<path d="M10.9727 21.5566C11.2873 22.0481 11.7193 22.4535 12.2297 22.7363C13.6492 23.5105 15.1148 22.9762 15.3586 22.8824L14.4633 20.7324L10.9727 21.5566Z" fill="#D48F6E"/>
</g>
<path d="M15.156 16.2667C14.7451 15.5589 14.3748 15.1808 14.1209 14.7105C13.4959 13.5495 13.2381 12.5706 12.0248 12.1136C11.6299 11.9183 11.2089 11.781 10.7748 11.7058C9.14509 11.3237 7.07243 12.1745 6.12321 13.8105C5.02946 15.6948 5.92712 17.7565 6.14978 18.2683C7.19118 20.6597 9.54275 21.5636 10.5248 21.8472C11.0785 22.0576 11.6578 22.1932 12.2474 22.2503C12.9021 22.3081 14.6552 22.4605 15.4045 21.3581C15.6006 21.0706 15.7857 20.4776 15.7888 19.273C15.792 17.7144 15.5685 16.9753 15.156 16.2667Z" fill="#E39C76"/>
<path d="M13.5623 18.2329C13.5549 18.233 13.5476 18.231 13.5413 18.2272C13.535 18.2233 13.5299 18.2178 13.5266 18.2111C13.5234 18.2045 13.522 18.1971 13.5228 18.1898C13.5236 18.1824 13.5264 18.1754 13.531 18.1696C13.7216 17.9243 13.7896 17.7274 13.7326 17.5853C13.6037 17.2618 12.9404 17.4603 12.2638 16.4353C12.2581 16.4266 12.2561 16.4159 12.2582 16.4058C12.2604 16.3956 12.2664 16.3867 12.2751 16.381C12.2839 16.3753 12.2945 16.3732 12.3046 16.3754C12.3148 16.3775 12.3237 16.3836 12.3294 16.3923C12.9998 17.4079 13.6537 17.1782 13.8052 17.5563C13.8732 17.7259 13.8013 17.947 13.5927 18.2173C13.5892 18.222 13.5846 18.2259 13.5793 18.2286C13.574 18.2313 13.5682 18.2328 13.5623 18.2329ZM13.8373 16.4009C13.6677 16.4899 13.4185 16.3501 13.2802 16.0884C13.1419 15.8267 13.1677 15.5415 13.338 15.4517C13.5084 15.3618 13.7568 15.5024 13.8951 15.7642C14.0334 16.0259 14.0068 16.3118 13.8373 16.4009ZM11.1966 17.7915C11.0271 17.8806 10.7779 17.7407 10.6396 17.479C10.5013 17.2173 10.5271 16.9321 10.6966 16.8431C10.8662 16.754 11.1162 16.8938 11.2537 17.1556C11.3912 17.4173 11.3662 17.7024 11.1966 17.7915ZM11.9357 14.9806C11.9224 14.9806 11.9094 14.9772 11.8977 14.9708C11.8861 14.9644 11.8763 14.9551 11.8693 14.9438C11.8623 14.9326 11.8582 14.9197 11.8575 14.9065C11.8568 14.8932 11.8595 14.88 11.8654 14.8681C11.8701 14.8587 12.3209 13.9696 13.3115 14.0868C13.3322 14.0893 13.3511 14.0999 13.364 14.1163C13.3769 14.1327 13.3827 14.1536 13.3802 14.1743C13.3777 14.195 13.3671 14.2139 13.3507 14.2268C13.3343 14.2397 13.3134 14.2456 13.2927 14.2431C12.4154 14.1392 12.0216 14.9063 12.0052 14.9392C11.9985 14.9518 11.9885 14.9623 11.9762 14.9696C11.964 14.9769 11.95 14.9807 11.9357 14.9806ZM9.43179 16.5149C9.41983 16.5153 9.40795 16.5128 9.39707 16.5078C9.3862 16.5028 9.37662 16.4954 9.36907 16.4861C9.36152 16.4768 9.3562 16.4659 9.35353 16.4543C9.35086 16.4426 9.35091 16.4305 9.35366 16.4188C9.58804 15.4501 10.5802 15.336 10.5904 15.3353C10.6006 15.3342 10.611 15.3352 10.6209 15.3382C10.6307 15.3412 10.6399 15.3461 10.6479 15.3526C10.6559 15.3591 10.6625 15.3672 10.6674 15.3763C10.6723 15.3853 10.6753 15.3953 10.6763 15.4056C10.6773 15.4158 10.6763 15.4262 10.6734 15.4361C10.6704 15.4459 10.6655 15.4551 10.659 15.4631C10.6524 15.4711 10.6444 15.4777 10.6353 15.4826C10.6262 15.4874 10.6163 15.4905 10.606 15.4915C10.5701 15.4954 9.71382 15.5962 9.50523 16.4563C9.501 16.4728 9.49155 16.4873 9.4783 16.4979C9.46505 16.5085 9.44873 16.5145 9.43179 16.5149Z" fill="#2D1929"/>
<path d="M13.3021 23.963C13.3021 23.963 9.98491 25.8513 9.43179 27.3224C8.87866 28.7934 11.3669 38.4591 11.3669 38.4591H25.6982C25.6982 38.4591 20.7599 25.4309 19.5865 23.963C18.413 22.495 13.3021 23.963 13.3021 23.963Z" fill="#287EEF"/>
<path d="M11.9727 24.8073C11.9727 24.8073 14.2445 26.123 15.0789 25.7589C15.9133 25.3948 15.3133 23.5167 15.3133 23.5167C15.3133 23.5167 13.3133 22.5831 11.9727 24.8073Z" fill="#E39C76"/>
<path d="M10.691 25.8227C10.691 25.8227 9.06675 27.0321 8.69332 29.0836C8.31988 31.1352 8.69332 38.4586 8.69332 38.4586H12.2433L12.8128 30.1891L10.691 25.8227ZM16.8699 23.3282C16.8699 23.3282 19.8175 22.8227 21.4152 25.3594C23.0128 27.8961 25.6972 38.4586 25.6972 38.4586L20.0511 33.6969L16.8699 23.3282Z" fill="#287EEF"/>
<path d="M8.56641 35.0629H12.1656L12.4516 38.459H8.69375C8.60885 37.3283 8.56641 36.1962 8.56641 35.0629ZM23.3367 30.1895L22.4031 30.873L25.6977 38.459C25.075 35.6582 24.2866 32.8968 23.3367 30.1895Z" fill="#E39C76"/>
<path d="M7.87225 14.7548C7.63788 15.4227 8.57069 15.9032 8.61288 16.879C8.63475 17.3907 8.40975 17.9798 7.74256 18.6438L10.7512 21.9251C10.0199 21.9251 8.14335 21.8126 6.48788 20.4829C4.8996 19.2079 3.16366 16.5259 4.22772 14.1696C5.06756 12.3102 7.16678 11.7274 7.60975 11.6149C7.60975 11.6149 8.87928 10.0126 10.6918 10.4282C12.5043 10.8438 13.3019 13.1548 13.3019 13.1548C12.5566 12.3735 12.0855 12.2884 11.7894 12.3641C11.3269 12.4821 11.2379 13.0056 10.7105 13.1829C10.2207 13.347 9.69491 13.097 9.32069 12.8579C9.2691 13.1658 9.15504 13.4598 8.98553 13.722C8.54335 14.3845 8.02147 14.3181 7.87225 14.7548Z" fill="#917EEC"/>
<path d="M8.20962 18.3228C7.66274 17.7759 6.86274 17.6978 6.41274 18.1478C5.96274 18.5978 6.04321 19.3978 6.58696 19.9447C7.13071 20.4916 7.93462 20.5697 8.38384 20.1197C8.83305 19.6697 8.75024 18.8666 8.20962 18.3228Z" fill="#E39C76"/>
<path d="M8.03785 19.4883C7.95017 19.4918 7.86331 19.4703 7.78738 19.4263C7.71145 19.3823 7.64957 19.3177 7.60894 19.2399C7.49722 19.0344 7.72926 18.836 7.82926 18.7633C7.69488 18.6453 7.20426 18.2524 6.83551 18.4321C6.48472 18.6008 6.66754 19.0016 6.67926 19.018C6.68371 19.0274 6.68424 19.0382 6.68072 19.0481C6.6772 19.0579 6.66993 19.0659 6.66051 19.0703C6.65108 19.0748 6.64027 19.0753 6.63045 19.0718C6.62063 19.0683 6.61262 19.061 6.60816 19.0516C6.60816 19.0469 6.38472 18.5649 6.80504 18.3617C7.28629 18.1274 7.89879 18.7149 7.92301 18.7399C7.92723 18.744 7.93047 18.749 7.93248 18.7545C7.93449 18.7601 7.93522 18.766 7.93462 18.7719C7.93402 18.7777 7.9321 18.7834 7.92901 18.7884C7.92591 18.7934 7.92172 18.7976 7.91676 18.8008C7.91676 18.8008 7.57926 19.0141 7.68238 19.2032C7.83238 19.4805 8.15113 19.3969 8.15113 19.3961C8.16149 19.3934 8.1725 19.395 8.18173 19.4004C8.19096 19.4058 8.19766 19.4147 8.20035 19.425C8.20304 19.4354 8.20151 19.4464 8.19609 19.4556C8.19067 19.4649 8.1818 19.4716 8.17144 19.4742C8.12756 19.4838 8.08276 19.4885 8.03785 19.4883Z" fill="#2D1929"/>
<path d="M12.2949 19.4512L14.4574 18.6699C14.468 18.9261 14.3966 19.1789 14.2537 19.3917C14.1107 19.6045 13.9037 19.7662 13.6626 19.8533C13.4215 19.9404 13.1589 19.9484 12.9129 19.8761C12.667 19.8037 12.4505 19.6549 12.2949 19.4512Z" fill="#EFEFEF"/>
<path d="M12.4518 38.4602L12.1659 35.0681C12.1659 35.0681 11.6893 30.6235 11.9729 30.4681C12.2565 30.3126 13.6752 35.8392 13.7456 36.4056C13.8159 36.972 20.9487 33.8954 21.4549 34.129C21.9612 34.3626 19.6229 36.8977 19.701 37.4798C19.7792 38.0618 25.6979 38.4602 25.6979 38.4602H12.4518Z" fill="#1573D8"/>
</svg>
