<svg width="40" height="41" viewBox="0 0 40 41" fill="none" xmlns="http://www.w3.org/2000/svg">
<path d="M30 2.13086H10C9.00544 2.13086 8.05161 2.52595 7.34835 3.22921C6.64509 3.93247 6.25 4.8863 6.25 5.88086V35.8809C6.25 36.8754 6.64509 37.8293 7.34835 38.5325C8.05161 39.2358 9.00544 39.6309 10 39.6309H22.5C22.6645 39.6318 22.8276 39.6003 22.9799 39.5381C23.1322 39.4759 23.2707 39.3842 23.3875 39.2684L33.3875 29.2684C33.5034 29.1516 33.595 29.013 33.6572 28.8607C33.7194 28.7084 33.751 28.5454 33.75 28.3809V5.88086C33.75 4.8863 33.3549 3.93247 32.6517 3.22921C31.9484 2.52595 30.9946 2.13086 30 2.13086Z" fill="#FAF7F5"/>
<path d="M8.75 38.3809V8.38086C8.75 7.3863 9.14509 6.43247 9.84835 5.72921C10.5516 5.02595 11.5054 4.63086 12.5 4.63086H32.5C32.8649 4.63657 33.2271 4.69552 33.575 4.80586C33.3446 4.03567 32.8727 3.35993 32.229 2.8783C31.5853 2.39667 30.8039 2.13464 30 2.13086H10C9.00544 2.13086 8.05161 2.52595 7.34835 3.22921C6.64509 3.93247 6.25 4.8863 6.25 5.88086V35.8809C6.25378 36.6848 6.51581 37.4662 6.99744 38.1099C7.47907 38.7536 8.15481 39.2254 8.925 39.4559C8.81466 39.108 8.75571 38.7458 8.75 38.3809Z" fill="#F0E6E2"/>
<path d="M22.5 39.6309C22.6645 39.6318 22.8276 39.6003 22.9799 39.5381C23.1322 39.4759 23.2707 39.3842 23.3875 39.2684L33.3875 29.2684C33.5034 29.1516 33.595 29.013 33.6572 28.8607C33.7194 28.7084 33.751 28.5454 33.75 28.3809V27.1309H25C24.0054 27.1309 23.0516 27.5259 22.3483 28.2292C21.6451 28.9325 21.25 29.8863 21.25 30.8809V39.6309H22.5Z" fill="#FFCD69"/>
<path d="M23.75 33.3809C23.75 32.3863 24.1451 31.4325 24.8483 30.7292C25.5516 30.0259 26.5054 29.6309 27.5 29.6309H33.0125L33.3875 29.2684C33.5034 29.1516 33.595 29.013 33.6572 28.8607C33.7194 28.7084 33.751 28.5454 33.75 28.3809V27.1309H25C24.0054 27.1309 23.0516 27.5259 22.3483 28.2292C21.6451 28.9325 21.25 29.8863 21.25 30.8809V39.6309H22.5C22.6645 39.6318 22.8276 39.6003 22.9799 39.5381C23.1322 39.4759 23.2707 39.3842 23.3875 39.2684L23.75 38.8934V33.3809Z" fill="#FFC144"/>
<path d="M27.5 10.8809H12.5C12.1685 10.8809 11.8505 10.7492 11.6161 10.5147C11.3817 10.2803 11.25 9.96238 11.25 9.63086C11.25 9.29934 11.3817 8.9814 11.6161 8.74698C11.8505 8.51256 12.1685 8.38086 12.5 8.38086H27.5C27.8315 8.38086 28.1495 8.51256 28.3839 8.74698C28.6183 8.9814 28.75 9.29934 28.75 9.63086C28.75 9.96238 28.6183 10.2803 28.3839 10.5147C28.1495 10.7492 27.8315 10.8809 27.5 10.8809ZM27.5 17.1309H12.5C12.1685 17.1309 11.8505 16.9992 11.6161 16.7647C11.3817 16.5303 11.25 16.2124 11.25 15.8809C11.25 15.5493 11.3817 15.2314 11.6161 14.997C11.8505 14.7626 12.1685 14.6309 12.5 14.6309H27.5C27.8315 14.6309 28.1495 14.7626 28.3839 14.997C28.6183 15.2314 28.75 15.5493 28.75 15.8809C28.75 16.2124 28.6183 16.5303 28.3839 16.7647C28.1495 16.9992 27.8315 17.1309 27.5 17.1309ZM21.25 23.3809H12.5C12.1685 23.3809 11.8505 23.2492 11.6161 23.0147C11.3817 22.7803 11.25 22.4624 11.25 22.1309C11.25 21.7993 11.3817 21.4814 11.6161 21.247C11.8505 21.0126 12.1685 20.8809 12.5 20.8809H21.25C21.5815 20.8809 21.8995 21.0126 22.1339 21.247C22.3683 21.4814 22.5 21.7993 22.5 22.1309C22.5 22.4624 22.3683 22.7803 22.1339 23.0147C21.8995 23.2492 21.5815 23.3809 21.25 23.3809Z" fill="#6B7EB5"/>
</svg>
