<svg width="40" height="41" viewBox="0 0 40 41" fill="none" xmlns="http://www.w3.org/2000/svg">
<path fill-rule="evenodd" clip-rule="evenodd" d="M37.7661 10.324V31.3896C37.7661 34.7192 35.0628 37.4224 31.7333 37.4224H8.21851C4.88877 37.4224 2.18555 34.7192 2.18555 31.3896V10.324C2.18555 6.99439 4.88877 4.29102 8.21851 4.29102H31.7333C35.0628 4.29102 37.7661 6.99439 37.7661 10.324Z" fill="#FAB13F"/>
<path fill-rule="evenodd" clip-rule="evenodd" d="M35.4576 10.324V31.3896C35.4576 33.445 33.7887 35.1138 31.7332 35.1138H8.21849C6.1629 35.1138 4.49414 33.445 4.49414 31.3896V10.324C4.49414 8.26852 6.1629 6.59961 8.21849 6.59961H31.7332C33.7887 6.59961 35.4574 8.26837 35.4576 10.324Z" fill="#0071FF"/>
<path fill-rule="evenodd" clip-rule="evenodd" d="M33.4827 10.3228C33.4827 10.4951 33.3428 10.6349 33.1705 10.6349C32.9982 10.6349 32.8584 10.4951 32.8584 10.3228C32.8584 9.70125 32.3537 9.19654 31.7321 9.19654C31.5598 9.19654 31.4199 9.05661 31.4199 8.88448C31.4199 8.71219 31.5598 8.57227 31.7321 8.57227C32.6983 8.57227 33.4827 9.35669 33.4827 10.3228ZM31.7321 33.1389C31.5598 33.1389 31.4199 32.9991 31.4199 32.8268C31.4199 32.6545 31.5598 32.5147 31.7321 32.5147C32.3537 32.5147 32.8584 32.01 32.8584 31.3884C32.8584 31.2162 32.9982 31.0762 33.1705 31.0762C33.3428 31.0762 33.4827 31.2162 33.4827 31.3884C33.4827 32.3546 32.6983 33.1389 31.7321 33.1389ZM6.4668 31.3884C6.4668 31.2162 6.60672 31.0762 6.77886 31.0762C6.95114 31.0762 7.09107 31.2162 7.09107 31.3884C7.09107 32.01 7.59564 32.5147 8.21736 32.5147C8.38964 32.5147 8.52942 32.6545 8.52942 32.8268C8.52942 32.9991 8.38964 33.1389 8.21736 33.1389C7.25122 33.1389 6.4668 32.3546 6.4668 31.3884ZM8.21736 8.57227C8.38964 8.57227 8.52942 8.71219 8.52942 8.88448C8.52942 9.05661 8.38964 9.19654 8.21736 9.19654C7.59564 9.19654 7.09107 9.70125 7.09107 10.3228C7.09107 10.4951 6.95114 10.6349 6.77886 10.6349C6.60672 10.6349 6.4668 10.4951 6.4668 10.3228C6.4668 9.35669 7.25122 8.57227 8.21736 8.57227Z" fill="#E7E4FF"/>
<path fill-rule="evenodd" clip-rule="evenodd" d="M35.4356 20.4743C35.1494 21.2205 34.8166 22.0222 34.4932 22.8839C34.3965 23.141 34.3825 23.5134 34.3805 23.9297C34.3771 24.636 34.4208 25.4556 34.3058 26.123C34.2166 26.6406 34.0283 27.0716 33.699 27.3398C33.4656 27.53 33.1604 27.6464 32.7559 27.6464C32.5049 27.6464 32.2807 27.5395 32.0836 27.3327C31.9315 27.1735 31.7931 26.9474 31.6668 26.6725C31.4075 26.1074 31.1897 25.3181 30.9272 24.5477C30.7504 24.0285 30.5549 23.5167 30.3041 23.1026C29.9276 24.0291 29.1344 25.9369 28.6909 26.6875C28.3252 27.3068 27.8893 27.6432 27.4592 27.6464C27.0391 27.6496 26.5485 27.3368 26.084 26.4791C25.4506 25.3097 24.9318 22.2213 24.598 20.2133C24.5889 20.1591 24.5944 20.1035 24.6138 20.0521C25.1974 18.504 25.5738 17.2168 25.1007 16.1327C25.0845 16.0957 25.0676 16.0596 25.0497 16.0247C24.9995 15.9261 25.0054 15.8084 25.0649 15.7152C25.5452 14.9633 26.2506 14.3804 27.1537 14.1597C28.0093 13.9507 29.0509 14.0655 30.2539 14.7058C30.6108 14.5939 31.6331 14.3031 32.7221 14.2682C33.6704 14.2378 34.6622 14.4081 35.3492 15.0057C35.4172 15.065 35.4565 15.1509 35.4565 15.2412V20.3626C35.4565 20.4008 35.4494 20.4387 35.4356 20.4743Z" fill="#C2CDFF"/>
<path fill-rule="evenodd" clip-rule="evenodd" d="M30.3037 23.1029C30.2279 23.2892 30.1352 23.5156 30.0318 23.7641C30.0029 23.7417 29.9773 23.7136 29.9571 23.6805C29.8554 23.5204 29.6951 23.4148 29.5165 23.3213C29.4038 23.2624 29.2843 23.2095 29.1583 23.1581C28.9605 23.0772 28.7674 22.9886 28.5512 22.9292C28.4595 22.9214 28.3914 22.8408 28.399 22.7493C28.4067 22.6576 28.4873 22.5895 28.579 22.5971C28.787 22.5745 28.9849 22.5626 29.1864 22.5778C29.3307 22.5887 29.4682 22.6176 29.5993 22.6588C29.7833 22.7166 29.9482 22.808 30.0922 22.9141C30.1694 22.971 30.2401 23.0339 30.3037 23.1029ZM30.2534 14.7057C30.1439 14.7463 30.001 14.8095 29.8377 14.8841C29.6522 14.9688 29.4443 15.072 29.229 15.1755C29.0939 15.2405 28.9568 15.3066 28.8203 15.3683C28.6004 15.4678 28.3872 15.5559 28.2011 15.644C28.0446 15.7183 27.9091 15.7802 27.8077 15.8428C27.7367 15.9014 27.6317 15.8912 27.5731 15.8202C27.5147 15.7493 27.5249 15.6441 27.5957 15.5857C27.7476 15.4242 27.9906 15.2136 28.2867 15.0026C28.4419 14.8921 28.6098 14.7844 28.783 14.6853C29.0038 14.5589 29.2326 14.4503 29.4396 14.3556C29.4455 14.3529 29.4513 14.3504 29.4572 14.3477C29.7139 14.4413 29.9795 14.5599 30.2534 14.7057Z" fill="#898EFF"/>
<path fill-rule="evenodd" clip-rule="evenodd" d="M14.7505 15.7152C15.2308 14.9633 15.9362 14.3804 16.8393 14.1597C17.6949 13.9507 18.7365 14.0655 19.9398 14.7058C20.3621 14.5738 21.7135 14.1927 23.0074 14.2769C24.1229 14.3494 25.1857 14.7666 25.673 15.883C25.9966 16.6244 25.9973 17.4497 25.7952 18.3721C25.5127 19.6608 24.8287 21.1527 24.1786 22.8839C24.0821 23.141 24.0679 23.5134 24.066 23.9297C24.0627 24.636 24.1064 25.4556 23.9914 26.123C23.9021 26.6406 23.7138 27.0716 23.3846 27.3398C23.1511 27.53 22.8459 27.6464 22.4415 27.6464C22.1903 27.6464 21.9663 27.5395 21.769 27.3327C21.6171 27.1735 21.4785 26.9474 21.3524 26.6725C21.0931 26.1074 20.8751 25.3181 20.6128 24.5477C20.4358 24.0285 20.2405 23.5167 19.9897 23.1026C19.6131 24.0291 18.82 25.9369 18.3765 26.6875C18.0108 27.3068 17.5749 27.6432 17.1446 27.6464C16.7245 27.6496 16.2341 27.3368 15.7696 26.4791C15.1362 25.3097 14.6174 22.2213 14.2835 20.2133C14.2745 20.1591 14.28 20.1035 14.2994 20.0521C14.8829 18.504 15.2594 17.2168 14.7863 16.1327C14.7701 16.0957 14.753 16.0596 14.7352 16.0247C14.6851 15.9261 14.691 15.8084 14.7505 15.7152Z" fill="#D1D9FF"/>
<path fill-rule="evenodd" clip-rule="evenodd" d="M19.9892 23.1029C19.9134 23.2892 19.8208 23.5156 19.7174 23.7641C19.6884 23.7417 19.6629 23.7136 19.6425 23.6805C19.5409 23.5204 19.3806 23.4148 19.2021 23.3213C19.0894 23.2624 18.9699 23.2095 18.8439 23.1581C18.646 23.0772 18.453 22.9886 18.2367 22.9292C18.1451 22.9214 18.077 22.8408 18.0846 22.7493C18.0923 22.6576 18.1729 22.5895 18.2645 22.5971C18.4725 22.5745 18.6704 22.5626 18.872 22.5778C19.0162 22.5887 19.1537 22.6176 19.2849 22.6588C19.4689 22.7166 19.6338 22.808 19.7778 22.9141C19.855 22.971 19.9257 23.0339 19.9892 23.1029ZM19.9387 14.7056C19.8292 14.7462 19.6864 14.8095 19.5231 14.8841C19.3378 14.9688 19.1297 15.072 18.9144 15.1755C18.7795 15.2405 18.6424 15.3066 18.5057 15.3683C18.286 15.4678 18.0726 15.5559 17.8867 15.644C17.73 15.7183 17.5947 15.7802 17.4932 15.8428C17.4223 15.9014 17.3171 15.8912 17.2587 15.8202C17.2003 15.7493 17.2103 15.6441 17.2813 15.5857C17.4332 15.4242 17.6762 15.2136 17.9723 15.0026C18.1273 14.8921 18.2953 14.7844 18.4684 14.6853C18.6894 14.5589 18.9182 14.4503 19.1252 14.3556C19.1311 14.353 19.1368 14.3504 19.1426 14.3477C19.3994 14.4413 19.6648 14.5598 19.9387 14.7056Z" fill="#9297FF"/>
<path fill-rule="evenodd" clip-rule="evenodd" d="M4.49414 23.133V15.7251C4.49414 15.6603 4.51437 15.5971 4.55182 15.5444C5.0474 14.8469 5.74927 14.3197 6.63347 14.1352C7.46777 13.9613 8.47272 14.0919 9.62613 14.7057C10.0483 14.5737 11.3998 14.1926 12.6937 14.2768C13.8092 14.3493 14.872 14.7666 15.3592 15.883C15.6828 16.6244 15.6837 17.4497 15.4814 18.3721C15.199 19.6608 14.5148 21.1526 13.8649 22.8839C13.7684 23.1409 13.7542 23.5134 13.7523 23.9297C13.749 24.6359 13.7926 25.4555 13.6775 26.123C13.5884 26.6406 13.4001 27.0716 13.0709 27.3397C12.8374 27.53 12.5322 27.6464 12.1278 27.6464C11.8766 27.6464 11.6525 27.5394 11.4553 27.3327C11.3033 27.1734 11.1649 26.9474 11.0387 26.6725C10.7794 26.1074 10.5614 25.318 10.2991 24.5477C10.1222 24.0284 9.9268 23.5167 9.67601 23.1026C9.29938 24.029 8.50628 25.9369 8.06283 26.6874C7.69699 27.3068 7.26118 27.6431 6.83092 27.6464C6.41084 27.6495 5.92036 27.3367 5.45579 26.4791C5.09669 25.816 4.77129 24.5436 4.50028 23.1944C4.49624 23.1742 4.49414 23.1535 4.49414 23.133Z" fill="#E2E7FF"/>
<path fill-rule="evenodd" clip-rule="evenodd" d="M9.67481 23.1027C9.59901 23.2891 9.50627 23.5154 9.40305 23.764C9.37399 23.7415 9.34852 23.7135 9.32814 23.6804C9.22642 23.5202 9.06612 23.4146 8.88754 23.3211C8.77489 23.2623 8.65534 23.2094 8.52949 23.158C8.33159 23.0771 8.13863 22.9884 7.9223 22.9291C7.83077 22.9213 7.7626 22.8407 7.77024 22.7492C7.77788 22.6575 7.85848 22.5893 7.95002 22.5969C8.15811 22.5743 8.35601 22.5625 8.55751 22.5776C8.70178 22.5886 8.83931 22.6175 8.97039 22.6587C9.15451 22.7165 9.31945 22.8079 9.46342 22.9139C9.54058 22.9709 9.61129 23.0338 9.67481 23.1027ZM9.62432 14.7054C9.51481 14.746 9.37189 14.8094 9.20874 14.884C9.02328 14.9686 8.81534 15.0719 8.60005 15.1754C8.46492 15.2404 8.32784 15.3065 8.19137 15.3682C7.97144 15.4677 7.75826 15.5557 7.57219 15.6438C7.41563 15.7181 7.28035 15.78 7.17878 15.8426C7.10777 15.9012 7.00275 15.891 6.94432 15.82C6.88575 15.7492 6.89593 15.644 6.9668 15.5856C7.11871 15.4241 7.36185 15.2134 7.65788 15.0025C7.81294 14.8919 7.98088 14.7842 8.15406 14.6852C8.37489 14.5587 8.60365 14.4501 8.81084 14.3554C8.81653 14.3529 8.82238 14.3502 8.82807 14.3477C9.085 14.4411 9.35047 14.5596 9.62432 14.7054Z" fill="#999DFF"/>
</svg>
