<svg width="40" height="41" viewBox="0 0 40 41" fill="none" xmlns="http://www.w3.org/2000/svg">
<g clip-path="url(#clip0_1324_7817)">
<path fill-rule="evenodd" clip-rule="evenodd" d="M19.9988 40.8799C18.2613 40.8799 14.098 37.8893 10.7809 35.0908C9.63633 34.1252 3.92773 29.2158 3.92773 27.3853V7.74785C3.92773 7.45801 4.23242 7.27051 4.4918 7.39785C4.49961 7.40176 5.47539 7.8666 7.1668 7.8666C9.91445 7.8666 14.323 6.67598 19.7168 1.0041C19.8707 0.842383 20.1285 0.842383 20.2824 1.0041C25.6762 6.67598 30.0848 7.8666 32.8332 7.8666C34.5246 7.8666 35.4996 7.40176 35.509 7.39707C35.7676 7.27129 36.0715 7.46035 36.0715 7.74785V27.3853C36.0715 29.2158 30.3621 34.126 29.2176 35.0916C25.9004 37.89 21.7363 40.8799 19.9988 40.8799Z" fill="#FCC10C"/>
<path fill-rule="evenodd" clip-rule="evenodd" d="M3.92773 21.2148V20.4336H36.0715V21.2148H3.92773Z" fill="#DAAA19"/>
<path fill-rule="evenodd" clip-rule="evenodd" d="M19.9992 40.8799C19.8805 40.8799 19.7492 40.8658 19.6094 40.8385V1.1166L19.7172 1.0041C19.8711 0.842383 20.1289 0.842383 20.2828 1.0041C20.3187 1.04238 20.3547 1.07832 20.3898 1.11582V40.8385C20.2492 40.8658 20.118 40.8799 19.9992 40.8799Z" fill="#DAAA19"/>
</g>
<defs>
<clipPath id="clip0_1324_7817">
<rect width="40" height="40" fill="white" transform="translate(0 0.880859)"/>
</clipPath>
</defs>
</svg>
