<svg width="40" height="41" viewBox="0 0 40 41" fill="none" xmlns="http://www.w3.org/2000/svg">
<g clip-path="url(#clip0_1324_7785)">
<path d="M19.5833 4.11891L19.5976 4.3332C12.1909 2.69986 4.91853 -1.17252 0.554723 8.72558C-1.54052 13.4827 2.78806 22.1437 5.57377 29.2856C8.07091 35.6884 8.78806 40.8722 11.429 40.8808C16.9633 40.898 15.4157 24.6903 20.9528 24.6903C24.5576 24.7494 24.5433 40.8808 29.5338 40.8808C32.0595 40.8808 32.9881 35.0265 34.7719 29.2856C36.51 23.6827 39.1204 18.2494 39.8357 13.5132C41.5528 2.11225 29.7919 -2.92299 19.5833 4.11891Z" fill="white"/>
<path d="M39.8288 13.5104C39.1146 18.2532 36.505 23.6818 34.7717 29.2913C32.9908 35.0246 32.0574 40.8818 29.5336 40.8818C24.5431 40.8818 24.5622 24.7485 20.9527 24.6913C15.4098 24.6913 16.9622 40.9008 11.4289 40.8818C11.2346 40.8846 11.0403 40.8523 10.8574 40.7865C16.1908 40.8818 15.2384 22.7865 21.905 22.7865C27.9241 22.7865 26.6669 37.0723 33.3336 23.7389C36.5774 17.2513 39.0479 8.50083 36.1908 4.69131C33.3336 0.881782 25.7146 1.83416 23.8098 2.78654C21.905 3.73892 25.7146 3.73892 25.7146 3.73892C21.8669 4.83416 20.2384 4.67226 19.5527 4.3294C19.5717 4.3294 19.5812 4.33893 19.6003 4.33893L19.5812 4.11988C29.7908 -2.91822 41.5527 2.11035 39.8288 13.5104Z" fill="#F4E2FF"/>
<path d="M0.55215 8.72798C-1.21166 13.6127 2.79025 22.147 5.5712 29.2899C6.90453 32.7089 7.7331 35.7756 8.60929 37.8899C8.85691 36.9566 9.1712 31.8994 4.76167 20.8804C3.60929 17.9946 2.96834 11.2823 8.5712 7.54703C11.4283 5.64227 15.1064 6.22131 18.095 6.59465C25.7141 7.54703 26.6664 4.68989 26.6664 4.68989C16.1902 4.68989 4.76167 -2.92916 0.55215 8.72798Z" fill="#F2DCFF"/>
</g>
<defs>
<clipPath id="clip0_1324_7785">
<rect width="40" height="40" fill="white" transform="translate(0 0.880859)"/>
</clipPath>
</defs>
</svg>
