<svg width="40" height="41" viewBox="0 0 40 41" fill="none" xmlns="http://www.w3.org/2000/svg">
<path fill-rule="evenodd" clip-rule="evenodd" d="M26.1719 36.584H13.75C13.4375 36.584 13.2031 36.3496 13.2031 36.0371V33.6152C13.2031 33.3027 13.4375 33.0684 13.75 33.0684H17.9688C19.2188 33.0684 20.7812 33.0684 21.9531 33.0684H26.1719C26.4844 33.0684 26.7188 33.3027 26.7188 33.6152V36.0371C26.7188 36.3496 26.4844 36.584 26.1719 36.584Z" fill="#867E88"/>
<path fill-rule="evenodd" clip-rule="evenodd" d="M21.9531 34.1621H17.9688C17.6562 34.1621 17.4219 33.9277 17.4219 33.6152V27.7559C17.4219 27.4434 17.6562 27.209 17.9688 27.209C18.2031 27.209 18.4375 27.3652 18.5156 27.6777H21.4062C21.4844 27.3652 21.7188 27.209 21.9531 27.209C22.2656 27.209 22.5 27.4434 22.5 27.7559V33.6152C22.5 33.9277 22.2656 34.1621 21.9531 34.1621Z" fill="#867E88"/>
<path fill-rule="evenodd" clip-rule="evenodd" d="M38.125 28.3027H1.875C0.859375 28.3027 0 27.4434 0 26.4277V7.05273C0 5.95898 0.78125 5.17773 1.875 5.17773H38.125C39.1406 5.17773 40 6.03711 40 7.05273V26.4277C40 27.4434 39.1406 28.3027 38.125 28.3027Z" fill="#867E88"/>
<path fill-rule="evenodd" clip-rule="evenodd" d="M38.125 26.7402C38.2812 26.7402 38.4375 26.584 38.4375 26.4277V7.05273C38.4375 6.89648 38.2812 6.74023 38.125 6.74023H1.875C1.64062 6.74023 1.5625 6.81836 1.5625 7.05273V26.4277C1.5625 26.584 1.71875 26.7402 1.875 26.7402H38.125Z" fill="#83D8F4"/>
<path fill-rule="evenodd" clip-rule="evenodd" d="M17.4219 27.7559C17.4219 27.4434 17.6562 27.209 17.9688 27.209C18.2812 27.209 18.5156 27.4434 18.5156 27.7559V28.3027H21.4062V27.7559C21.4062 27.4434 21.6406 27.209 21.9531 27.209C22.2656 27.209 22.5 27.4434 22.5 27.7559V28.3027H38.125C39.1406 28.3027 40 27.4434 40 26.4277V24.3184V23.7715V23.2246H0V23.7715V24.3184V26.4277C0 27.4434 0.859375 28.3027 1.875 28.3027H17.4219V27.7559ZM24.2188 26.1934H22.6562C22.3438 26.1934 22.1094 25.959 22.1094 25.6465C22.1094 25.334 22.3438 25.0996 22.6562 25.0996H24.2188C24.5312 25.0996 24.7656 25.334 24.7656 25.6465C24.7656 25.959 24.5312 26.1934 24.2188 26.1934ZM20.7812 26.1934H19.2188C18.9062 26.1934 18.6719 25.959 18.6719 25.6465C18.6719 25.334 18.9062 25.0996 19.2188 25.0996H20.7812C21.0938 25.0996 21.3281 25.334 21.3281 25.6465C21.3281 25.959 21.0938 26.1934 20.7812 26.1934ZM17.3438 26.1934H15.7812C15.4688 26.1934 15.2344 25.959 15.2344 25.6465C15.2344 25.334 15.4688 25.0996 15.7812 25.0996H17.3438C17.6562 25.0996 17.8906 25.334 17.8906 25.6465C17.8906 25.959 17.6562 26.1934 17.3438 26.1934Z" fill="#867E88"/>
<path fill-rule="evenodd" clip-rule="evenodd" d="M17.3438 26.1934H15.7812C15.4688 26.1934 15.2344 25.959 15.2344 25.6465C15.2344 25.334 15.4688 25.0996 15.7812 25.0996H17.3438C17.6562 25.0996 17.8906 25.334 17.8906 25.6465C17.8906 25.959 17.6562 26.1934 17.3438 26.1934ZM20.7812 26.1934H19.2188C18.9062 26.1934 18.6719 25.959 18.6719 25.6465C18.6719 25.334 18.9062 25.0996 19.2188 25.0996H20.7812C21.0938 25.0996 21.3281 25.334 21.3281 25.6465C21.3281 25.959 21.0938 26.1934 20.7812 26.1934ZM24.2188 26.1934H22.6562C22.3438 26.1934 22.1094 25.959 22.1094 25.6465C22.1094 25.334 22.3438 25.0996 22.6562 25.0996H24.2188C24.5312 25.0996 24.7656 25.334 24.7656 25.6465C24.7656 25.959 24.5312 26.1934 24.2188 26.1934Z" fill="white"/>
<path fill-rule="evenodd" clip-rule="evenodd" d="M24.4534 21.9753C23.8284 21.9753 23.2034 21.0378 22.7347 20.1784C22.7347 20.1003 22.6565 20.1003 22.6565 20.0221C21.4847 17.7565 21.6409 16.194 21.7972 15.0221C21.8753 14.3971 21.9534 13.9284 21.719 13.6159C21.6409 13.3815 21.5628 13.2253 21.4847 13.069C21.094 12.3659 20.7034 11.819 20.7815 10.4909C20.7815 9.16276 21.3284 8.30339 22.4222 7.67839C23.3597 7.28776 24.219 7.60026 25.0003 7.91276C25.2347 7.99089 25.5472 8.06901 25.7815 8.14714C26.719 8.38151 27.2659 8.14714 27.8909 7.91276C28.2034 7.75651 28.5159 7.67839 28.9065 7.60026C30.0003 7.36589 30.9378 7.60026 31.4847 8.38151C31.9534 8.85026 32.1878 9.47526 32.1878 10.2565C32.2659 11.0378 32.1097 11.7409 31.7972 12.444C31.5628 13.069 31.4065 13.3815 31.2503 13.5378C31.094 13.7721 31.0159 13.8503 31.2503 15.2565C31.4065 16.2721 31.2503 17.5221 30.8597 18.7721C30.469 20.0221 29.9222 21.0378 29.2972 21.5065C28.9847 21.819 28.594 21.9753 28.2034 21.819C27.8909 21.7409 27.7347 21.4284 27.6565 21.0378C27.5784 20.7253 27.5784 20.2565 27.6565 19.7878C27.6565 19.6315 27.6565 19.3971 27.6565 19.2409C27.7347 17.1315 27.1878 16.1159 26.5628 16.1159C26.094 16.0378 25.469 16.6628 25.3909 17.7565C25.3128 18.069 25.3128 18.694 25.3128 19.3971C25.3909 20.6471 25.3909 21.194 25.2347 21.4284C25.0003 21.819 24.6878 21.9753 24.4534 21.9753Z" fill="#EBECED"/>
<path fill-rule="evenodd" clip-rule="evenodd" d="M28.8285 13.8495C28.7504 13.8495 28.7504 13.8495 28.6723 13.8495C28.3598 13.7714 28.2035 13.4589 28.2816 13.1464C28.3598 12.912 28.516 12.6777 28.6723 12.4433C28.6723 12.3652 28.7504 12.287 28.7504 12.2089C28.9848 11.5839 28.9066 10.9589 28.8285 10.8027H28.7504C28.7504 10.8027 28.5941 10.8027 28.516 10.8027C28.3598 10.8808 28.0473 11.037 27.8129 11.1152C27.8129 11.1152 27.8129 11.1933 27.7348 11.1933C27.1098 11.4277 26.4066 11.4277 25.5473 11.2714C25.391 11.1933 25.2348 11.1933 25.0785 11.1152C24.9223 11.037 24.766 10.9589 24.6098 10.9589C24.5316 10.9589 24.4535 10.9589 24.4535 10.8808C24.3754 10.8808 24.2973 10.8027 24.2191 10.8027C24.0629 10.8808 24.0629 10.9589 24.0629 11.3495V11.4277C23.9848 11.8964 24.0629 12.0527 24.2973 12.4433C24.3754 12.5995 24.4535 12.7558 24.5316 12.912C24.6879 13.1464 24.5316 13.537 24.2973 13.6152C24.0629 13.7714 23.6723 13.6933 23.5941 13.3808C23.516 13.2245 23.4379 13.1464 23.3598 12.9902C23.0473 12.5214 22.891 12.1308 22.9691 11.3495C22.9691 10.8027 23.0473 10.1777 23.8285 9.78703C24.141 9.55266 24.6098 9.78703 24.8441 9.86516C25.0785 9.94328 25.3129 10.0214 25.4691 10.0995C25.6254 10.0995 25.7035 10.1777 25.8598 10.1777C26.4848 10.3339 26.8754 10.3339 27.3441 10.1777C27.6566 9.94328 27.9691 9.78703 28.2816 9.70891C28.2816 9.70891 28.3598 9.70891 28.4379 9.70891C28.7504 9.70891 29.2191 9.70891 29.5316 10.0214C30.3129 10.7245 29.9223 12.287 29.8441 12.5995L29.766 12.6777C29.6879 12.8339 29.6098 12.9902 29.5316 13.0683C29.4535 13.2245 29.3754 13.3027 29.3754 13.4589C29.2973 13.6933 29.0629 13.8495 28.8285 13.8495Z" fill="#D4D4D5"/>
<path fill-rule="evenodd" clip-rule="evenodd" d="M11.4844 21.9753C10.7812 21.9753 10.2344 21.0378 9.6875 20.1784C9.6875 20.1003 9.6875 20.1003 9.6875 20.0221C9.60938 20.0221 9.60938 20.0221 9.60938 20.0221C8.4375 17.7565 8.67188 16.194 8.75 15.0221C8.82812 14.3971 8.90625 13.9284 8.75 13.6159C8.67188 13.3815 8.51562 13.2253 8.4375 13.069C8.04688 12.3659 7.73438 11.819 7.73438 10.4909C7.73438 9.16276 8.28125 8.30339 9.375 7.67839C10.3125 7.28776 11.1719 7.60026 11.9531 7.91276C12.2656 7.99089 12.5 8.06901 12.8125 8.14714C13.6719 8.38151 14.2188 8.14714 14.8438 7.91276C15.1562 7.75651 15.4688 7.67839 15.9375 7.60026C16.9531 7.36589 17.8906 7.60026 18.5156 8.38151C18.9062 8.85026 19.1406 9.47526 19.2188 10.2565C19.2188 11.0378 19.1406 11.7409 18.8281 12.444C18.5938 13.069 18.3594 13.3815 18.2031 13.5378C18.0469 13.7721 18.0469 13.8503 18.2031 15.2565C18.3594 16.2721 18.2031 17.5221 17.8125 18.7721C17.4219 20.0221 16.875 21.0378 16.3281 21.5065C15.9375 21.819 15.5469 21.9753 15.2344 21.819C14.9219 21.7409 14.6875 21.4284 14.6094 21.0378C14.5312 20.7253 14.6094 20.2565 14.6094 19.7878C14.6094 19.6315 14.6875 19.3971 14.6875 19.2409C14.6875 17.1315 14.1406 16.1159 13.5938 16.1159C13.125 16.0378 12.5 16.6628 12.3438 17.7565C12.2656 18.069 12.3438 18.694 12.3438 19.3971C12.3438 20.6471 12.3438 21.194 12.1875 21.4284C11.9531 21.819 11.6406 21.9753 11.4844 21.9753Z" fill="#EBECED"/>
<path fill-rule="evenodd" clip-rule="evenodd" d="M15.7809 13.8495H15.7028C15.3903 13.7714 15.2341 13.4589 15.3122 13.1464C15.3122 12.912 15.4684 12.6777 15.6247 12.4433C15.7028 12.3652 15.7028 12.287 15.7809 12.2089C15.9372 11.5839 15.9372 10.9589 15.7809 10.8027C15.7028 10.8027 15.6247 10.8027 15.5466 10.8027C15.3122 10.8808 15.0778 11.037 14.8434 11.1152C14.7653 11.1152 14.7653 11.1152 14.7653 11.1933C14.0622 11.4277 13.4372 11.4277 12.5778 11.2714C12.4216 11.1933 12.2653 11.1933 12.1091 11.1152C11.9528 11.037 11.7184 10.9589 11.5622 10.9589C11.4841 10.9589 11.4841 10.9589 11.4059 10.8808C11.4059 10.8808 11.2497 10.8027 11.1716 10.8027C11.0934 10.8808 11.0153 10.9589 11.0153 11.3495C11.0153 11.3495 11.0153 11.3495 11.0153 11.4277C11.0153 11.8964 11.0934 12.0527 11.3278 12.4433C11.3278 12.5995 11.4059 12.7558 11.5622 12.912C11.6403 13.1464 11.5622 13.537 11.2497 13.6152C11.0153 13.7714 10.7028 13.6933 10.5466 13.3808C10.4684 13.2245 10.3903 13.0683 10.3122 12.9902C10.0778 12.5214 9.84345 12.1308 9.92157 11.3495C9.92157 10.8027 9.9997 10.1777 10.7809 9.78703C11.1716 9.55266 11.5622 9.78703 11.8747 9.86516C12.1091 9.94328 12.2653 10.0214 12.4997 10.0995C12.5778 10.0995 12.7341 10.1777 12.8122 10.1777C13.4372 10.3339 13.8278 10.3339 14.3747 10.1777C14.6872 9.94328 14.9997 9.78703 15.2341 9.70891C15.3122 9.70891 15.3903 9.70891 15.3903 9.70891C15.7028 9.70891 16.1716 9.70891 16.4841 10.0214C17.2653 10.7245 16.8747 12.287 16.7966 12.5995V12.6777C16.7184 12.8339 16.6403 12.9902 16.5622 13.0683C16.4059 13.2245 16.3278 13.3027 16.3278 13.4589C16.2497 13.6933 16.0153 13.8495 15.7809 13.8495Z" fill="#D4D4D5"/>
<path fill-rule="evenodd" clip-rule="evenodd" d="M20 36.584H13.75C13.4375 36.584 13.2031 36.3496 13.2031 36.0371V33.6152C13.2031 33.3027 13.4375 33.0684 13.75 33.0684H17.9688H20V36.584Z" fill="#928B94"/>
<path fill-rule="evenodd" clip-rule="evenodd" d="M20 34.1621H17.9688C17.6562 34.1621 17.4219 33.9277 17.4219 33.6152V27.7559C17.4219 27.4434 17.6562 27.209 17.9688 27.209C18.2031 27.209 18.4375 27.3652 18.5156 27.6777H20V34.1621Z" fill="#928B94"/>
<path fill-rule="evenodd" clip-rule="evenodd" d="M20 28.3027H1.875C0.859375 28.3027 0 27.4434 0 26.4277V7.05273C0 5.95898 0.78125 5.17773 1.875 5.17773H20V28.3027Z" fill="#928B94"/>
<path fill-rule="evenodd" clip-rule="evenodd" d="M20 6.74023H1.875C1.64062 6.74023 1.5625 6.81836 1.5625 7.05273V26.4277C1.5625 26.584 1.71875 26.7402 1.875 26.7402H20V6.74023Z" fill="#8FDCF5"/>
<path fill-rule="evenodd" clip-rule="evenodd" d="M17.4219 27.7559C17.4219 27.4434 17.6562 27.209 17.9688 27.209C18.2812 27.209 18.5156 27.4434 18.5156 27.7559V28.3027H20V26.1934H19.2188C18.9062 26.1934 18.6719 25.959 18.6719 25.6465C18.6719 25.334 18.9062 25.0996 19.2188 25.0996H20V23.2246H0V23.7715V24.3184V26.4277C0 27.4434 0.859375 28.3027 1.875 28.3027H17.4219V27.7559ZM17.3438 26.1934H15.7812C15.4688 26.1934 15.2344 25.959 15.2344 25.6465C15.2344 25.334 15.4688 25.0996 15.7812 25.0996H17.3438C17.6562 25.0996 17.8906 25.334 17.8906 25.6465C17.8906 25.959 17.6562 26.1934 17.3438 26.1934Z" fill="#928B94"/>
<path fill-rule="evenodd" clip-rule="evenodd" d="M17.3438 26.1934H15.7812C15.4688 26.1934 15.2344 25.959 15.2344 25.6465C15.2344 25.334 15.4688 25.0996 15.7812 25.0996H17.3438C17.6562 25.0996 17.8906 25.334 17.8906 25.6465C17.8906 25.959 17.6562 26.1934 17.3438 26.1934ZM20 26.1934H19.2188C18.9062 26.1934 18.6719 25.959 18.6719 25.6465C18.6719 25.334 18.9062 25.0996 19.2188 25.0996H20V26.1934Z" fill="white"/>
<path fill-rule="evenodd" clip-rule="evenodd" d="M11.4844 21.9753C10.7812 21.9753 10.2344 21.0378 9.6875 20.1784C9.6875 20.1003 9.6875 20.1003 9.6875 20.0221C9.60938 20.0221 9.60938 20.0221 9.60938 20.0221C8.4375 17.7565 8.67188 16.194 8.75 15.0221C8.82812 14.3971 8.90625 13.9284 8.75 13.6159C8.67188 13.3815 8.51562 13.2253 8.4375 13.069C8.04688 12.3659 7.73438 11.819 7.73438 10.4909C7.73438 9.16276 8.28125 8.30339 9.375 7.67839C10.3125 7.28776 11.1719 7.60026 11.9531 7.91276C12.2656 7.99089 12.5 8.06901 12.8125 8.14714C13.6719 8.38151 14.2188 8.14714 14.8438 7.91276C15.1562 7.75651 15.4688 7.67839 15.9375 7.60026C16.9531 7.36589 17.8906 7.60026 18.5156 8.38151C18.9062 8.85026 19.1406 9.47526 19.2188 10.2565C19.2188 11.0378 19.1406 11.7409 18.8281 12.444C18.5938 13.069 18.3594 13.3815 18.2031 13.5378C18.0469 13.7721 18.0469 13.8503 18.2031 15.2565C18.3594 16.2721 18.2031 17.5221 17.8125 18.7721C17.4219 20.0221 16.875 21.0378 16.3281 21.5065C15.9375 21.819 15.5469 21.9753 15.2344 21.819C14.9219 21.7409 14.6875 21.4284 14.6094 21.0378C14.5312 20.7253 14.6094 20.2565 14.6094 19.7878C14.6094 19.6315 14.6875 19.3971 14.6875 19.2409C14.6875 17.1315 14.1406 16.1159 13.5938 16.1159C13.125 16.0378 12.5 16.6628 12.3438 17.7565C12.2656 18.069 12.3438 18.694 12.3438 19.3971C12.3438 20.6471 12.3438 21.194 12.1875 21.4284C11.9531 21.819 11.6406 21.9753 11.4844 21.9753Z" fill="#EDEEEF"/>
<path fill-rule="evenodd" clip-rule="evenodd" d="M15.7809 13.8495H15.7028C15.3903 13.7714 15.2341 13.4589 15.3122 13.1464C15.3122 12.912 15.4684 12.6777 15.6247 12.4433C15.7028 12.3652 15.7028 12.287 15.7809 12.2089C15.9372 11.5839 15.9372 10.9589 15.7809 10.8027C15.7028 10.8027 15.6247 10.8027 15.5466 10.8027C15.3122 10.8808 15.0778 11.037 14.8434 11.1152C14.7653 11.1152 14.7653 11.1152 14.7653 11.1933C14.0622 11.4277 13.4372 11.4277 12.5778 11.2714C12.4216 11.1933 12.2653 11.1933 12.1091 11.1152C11.9528 11.037 11.7184 10.9589 11.5622 10.9589C11.4841 10.9589 11.4841 10.9589 11.4059 10.8808C11.4059 10.8808 11.2497 10.8027 11.1716 10.8027C11.0934 10.8808 11.0153 10.9589 11.0153 11.3495C11.0153 11.3495 11.0153 11.3495 11.0153 11.4277C11.0153 11.8964 11.0934 12.0527 11.3278 12.4433C11.3278 12.5995 11.4059 12.7558 11.5622 12.912C11.6403 13.1464 11.5622 13.537 11.2497 13.6152C11.0153 13.7714 10.7028 13.6933 10.5466 13.3808C10.4684 13.2245 10.3903 13.0683 10.3122 12.9902C10.0778 12.5214 9.84345 12.1308 9.92157 11.3495C9.92157 10.8027 9.9997 10.1777 10.7809 9.78703C11.1716 9.55266 11.5622 9.78703 11.8747 9.86516C12.1091 9.94328 12.2653 10.0214 12.4997 10.0995C12.5778 10.0995 12.7341 10.1777 12.8122 10.1777C13.4372 10.3339 13.8278 10.3339 14.3747 10.1777C14.6872 9.94328 14.9997 9.78703 15.2341 9.70891C15.3122 9.70891 15.3903 9.70891 15.3903 9.70891C15.7028 9.70891 16.1716 9.70891 16.4841 10.0214C17.2653 10.7245 16.8747 12.287 16.7966 12.5995V12.6777C16.7184 12.8339 16.6403 12.9902 16.5622 13.0683C16.4059 13.2245 16.3278 13.3027 16.3278 13.4589C16.2497 13.6933 16.0153 13.8495 15.7809 13.8495Z" fill="#D8D8D9"/>
</svg>
