<svg width="40" height="41" viewBox="0 0 40 41" fill="none" xmlns="http://www.w3.org/2000/svg">
<path d="M28.125 6.50586H25.625C25.4592 6.50586 25.3003 6.57171 25.1831 6.68892C25.0658 6.80613 25 6.9651 25 7.13086H10C10 6.9651 9.93415 6.80613 9.81694 6.68892C9.69973 6.57171 9.54076 6.50586 9.375 6.50586H6.875C5.84125 6.50586 5 7.34711 5 8.38086V37.7559C5 38.7896 5.84125 39.6309 6.875 39.6309H28.125C29.1588 39.6309 30 38.7896 30 37.7559V8.38086C30 7.34711 29.1588 6.50586 28.125 6.50586Z" fill="#D6F2F8"/>
<path d="M24.375 2.13086H10.625C9.59125 2.13086 8.75 2.97211 8.75 4.00586V9.00586C8.75 9.17162 8.81585 9.33059 8.93306 9.4478C9.05027 9.56501 9.20924 9.63086 9.375 9.63086H25.625C25.7908 9.63086 25.9497 9.56501 26.0669 9.4478C26.1842 9.33059 26.25 9.17162 26.25 9.00586V4.00586C26.25 2.97211 25.4088 2.13086 24.375 2.13086Z" fill="#E65039"/>
<path d="M29.375 31.5059C32.1364 31.5059 34.375 29.2673 34.375 26.5059C34.375 23.7444 32.1364 21.5059 29.375 21.5059C26.6136 21.5059 24.375 23.7444 24.375 26.5059C24.375 29.2673 26.6136 31.5059 29.375 31.5059Z" fill="#85D9E9"/>
<path d="M29.375 28.381C29.2929 28.3811 29.2116 28.3649 29.1358 28.3335C29.06 28.3021 28.9911 28.256 28.9331 28.1979L27.6831 26.9479C27.6251 26.8898 27.5791 26.8209 27.5477 26.7451C27.5163 26.6693 27.5001 26.5881 27.5001 26.506C27.5001 26.4239 27.5163 26.3427 27.5477 26.2668C27.5791 26.191 27.6251 26.1221 27.6831 26.0641C27.7412 26.0061 27.81 25.9601 27.8859 25.9286C27.9617 25.8972 28.0429 25.8811 28.125 25.8811C28.2071 25.8811 28.2883 25.8972 28.3641 25.9286C28.44 25.9601 28.5088 26.0061 28.5669 26.0641L29.3075 26.8047L30.75 24.881C30.8494 24.7484 30.9974 24.6607 31.1614 24.6372C31.3254 24.6137 31.4921 24.6563 31.6247 24.7557C31.7573 24.855 31.845 25.003 31.8685 25.1671C31.892 25.3311 31.8494 25.4978 31.75 25.6304L29.875 28.1304C29.8169 28.2082 29.7415 28.2713 29.6547 28.3149C29.5679 28.3584 29.4721 28.381 29.375 28.381ZM16.875 30.881H9.375C9.20924 30.881 9.05027 30.8151 8.93306 30.6979C8.81585 30.5807 8.75 30.4217 8.75 30.256C8.75 30.0902 8.81585 29.9313 8.93306 29.814C9.05027 29.6968 9.20924 29.631 9.375 29.631H16.875C17.0408 29.631 17.1997 29.6968 17.3169 29.814C17.4342 29.9313 17.5 30.0902 17.5 30.256C17.5 30.4217 17.4342 30.5807 17.3169 30.6979C17.1997 30.8151 17.0408 30.881 16.875 30.881ZM21.875 30.881H19.375C19.2092 30.881 19.0503 30.8151 18.9331 30.6979C18.8158 30.5807 18.75 30.4217 18.75 30.256C18.75 30.0902 18.8158 29.9313 18.9331 29.814C19.0503 29.6968 19.2092 29.631 19.375 29.631H21.875C22.0408 29.631 22.1997 29.6968 22.3169 29.814C22.4342 29.9313 22.5 30.0902 22.5 30.256C22.5 30.4217 22.4342 30.5807 22.3169 30.6979C22.1997 30.8151 22.0408 30.881 21.875 30.881ZM14.375 34.631H9.375C9.20924 34.631 9.05027 34.5651 8.93306 34.4479C8.81585 34.3307 8.75 34.1717 8.75 34.006C8.75 33.8402 8.81585 33.6813 8.93306 33.564C9.05027 33.4468 9.20924 33.381 9.375 33.381H14.375C14.5408 33.381 14.6997 33.4468 14.8169 33.564C14.9342 33.6813 15 33.8402 15 34.006C15 34.1717 14.9342 34.3307 14.8169 34.4479C14.6997 34.5651 14.5408 34.631 14.375 34.631ZM25.625 34.631H16.875C16.7092 34.631 16.5503 34.5651 16.4331 34.4479C16.3158 34.3307 16.25 34.1717 16.25 34.006C16.25 33.8402 16.3158 33.6813 16.4331 33.564C16.5503 33.4468 16.7092 33.381 16.875 33.381H25.625C25.7908 33.381 25.9497 33.4468 26.0669 33.564C26.1842 33.6813 26.25 33.8402 26.25 34.006C26.25 34.1717 26.1842 34.3307 26.0669 34.4479C25.9497 34.5651 25.7908 34.631 25.625 34.631Z" fill="#FAFAFA"/>
<path d="M19.375 6.50586H15.625C15.4592 6.50586 15.3003 6.44001 15.1831 6.3228C15.0658 6.20559 15 6.04662 15 5.88086C15 5.7151 15.0658 5.55613 15.1831 5.43892C15.3003 5.32171 15.4592 5.25586 15.625 5.25586H19.375C19.5408 5.25586 19.6997 5.32171 19.8169 5.43892C19.9342 5.55613 20 5.7151 20 5.88086C20 6.04662 19.9342 6.20559 19.8169 6.3228C19.6997 6.44001 19.5408 6.50586 19.375 6.50586Z" fill="#AD3C2B"/>
<path d="M23.6012 11.8323C23.0168 11.4979 22.0943 11.4861 21.0318 11.4936L20.713 11.4967C19.758 11.4967 18.9443 11.7429 18.2424 12.2367C18.2029 12.2624 18.1641 12.2893 18.1262 12.3173C18.0927 12.2935 18.0587 12.2703 18.0243 12.2479C17.8916 12.1554 17.7534 12.0708 17.6105 11.9948L17.533 11.9536C17.5024 11.9379 17.4718 11.9223 17.4412 11.9079C17.373 11.8353 17.2886 11.7798 17.1949 11.7461C17.0026 11.6837 16.8066 11.6334 16.608 11.5954C16.5674 11.5867 16.5305 11.5798 16.5012 11.5729C16.4012 11.5292 16.2824 11.5129 16.1699 11.5254C16.023 11.5129 15.8562 11.5104 15.673 11.5079C15.6426 11.5037 15.6119 11.5014 15.5812 11.5011L15.3162 11.4992C14.977 11.4938 14.6377 11.4975 14.2987 11.5104C13.0568 11.6642 13.0449 11.6686 12.9655 11.6954C12.8612 11.7292 12.7603 11.7729 12.6643 11.8261C11.2168 12.5692 10.5137 14.1054 10.5137 16.5229C10.5137 17.9486 11.068 19.7654 11.843 20.9111C11.9987 21.7323 12.7205 25.4854 12.9118 26.4298C12.971 26.7299 13.1132 27.0073 13.3223 27.2306C13.5313 27.4539 13.7988 27.6141 14.0943 27.6929C14.238 27.7373 14.3877 27.7586 14.538 27.7561H15.7768C15.9212 27.7561 16.0412 27.7392 16.1555 27.7054C16.4387 27.6348 16.6985 27.4914 16.9092 27.2895C17.1199 27.0876 17.2742 26.8341 17.3568 26.5542L18.1249 23.5961L18.8999 26.5792C18.9825 26.8504 19.1334 27.0958 19.3382 27.2918C19.543 27.4878 19.7948 27.6279 20.0693 27.6986C20.203 27.7373 20.3287 27.7561 20.4543 27.7561H21.7118C21.8542 27.7595 21.9963 27.7399 22.1324 27.6979C22.4326 27.6211 22.705 27.4612 22.9184 27.2366C23.1318 27.0119 23.2774 26.7317 23.3387 26.4279C23.7114 24.5911 24.0681 22.751 24.4087 20.9079C25.183 19.7629 25.7368 17.9467 25.7368 16.5211C25.7368 14.1129 25.038 12.5792 23.6012 11.8323Z" fill="#FAFAFA"/>
<path d="M16.875 16.5049C16.7092 16.5049 16.5503 16.4391 16.4331 16.3219C16.3158 16.2046 16.25 16.0457 16.25 15.8799C16.25 13.9299 17.0937 11.5868 21.1125 11.4987C21.4562 11.483 21.7431 11.7655 21.7512 12.1105C21.7548 12.2762 21.6924 12.4365 21.5777 12.5561C21.4631 12.6758 21.3057 12.7451 21.14 12.7487C17.8775 12.8199 17.5 14.5699 17.5 15.8799C17.5 16.0457 17.4342 16.2046 17.3169 16.3219C17.1997 16.4391 17.0408 16.5049 16.875 16.5049ZM16.875 19.6299C16.7092 19.6299 16.5503 19.5641 16.4331 19.4469C16.3158 19.3296 16.25 19.1707 16.25 19.0049V18.3799C16.25 18.2142 16.3158 18.0552 16.4331 17.938C16.5503 17.8208 16.7092 17.7549 16.875 17.7549C17.0408 17.7549 17.1997 17.8208 17.3169 17.938C17.4342 18.0552 17.5 18.2142 17.5 18.3799V19.0049C17.5 19.1707 17.4342 19.3296 17.3169 19.4469C17.1997 19.5641 17.0408 19.6299 16.875 19.6299Z" fill="#85D9E9"/>
</svg>
