<svg width="40" height="41" viewBox="0 0 40 41" fill="none" xmlns="http://www.w3.org/2000/svg">
<g clip-path="url(#clip0_1622_17267)">
<path d="M39.1663 20.8809V27.5475C34.3747 27.5475 34.3747 25.8809 29.583 25.8809C27.783 25.8809 36.1163 25.8809 11.1413 25.8809C5.48301 25.6892 6.02467 27.5475 0.833008 27.5475V20.8809H39.1663Z" fill="#DB5669"/>
<path d="M39.1667 20.8809V25.8809C34.375 25.8809 34.375 24.2142 29.5833 24.2142C7.3 24.2142 8.525 24.0475 5.83333 24.9809C5.45615 25.1142 5.05247 25.1551 4.65621 25.1001C4.25995 25.0451 3.88268 24.8958 3.55609 24.6647C3.2295 24.4336 2.96313 24.1276 2.77936 23.7722C2.59559 23.4169 2.49979 23.0226 2.5 22.6225V20.8809H39.1667Z" fill="#F26674"/>
<path d="M39.1663 27.5486V40.0486H0.833008V27.5486C5.92467 27.5486 5.64134 25.6986 11.1413 25.8819C36.283 25.8819 27.7497 25.8819 29.583 25.8819C34.3747 25.8819 34.3747 27.5486 39.1663 27.5486Z" fill="#F6CCAF"/>
<path d="M39.1667 27.548V38.3813H5C4.33696 38.3813 3.70107 38.1179 3.23223 37.6491C2.76339 37.1802 2.5 36.5443 2.5 35.8813V27.4646C5.94167 27.1146 6.33333 25.723 11.1417 25.898C36.2833 25.898 27.75 25.898 29.5833 25.898C34.375 25.8813 34.375 27.548 39.1667 27.548Z" fill="#FFDEC7"/>
<path d="M24.8333 33.8981C24.9411 34.2517 25.1634 34.5595 25.4653 34.773C25.7671 34.9864 26.1314 35.0935 26.5007 35.0773C26.8701 35.061 27.2236 34.9225 27.5055 34.6834C27.7875 34.4442 27.982 34.1182 28.0583 33.7564C28.7833 30.4231 28.625 25.8981 29.1667 23.7564C30 20.5064 32.5 18.0648 32.5 13.9981C32.5 12.4064 32.5 6.71476 26.6667 6.71476C25.1724 6.66933 23.6822 6.89231 22.2667 7.37309C20.8072 7.93165 19.1928 7.93165 17.7333 7.37309C16.3178 6.89231 14.8276 6.66933 13.3333 6.71476C7.5 6.71476 7.5 12.4064 7.5 14.0314C7.5 18.0981 10 20.5398 10.8333 23.7898C11.375 25.8981 11.2167 30.4064 11.9417 33.7898C12.018 34.1515 12.2125 34.4776 12.4945 34.7167C12.7764 34.9558 13.1299 35.0944 13.4993 35.1106C13.8686 35.1268 14.2329 35.0198 14.5347 34.8063C14.8366 34.5928 15.0589 34.2851 15.1667 33.9314C18.2083 24.1064 21.5333 23.2731 24.8333 33.8981Z" fill="#DAD7E5"/>
<path d="M32.4993 14.0314C32.4993 18.0981 29.9993 20.5398 29.166 23.7898C28.6243 25.8981 28.7827 30.4064 28.0577 33.7898C27.9813 34.1515 27.7869 34.4776 27.5049 34.7167C27.2229 34.9558 26.8694 35.0944 26.5001 35.1106C26.1307 35.1268 25.7665 35.0198 25.4646 34.8063C25.1628 34.5928 24.9405 34.2851 24.8327 33.9314C24.1493 31.7398 22.3327 26.2648 19.9993 26.2648C17.291 26.2648 15.266 33.8148 15.041 34.2314C14.6968 34.2011 14.3716 34.0607 14.1134 33.831C13.8553 33.6014 13.678 33.2947 13.6077 32.9564C12.8827 29.6231 13.041 25.0981 12.4993 22.9564C11.666 19.7064 9.16602 17.2648 9.16602 13.1981C9.16602 12.0231 9.16602 8.70642 11.391 6.97309C11.391 6.68142 15.266 6.43976 17.7327 7.37309C19.1922 7.93165 20.8065 7.93165 22.266 7.37309C23.6815 6.89231 25.1718 6.66933 26.666 6.71476C32.4993 6.71476 32.4993 12.4064 32.4993 14.0314Z" fill="#EDEBF2"/>
</g>
<defs>
<clipPath id="clip0_1622_17267">
<rect width="40" height="40" fill="white" transform="translate(0 0.880859)"/>
</clipPath>
</defs>
</svg>
