<svg width="40" height="41" viewBox="0 0 40 41" fill="none" xmlns="http://www.w3.org/2000/svg">
<mask id="mask0_1622_17352" style="mask-type:luminance" maskUnits="userSpaceOnUse" x="23" y="14" width="6" height="8">
<path d="M28.0422 14.9732L24.4629 14.7305L23.9885 21.7246L27.5678 21.9673L28.0422 14.9732Z" fill="white"/>
</mask>
<g mask="url(#mask0_1622_17352)">
<path d="M28.0422 14.9732L24.4629 14.7305L23.9885 21.7246L27.5678 21.9673L28.0422 14.9732Z" fill="#F5B493"/>
<path d="M27.6859 16.1934C27.4137 16.9858 26.9066 17.6765 26.2321 18.1737C25.5576 18.6708 24.7477 18.9507 23.9102 18.9762L24.0625 16.7707L27.6859 16.1934Z" fill="#EBA284"/>
</g>
<path d="M24.571 19.4531C23.2335 19.918 22.1257 20.3523 21.2897 20.6953C20.2475 21.1242 19.9178 21.293 19.5757 21.6398C19.046 22.175 18.935 22.6797 18.4327 24.0742C18.1389 24.8898 17.7905 25.6844 17.4882 26.4961C15.8475 30.9047 14.8241 32.0945 15.4569 33.5336C15.5757 33.8023 15.7296 34.1516 16.0874 34.3313C17.5389 35.0586 20.3647 32.0156 20.8639 31.4773C24.1272 27.9688 24.6374 22.8867 24.571 19.4531Z" fill="#86EBF9"/>
<path d="M27.1328 19.8105C28.1788 19.8173 29.2225 19.9082 30.2539 20.0824C31.518 20.2973 32.0594 20.5207 32.5234 20.8582C32.912 21.1597 33.2474 21.5241 33.5156 21.9363C34.4305 23.3691 39.3227 33.7004 36.7266 35.5004C34.6828 36.9176 29.1977 33.4027 23.1719 27.1988L24.7602 24.6301L31.3227 28.6582L29.3828 24.1668C29.2098 22.4827 28.406 20.9264 27.1328 19.8105Z" fill="#86EBF9"/>
<path d="M29.4285 6.78892C27.898 5.47017 25.5081 5.33345 23.998 6.29204C23.5858 6.51925 23.2087 6.80504 22.8785 7.14048C21.8144 8.02564 21.8956 9.1022 21.6714 10.4944C21.5808 11.0569 21.3378 11.5694 21.1706 12.4272C21.0034 13.285 21.037 14.11 21.5863 15.6811C22.0113 16.896 22.405 17.4295 22.7034 17.6514C23.8456 18.5014 25.5613 17.7342 26.2019 17.4483C26.7768 17.1837 27.314 16.844 27.7995 16.4381C28.6886 15.8131 30.7456 14.0756 30.9605 11.2983C31.0066 10.703 31.191 8.30845 29.4285 6.78892Z" fill="#F5B493"/>
<path d="M23.4371 13.8492C23.1331 13.6515 22.9839 13.4523 22.9925 13.2594C23.0128 12.8289 23.755 12.825 24.0753 11.5679C24.0779 11.5576 24.0845 11.5487 24.0937 11.5432C24.1028 11.5377 24.1138 11.5361 24.1242 11.5387C24.1345 11.5412 24.1434 11.5478 24.1489 11.557C24.1544 11.5662 24.1561 11.5771 24.1535 11.5875C23.8285 12.8633 23.091 12.8875 23.073 13.2625C23.0652 13.4265 23.2027 13.6023 23.4824 13.7844C23.491 13.7904 23.4968 13.7995 23.4987 13.8099C23.5005 13.8202 23.4981 13.8308 23.4921 13.8394C23.4861 13.848 23.4769 13.8539 23.4666 13.8557C23.4563 13.8576 23.4457 13.8552 23.4371 13.8492ZM23.0042 11.5906C22.9566 11.9031 22.7542 12.132 22.5519 12.1015C22.3496 12.0711 22.2238 11.789 22.2714 11.4765C22.3191 11.164 22.5222 10.9351 22.7246 10.9664C22.9269 10.9976 23.0519 11.2781 23.0042 11.5906ZM26.1558 12.0711C26.1081 12.3836 25.9058 12.6125 25.7035 12.5812C25.5011 12.55 25.3753 12.2687 25.423 11.9562C25.4706 11.6437 25.673 11.4148 25.8761 11.4453C26.0792 11.4758 26.2035 11.7578 26.1558 12.0711ZM23.9472 10.0023C23.9267 10.0022 23.9071 9.9941 23.8925 9.97967C23.8644 9.95232 23.1972 9.31326 22.3441 9.72654C22.3254 9.73566 22.3039 9.73699 22.2843 9.73025C22.2647 9.72351 22.2485 9.70925 22.2394 9.6906C22.2303 9.67195 22.2289 9.65045 22.2357 9.63082C22.2424 9.61118 22.2567 9.59503 22.2753 9.58592C23.23 9.12342 23.9941 9.86092 24.0027 9.86873C24.0137 9.87966 24.0212 9.89362 24.0243 9.90883C24.0273 9.92405 24.0258 9.93982 24.0198 9.95416C24.0139 9.96849 24.0038 9.98072 23.9909 9.9893C23.9779 9.99788 23.9627 10.0024 23.9472 10.0023ZM27.0902 10.3937C27.0701 10.3936 27.0508 10.3858 27.0363 10.3719C26.348 9.71482 25.4933 10.1375 25.4847 10.1375C25.4755 10.1422 25.4654 10.145 25.4551 10.1457C25.4448 10.1465 25.4344 10.1452 25.4246 10.1419C25.4148 10.1387 25.4058 10.1335 25.398 10.1267C25.3902 10.1199 25.3838 10.1116 25.3792 10.1023C25.37 10.0838 25.3686 10.0623 25.3752 10.0427C25.3817 10.0231 25.3959 10.0069 25.4144 9.99763C25.4238 9.99295 26.3777 9.52888 27.1441 10.2586C27.1556 10.2693 27.1635 10.2833 27.1669 10.2986C27.1704 10.3139 27.1691 10.33 27.1633 10.3445C27.1574 10.3591 27.1473 10.3716 27.1343 10.3804C27.1213 10.3892 27.1059 10.3938 27.0902 10.3937Z" fill="#2D1929"/>
<path d="M24.653 19.3789C24.653 19.3789 20.0561 20.8812 19.4968 23.0117C18.9374 25.1422 20.1218 38.4586 20.1218 38.4586H32.0311C31.6874 33.5258 31.853 29.7547 32.0999 27.0797C32.2304 25.6641 32.5561 22.6922 31.1686 21.5445C30.1984 20.7879 29.0824 20.2398 27.8905 19.9344C27.5991 19.8648 24.9421 19.4266 24.653 19.3789Z" fill="#EFEFEF"/>
<path d="M14.3854 21.1359C14.1893 22.3289 12.5104 32.9875 15.68 34.268C15.7456 34.2937 16.437 34.5617 17.0862 34.2414C19.8901 32.8625 17.4503 22.8039 16.951 20.8125L14.3854 21.1359Z" fill="#86EBF9"/>
<path d="M24.1406 19.5471C24.3492 20.4846 25.018 21.1706 25.7938 21.2729C26.4766 21.3636 27.0156 20.9706 27.0516 20.9432C27.4061 20.6703 27.644 20.273 27.7172 19.8315C26.9977 19.0425 26.0055 18.6964 25.1289 18.9284C24.7474 19.0366 24.4046 19.2512 24.1406 19.5471Z" fill="#F5B493"/>
<path d="M27.7145 19.8789C27.7145 19.8789 26.8535 34.6313 25.791 38.4594H28.8184L29.3293 22.7813L27.7145 19.8789Z" fill="#C6C6C6"/>
<path d="M24.1402 19.5645L23.6762 38.459H19.3504C19.3504 38.459 19.0551 27.4652 18.9559 24.5051C18.8567 21.5449 22.9606 20.0254 24.1402 19.5645ZM27.7145 19.8785L27.402 38.459H33.3152C32.9215 32.8454 32.528 27.2322 32.1348 21.6191C30.8484 20.6453 29.3194 20.0432 27.7145 19.8785Z" fill="#86EBF9"/>
<path d="M15.8279 8.67773H2.97715C2.7325 8.67773 2.53418 8.87606 2.53418 9.1207V23.1082C2.53418 23.3528 2.7325 23.5512 2.97715 23.5512H15.8279C16.0726 23.5512 16.2709 23.3528 16.2709 23.1082V9.1207C16.2709 8.87606 16.0726 8.67773 15.8279 8.67773Z" fill="#6D5FDE"/>
<mask id="mask1_1622_17352" style="mask-type:luminance" maskUnits="userSpaceOnUse" x="5" y="12" width="9" height="9">
<path d="M12.6442 12.454C12.4098 12.2649 11.8457 11.9267 10.6332 12.1368C10.3434 12.1368 10.0863 12.2876 9.87931 12.536C9.82118 12.6063 9.74826 12.6629 9.66574 12.7017C9.58323 12.7405 9.49316 12.7607 9.40197 12.7607C9.31078 12.7607 9.22071 12.7405 9.1382 12.7017C9.05568 12.6629 8.98276 12.6063 8.92463 12.536C8.71759 12.2876 8.46056 12.1368 8.17072 12.1368C6.95822 11.9267 6.39416 12.2649 6.15978 12.454C4.96525 13.4181 5.15588 16.3071 7.109 19.5017C7.19238 19.6851 7.32324 19.843 7.48806 19.9589C7.65288 20.0748 7.84567 20.1446 8.0465 20.161C8.43088 20.1446 8.76291 19.8314 8.81994 19.4017L8.93713 18.5228C9.009 17.9806 9.7965 17.9806 9.86525 18.5228L9.98244 19.4017C10.0395 19.8314 10.3731 20.1446 10.7559 20.161C10.9567 20.1446 11.1495 20.0748 11.3143 19.9589C11.4791 19.843 11.61 19.6851 11.6934 19.5017C13.6449 16.3071 13.8387 13.4181 12.6442 12.454Z" fill="white"/>
</mask>
<g mask="url(#mask1_1622_17352)">
<path d="M12.6442 12.454C12.4098 12.2649 11.8457 11.9267 10.6332 12.1368C10.3434 12.1368 10.0863 12.2876 9.87931 12.536C9.82118 12.6063 9.74826 12.6629 9.66574 12.7017C9.58323 12.7405 9.49316 12.7607 9.40197 12.7607C9.31078 12.7607 9.22071 12.7405 9.1382 12.7017C9.05568 12.6629 8.98276 12.6063 8.92463 12.536C8.71759 12.2876 8.46056 12.1368 8.17072 12.1368C6.95822 11.9267 6.39416 12.2649 6.15978 12.454C4.96525 13.4181 5.15588 16.3071 7.109 19.5017C7.19238 19.6851 7.32324 19.843 7.48806 19.9589C7.65288 20.0748 7.84567 20.1446 8.0465 20.161C8.43088 20.1446 8.76291 19.8314 8.81994 19.4017L8.93713 18.5228C9.009 17.9806 9.7965 17.9806 9.86525 18.5228L9.98244 19.4017C10.0395 19.8314 10.3731 20.1446 10.7559 20.161C10.9567 20.1446 11.1495 20.0748 11.3143 19.9589C11.4791 19.843 11.61 19.6851 11.6934 19.5017C13.6449 16.3071 13.8387 13.4181 12.6442 12.454Z" fill="#EFEFEF"/>
<path d="M13.6396 12.8906L12.6568 14.7023L11.6311 14.3078L11.042 15.2523L11.8279 14.8117L12.7662 15.5531L13.8576 14.9203L13.6396 12.8906Z" fill="#6D5FDE"/>
<path d="M4.51562 15.0996L6.23984 16.3652L7.09141 15.5574L7.92109 16.9113L8.68516 16.191C8.43776 16.7134 8.19036 17.235 7.94297 17.7559L7.09141 16.5098L6.44766 17.341L5.41641 17.2324L4.51562 15.0996Z" fill="#6D5FDE"/>
</g>
<path d="M17.1166 21.4736C17.1166 21.4736 17.2494 18.9306 17.2111 18.583C17.1728 18.2353 15.5033 17.1275 15.3775 17.2634C15.2517 17.3994 15.3291 18.0588 15.4353 18.3884C15.5416 18.7181 16.265 19.1455 16.265 19.1455V21.6384C16.5594 21.6836 16.8603 21.6253 17.1166 21.4736Z" fill="#F5B493"/>
<path d="M17.9236 25.3887C17.9236 25.3887 19.4408 30.9965 17.6611 33.7566C17.6611 33.7566 20.8197 30.5957 17.9236 25.3887Z" fill="#40C2D6"/>
<path d="M19.0625 23.6035L19.568 26.5051L19.1469 33.1301L19.3508 38.4582H23.1711C23.1711 38.4582 21.1195 37.4855 20.4992 36.9809C19.8789 36.4762 20.8117 34.9637 20.693 34.1098C20.5742 33.2559 19.9688 32.677 19.9219 31.627C19.875 30.577 19.993 26.466 19.993 26.466L19.0625 23.6035Z" fill="#40C2D6"/>
<path d="M23.1713 20.4004L22.1416 23.6035L23.0213 24.6426L22.2455 25.3879L23.4354 27.8121L22.7885 25.509L23.6939 24.7332L22.6463 23.3363L23.1713 20.4004Z" fill="#40C2D6"/>
<path d="M28.5648 20.4004L29.5945 23.6035L28.7156 24.6426L29.4914 25.3879L28.3016 27.8121L28.9484 25.509L28.043 24.7332L29.0906 23.3363L28.5648 20.4004Z" fill="#40C2D6"/>
<path d="M27.5385 31.0316C27.5385 31.0316 29.9424 33.9035 30.9439 35.1973C31.9455 36.491 27.4033 38.459 27.4033 38.459H33.5236V33.3348L29.5947 30.127L27.5385 31.0316Z" fill="#40C2D6"/>
<path d="M32.1609 22.7812L31.6758 25.8594L31.9367 28.5758L32.7883 29.0125L32.1406 25.8969L32.1609 22.7812Z" fill="#40C2D6"/>
<path d="M21.7795 9.71698C20.3733 6.65683 23.2272 4.4662 26.3772 4.97089C26.7522 4.92479 29.6834 4.61151 31.3827 6.56151C33.3788 8.85214 32.378 12.7779 30.6256 14.4521C29.7663 15.2717 27.7999 16.4396 27.7999 16.4396C27.7999 16.4396 29.1069 15.0389 29.5967 11.5771C28.528 10.8287 27.9483 9.67479 27.8342 8.39979C26.4791 8.44622 25.1367 8.12439 23.9499 7.46854C23.9499 7.46854 22.7889 6.87167 21.7795 9.71698Z" fill="#2D1929"/>
<path d="M30.6538 11.2712C30.0452 10.9759 29.2617 11.336 28.9023 12.0751C28.5429 12.8141 28.746 13.6524 29.3554 13.9501C29.9648 14.2477 30.7476 13.8852 31.1054 13.1462C31.4632 12.4071 31.2616 11.5649 30.6538 11.2712Z" fill="#F5B493"/>
<path d="M29.3405 13.1406C29.3546 13.1406 29.6968 13.1117 29.7514 12.7781C29.7889 12.5492 29.3757 12.4531 29.371 12.4523C29.3653 12.451 29.3599 12.4483 29.3554 12.4446C29.3508 12.4409 29.3472 12.4362 29.3447 12.4308C29.3422 12.4255 29.341 12.4197 29.3411 12.4138C29.3411 12.4079 29.3426 12.4021 29.3452 12.3969C29.3624 12.3625 29.7717 11.5586 30.3382 11.625C30.8311 11.6828 30.7764 12.2445 30.7757 12.25C30.7752 12.2551 30.7737 12.2601 30.7712 12.2646C30.7688 12.2691 30.7655 12.2731 30.7615 12.2763C30.7574 12.2795 30.7528 12.2819 30.7479 12.2832C30.743 12.2846 30.7378 12.285 30.7327 12.2844C30.7224 12.2832 30.7131 12.278 30.7067 12.27C30.7002 12.2619 30.6972 12.2516 30.6983 12.2414C30.6983 12.2219 30.7452 11.7516 30.3296 11.7023C29.8866 11.65 29.5296 12.2258 29.4382 12.3891C29.5616 12.4266 29.8686 12.5453 29.8288 12.7906C29.7639 13.1859 29.3499 13.2187 29.3452 13.2187C29.3348 13.2194 29.3246 13.2158 29.3169 13.209C29.3091 13.2021 29.3044 13.1924 29.3038 13.182C29.3032 13.1717 29.3067 13.1615 29.3136 13.1537C29.3205 13.1459 29.3301 13.1412 29.3405 13.1406Z" fill="#2D1929"/>
<path d="M24.7018 5.99219C27.1363 7.83097 29.6993 9.49304 32.3713 10.9656C32.3438 11.2056 32.2885 11.4416 32.2064 11.6687C29.2359 10.4767 26.3709 9.03698 23.6416 7.36484L24.7018 5.99219Z" fill="#40C2D6"/>
<path d="M23.0979 3.30273C22.4838 3.30273 21.8835 3.48484 21.3729 3.82602C20.8623 4.16721 20.4644 4.65214 20.2294 5.21949C19.9945 5.78684 19.933 6.41113 20.0529 7.0134C20.1727 7.61568 20.4685 8.16888 20.9028 8.60304C21.3371 9.03721 21.8903 9.33284 22.4926 9.45255C23.0949 9.57226 23.7192 9.51066 24.2865 9.27555C24.8538 9.04045 25.3386 8.64239 25.6797 8.13173C26.0207 7.62106 26.2027 7.02072 26.2025 6.40664C26.2025 5.99896 26.1222 5.59528 25.9662 5.21865C25.8102 4.84201 25.5815 4.49981 25.2932 4.21157C25.0048 3.92334 24.6626 3.69472 24.2859 3.53878C23.9092 3.38284 23.5055 3.30263 23.0979 3.30273ZM23.0979 6.87227C23.0051 6.87227 22.9145 6.84477 22.8374 6.79327C22.7603 6.74176 22.7003 6.66855 22.6648 6.5829C22.6293 6.49725 22.62 6.403 22.6381 6.31207C22.6562 6.22114 22.7008 6.13761 22.7664 6.07206C22.832 6.0065 22.9155 5.96186 23.0064 5.94377C23.0973 5.92569 23.1916 5.93497 23.2772 5.97045C23.3629 6.00593 23.4361 6.06601 23.4876 6.14309C23.5391 6.22018 23.5666 6.31081 23.5666 6.40352C23.5666 6.52784 23.5172 6.64706 23.4293 6.73497C23.3414 6.82288 23.2222 6.87227 23.0979 6.87227Z" fill="#86EBF9"/>
<mask id="mask2_1622_17352" style="mask-type:luminance" maskUnits="userSpaceOnUse" x="19" y="3" width="8" height="7">
<path d="M23.0979 3.30273C22.4838 3.30273 21.8835 3.48484 21.3729 3.82602C20.8623 4.16721 20.4644 4.65214 20.2294 5.21949C19.9945 5.78684 19.933 6.41113 20.0529 7.0134C20.1727 7.61568 20.4685 8.16888 20.9028 8.60304C21.3371 9.03721 21.8903 9.33284 22.4926 9.45255C23.0949 9.57226 23.7192 9.51066 24.2865 9.27555C24.8538 9.04045 25.3386 8.64239 25.6797 8.13173C26.0207 7.62106 26.2027 7.02072 26.2025 6.40664C26.2025 5.99896 26.1222 5.59528 25.9662 5.21865C25.8102 4.84201 25.5815 4.49981 25.2932 4.21157C25.0048 3.92334 24.6626 3.69472 24.2859 3.53878C23.9092 3.38284 23.5055 3.30263 23.0979 3.30273ZM23.0979 6.87227C23.0051 6.87227 22.9145 6.84477 22.8374 6.79327C22.7603 6.74176 22.7003 6.66855 22.6648 6.5829C22.6293 6.49725 22.62 6.403 22.6381 6.31207C22.6562 6.22114 22.7008 6.13761 22.7664 6.07206C22.832 6.0065 22.9155 5.96186 23.0064 5.94377C23.0973 5.92569 23.1916 5.93497 23.2772 5.97045C23.3629 6.00593 23.4361 6.06601 23.4876 6.14309C23.5391 6.22018 23.5666 6.31081 23.5666 6.40352C23.5666 6.52784 23.5172 6.64706 23.4293 6.73497C23.3414 6.82288 23.2222 6.87227 23.0979 6.87227Z" fill="white"/>
</mask>
<g mask="url(#mask2_1622_17352)">
<path d="M24.8313 3.17383L20.2266 8.39961L20.9508 9.17539L24.8313 3.83164L25.15 4.0793L21.2609 9.17539L21.6906 9.51211L25.607 4.0793L24.8313 3.17383Z" fill="#EFEFEF"/>
</g>
<path d="M23.0146 14.7305L25.0967 14.418C25.0607 15.1539 24.4521 15.6531 23.9006 15.5898C23.4982 15.543 23.1381 15.1977 23.0146 14.7305Z" fill="#EFEFEF"/>
<path d="M22.7881 24.4941H19.3506V26.5824H22.7881V24.4941Z" fill="#917EEC"/>
<path d="M21.3715 24.8469H20.7895L20.6348 23.7891H21.527L21.3715 24.8469Z" fill="#6D5FDE"/>
<path d="M27.8902 26.2956L26.7082 25.655C26.7082 25.655 25.2144 24.3081 24.8066 24.1073C24.3988 23.9066 21.8433 22.2878 21.5457 22.5355C21.248 22.7831 22.4621 23.805 23.5238 24.5089C23.5238 24.5089 22.4879 24.4995 23.0113 25.3191C23.0113 25.3191 22.109 25.4487 22.7769 26.1667C22.7769 26.1667 22.2699 26.1058 22.3215 26.4792C22.373 26.8527 23.4832 28.2097 23.9176 28.5472C24.3519 28.8847 24.9215 28.6941 24.9215 28.6941L26.0769 29.5745C26.0769 29.5745 27.5574 28.7495 27.8902 26.2956Z" fill="#F5B493"/>
<path d="M26.7068 25.6543L25.0967 28.7949C26.2928 30.0832 30.3951 34.3801 33.6764 35.3715C34.3076 35.5621 34.9881 35.6676 35.5428 35.3348C36.6943 34.6441 37.1529 32.366 36.0115 30.9309L26.7068 25.6543Z" fill="#86EBF9"/>
<path d="M27.6094 26.166L35.4352 30.6043C35.4352 30.6043 37.2609 32.2324 37.1445 33.723C37.1445 33.723 38.1273 31.2137 35.2047 29.7652C32.282 28.3168 27.6094 26.166 27.6094 26.166Z" fill="#40C2D6"/>
<path d="M26.3572 26.3379L28.6346 28.7309L26.0439 26.9488L26.3572 26.3379Z" fill="#40C2D6"/>
</svg>
