<svg width="40" height="40" viewBox="0 0 40 40" fill="none" xmlns="http://www.w3.org/2000/svg">
<path d="M33.75 6.25H11.25C10.587 6.25 9.95107 6.51339 9.48223 6.98223C9.01339 7.45107 8.75 8.08696 8.75 8.75V11.25H6.25C5.58696 11.25 4.95107 11.5134 4.48223 11.9822C4.01339 12.4511 3.75 13.087 3.75 13.75V31.25C3.75 31.913 4.01339 32.5489 4.48223 33.0178C4.95107 33.4866 5.58696 33.75 6.25 33.75H28.75C29.413 33.75 30.0489 33.4866 30.5178 33.0178C30.9866 32.5489 31.25 31.913 31.25 31.25V28.75H33.75C34.413 28.75 35.0489 28.4866 35.5178 28.0178C35.9866 27.5489 36.25 26.913 36.25 26.25V8.75C36.25 8.08696 35.9866 7.45107 35.5178 6.98223C35.0489 6.51339 34.413 6.25 33.75 6.25ZM28.75 13.75V16.25H6.25V13.75H28.75ZM28.75 31.25H6.25V18.75H28.75V31.25ZM33.75 26.25H31.25V13.75C31.25 13.087 30.9866 12.4511 30.5178 11.9822C30.0489 11.5134 29.413 11.25 28.75 11.25H11.25V8.75H33.75V26.25Z" fill="#440C46"/>
</svg>
