<svg width="40" height="40" viewBox="0 0 40 40" fill="none" xmlns="http://www.w3.org/2000/svg">
<path d="M39.7331 16.8607L35.7456 8.8826C35.5987 8.58895 35.3954 8.32712 35.1473 8.11205C34.8992 7.89698 34.6112 7.73289 34.2996 7.62914C33.9881 7.5254 33.6592 7.48404 33.3317 7.50742C33.0042 7.5308 32.6845 7.61847 32.3909 7.76541L28.505 9.7076L20.319 7.54197C20.109 7.48731 19.8884 7.48731 19.6784 7.54197L11.4925 9.7076L7.60652 7.76541C7.3129 7.61847 6.99321 7.5308 6.6657 7.50742C6.3382 7.48404 6.00929 7.5254 5.69778 7.62914C5.38626 7.73289 5.09823 7.89698 4.85013 8.11205C4.60203 8.32712 4.39873 8.58895 4.25184 8.8826L0.264336 16.8592C0.117392 17.1528 0.029727 17.4725 0.00634651 17.8C-0.017034 18.1275 0.0243282 18.4564 0.128071 18.7679C0.231814 19.0794 0.395905 19.3675 0.610974 19.6156C0.826043 19.8636 1.08788 20.0669 1.38152 20.2138L5.60027 22.3248L14.2706 28.517C14.3983 28.6079 14.542 28.6741 14.694 28.7123L24.694 31.2123C24.9034 31.2648 25.1229 31.2622 25.331 31.2047C25.5391 31.1472 25.7288 31.0368 25.8815 30.8842L34.4862 22.2779L38.6143 20.2138C39.207 19.9172 39.6576 19.3973 39.8671 18.7686C40.0765 18.1398 40.0278 17.4536 39.7315 16.8607H39.7331ZM31.1565 22.0748L25.78 17.7685C25.5391 17.5756 25.2354 17.4787 24.9273 17.4963C24.6192 17.5138 24.3285 17.6448 24.1112 17.8638C21.3284 20.667 18.2268 20.3123 16.2487 19.0623L23.005 12.4998H27.9753L32.2268 21.0013L31.1565 22.0748ZM6.48777 9.99978L9.68621 11.5967L5.6909 19.5732L2.49871 17.9779L6.48777 9.99978ZM24.6128 28.6138L15.5331 26.3451L7.84559 20.8545L12.2206 12.1045L19.9987 10.0435L21.53 10.4482L14.4987 17.2732L14.4862 17.2873C14.2215 17.552 14.0197 17.8727 13.8955 18.2258C13.7713 18.5789 13.7281 18.9554 13.7689 19.3275C13.8097 19.6996 13.9335 20.0578 14.1312 20.3756C14.3289 20.6934 14.5955 20.9628 14.9112 21.1638C18.1237 23.2154 22.0003 22.8826 25.0534 20.3826L29.3737 23.8529L24.6128 28.6138ZM34.3003 19.5717L30.3128 11.6029L33.5096 9.99978L37.4987 17.9779L34.3003 19.5717ZM20.5893 34.0513C20.5218 34.3215 20.366 34.5614 20.1466 34.7329C19.9272 34.9045 19.6569 34.9978 19.3784 34.9982C19.2757 34.9981 19.1734 34.9855 19.0737 34.9607L12.5628 33.3326C12.4105 33.295 12.2668 33.2287 12.1393 33.1373L8.02215 30.1967C7.76899 29.9979 7.60227 29.7091 7.55669 29.3905C7.5111 29.0719 7.59018 28.748 7.77745 28.4862C7.96472 28.2244 8.24574 28.045 8.56201 27.9852C8.87827 27.9255 9.2054 27.99 9.47527 28.1654L13.3987 30.9685L19.6862 32.5373C20.0078 32.6177 20.2842 32.8226 20.4547 33.1068C20.6253 33.391 20.6759 33.7313 20.5956 34.0529L20.5893 34.0513Z" fill="#440C46"/>
</svg>
