<svg width="40" height="40" viewBox="0 0 40 40" fill="none" xmlns="http://www.w3.org/2000/svg">
<path d="M30.0791 26.7922C31.6598 25.4644 32.9225 23.799 33.7743 21.9185C34.6261 20.038 35.0453 17.9905 35.001 15.9266C34.8447 8.78439 29.1244 2.89532 21.9947 2.52032C20.1551 2.4202 18.3142 2.69077 16.5812 3.31597C14.8483 3.94117 13.2586 4.90824 11.9067 6.15977C10.5547 7.41129 9.46805 8.92174 8.71123 10.6014C7.9544 12.2811 7.54283 14.0957 7.50096 15.9375L3.99314 22.6844C3.97908 22.7125 3.96502 22.7406 3.95252 22.7688C3.70103 23.3549 3.68311 24.0151 3.90242 24.614C4.12172 25.213 4.56167 25.7054 5.13221 25.9906L5.17127 26.0078L8.75096 27.6469V32.5C8.75096 33.1631 9.01435 33.7989 9.48319 34.2678C9.95203 34.7366 10.5879 35 11.251 35H18.751C19.0825 35 19.4004 34.8683 19.6348 34.6339C19.8693 34.3995 20.001 34.0815 20.001 33.75C20.001 33.4185 19.8693 33.1005 19.6348 32.8661C19.4004 32.6317 19.0825 32.5 18.751 32.5H11.251V26.8453C11.2511 26.6057 11.1825 26.3711 11.0531 26.1695C10.9237 25.9678 10.7391 25.8076 10.5213 25.7078L6.25096 23.75L9.85564 16.8219C9.9496 16.6458 9.99946 16.4496 10.001 16.25C10.0006 13.7005 10.8662 11.2265 12.4559 9.23342C14.0457 7.2403 16.2652 5.84625 18.751 5.2797V7.71564C17.9169 8.01051 17.214 8.59072 16.7664 9.35374C16.3188 10.1168 16.1554 11.0134 16.305 11.8853C16.4546 12.7572 16.9075 13.5481 17.5839 14.1183C18.2602 14.6884 19.1163 15.0012 20.001 15.0012C20.8856 15.0012 21.7417 14.6884 22.418 14.1183C23.0944 13.5481 23.5474 12.7572 23.6969 11.8853C23.8465 11.0134 23.6831 10.1168 23.2355 9.35374C22.7879 8.59072 22.085 8.01051 21.251 7.71564V5.00001C21.4541 5.00001 21.6572 5.00001 21.8603 5.01564C24.077 5.14261 26.2071 5.92034 27.984 7.25155C29.761 8.58277 31.1061 10.4084 31.851 12.5H28.751C28.5676 12.4999 28.3864 12.5402 28.2204 12.618C28.0543 12.6958 27.9074 12.8091 27.79 12.95L23.8041 17.7344C22.9728 17.4246 22.0587 17.4188 21.2236 17.718C20.3884 18.0172 19.686 18.6021 19.2405 19.3693C18.795 20.1365 18.6351 21.0365 18.7892 21.9101C18.9433 22.7838 19.4014 23.5748 20.0824 24.1433C20.7635 24.7117 21.6237 25.021 22.5108 25.0165C23.3979 25.0119 24.2548 24.6938 24.93 24.1183C25.6052 23.5429 26.0551 22.7472 26.2002 21.872C26.3453 20.9968 26.1762 20.0985 25.7228 19.3359L29.3369 15H32.4291C32.4666 15.325 32.4895 15.6531 32.4978 15.9844C32.5368 17.7748 32.1493 19.5487 31.3674 21.1598C30.5855 22.7709 29.4316 24.1729 28.001 25.25C27.8247 25.3822 27.6864 25.5586 27.6003 25.7613C27.5141 25.9641 27.4831 26.1861 27.5103 26.4047L28.7603 36.4047C28.7984 36.7066 28.9452 36.9842 29.1733 37.1856C29.4014 37.3869 29.6951 37.4982 29.9994 37.4985C30.0516 37.4984 30.1038 37.4953 30.1556 37.4891C30.3186 37.4688 30.4759 37.4166 30.6187 37.3355C30.7614 37.2544 30.8868 37.146 30.9877 37.0164C31.0885 36.8868 31.1628 36.7386 31.2064 36.5803C31.25 36.422 31.2619 36.2567 31.2416 36.0938L30.0791 26.7922ZM20.001 12.5C19.7537 12.5 19.5121 12.4267 19.3065 12.2893C19.1009 12.152 18.9407 11.9568 18.8461 11.7284C18.7515 11.5 18.7267 11.2486 18.775 11.0061C18.8232 10.7637 18.9423 10.5409 19.1171 10.3661C19.2919 10.1913 19.5146 10.0723 19.7571 10.024C19.9996 9.9758 20.2509 10.0006 20.4793 10.0952C20.7077 10.1898 20.9029 10.35 21.0403 10.5555C21.1776 10.7611 21.251 11.0028 21.251 11.25C21.251 11.5815 21.1193 11.8995 20.8848 12.1339C20.6504 12.3683 20.3325 12.5 20.001 12.5ZM22.501 22.5C22.2537 22.5 22.0121 22.4267 21.8065 22.2893C21.6009 22.152 21.4407 21.9568 21.3461 21.7284C21.2515 21.5 21.2267 21.2486 21.275 21.0061C21.3232 20.7637 21.4423 20.5409 21.6171 20.3661C21.7919 20.1913 22.0146 20.0723 22.2571 20.024C22.4996 19.9758 22.7509 20.0006 22.9793 20.0952C23.2077 20.1898 23.4029 20.35 23.5403 20.5555C23.6776 20.7611 23.751 21.0028 23.751 21.25C23.751 21.5815 23.6193 21.8995 23.3848 22.1339C23.1504 22.3683 22.8325 22.5 22.501 22.5Z" fill="#7D2682"/>
</svg>
