<svg width="55" height="56" viewBox="0 0 55 56" fill="none" xmlns="http://www.w3.org/2000/svg">
<path d="M46.6945 48.5279L44.4805 50.1959C43.3209 51.0697 42.2657 51.444 41.315 51.3189C40.3547 51.201 39.4437 50.5501 38.57 49.3905C37.7035 48.2403 37.3028 47.19 37.3798 46.2154C37.4473 45.2481 38.0453 44.3468 39.1667 43.5019L41.5532 41.7039L46.6945 48.5279ZM45.2183 48.4231L41.2299 43.1494L39.8594 44.182C39.0064 44.8247 38.5423 45.5049 38.4766 46.2155C38.411 46.926 38.7103 47.7221 39.3819 48.6135C40.0823 49.5432 40.7771 50.0864 41.4854 50.2289C42.1769 50.369 42.9851 50.1056 43.8861 49.4268L45.2183 48.4231ZM32.9776 55.5129L32.6711 54.5779L37.2209 53.0864L36.3873 50.5436L32.134 51.9378L31.8387 51.037L36.092 49.6428L35.1725 46.8376L30.5657 48.3478L30.2592 47.4127L35.9379 45.5512L38.5993 53.6701L32.9776 55.5129ZM30.3382 55.5748L29.1024 55.5548L24.7032 48.5467L24.5909 55.4817L23.4991 55.4641L23.6374 46.9212L24.9092 46.9418L29.2857 53.8655L29.3967 47.0144L30.4765 47.0319L30.3382 55.5748ZM15.1067 52.8826L15.4159 51.9484L18.1386 52.8497L20.5144 45.6727L21.5853 46.0272L19.2095 53.2042L21.9322 54.1055L21.623 55.0396L15.1067 52.8826ZM11.7882 50.1771L13.775 41.2227L14.8216 41.9243L14.1523 44.6251L17.1325 46.6231L19.3966 44.9914L20.3933 45.6597L12.8447 50.8854L11.7882 50.1771ZM13.9302 45.5597L12.9378 49.6475L16.3622 47.1902L13.9302 45.5597ZM10.2197 37.6507L10.9818 37.0283L14.5644 41.4154L7.94662 46.8196L7.23315 45.9459L13.0888 41.1641L10.2197 37.6507ZM2.61815 38.1089L1.853 35.4446C1.45221 34.049 1.48036 32.9298 1.93745 32.0869C2.39123 31.2324 3.32499 30.6147 4.72058 30.2139C6.10464 29.8164 7.2288 29.8182 8.11123 30.2389C8.99034 30.6482 9.6179 31.5292 10.0054 32.8786L10.8302 35.7506L2.61815 38.1089ZM3.24434 36.768L9.59615 34.9314L9.12249 33.282C8.82769 32.2555 8.35865 31.5787 7.71867 31.2631C7.07869 30.9475 6.22814 30.942 5.1555 31.2501C4.03672 31.5714 3.28075 32.0257 2.89423 32.6361C2.51592 33.2317 2.47257 34.0806 2.78392 35.1648L3.24434 36.768ZM0.560977 28.3879L9.0941 27.957L9.15099 29.0835L0.617863 29.5144L0.560977 28.3879ZM1.32107 22.8163L10.2562 20.7447L10.0749 21.9916L7.34969 22.5532L6.8333 26.1039L9.28217 27.4423L9.10946 28.6298L1.138 24.0751L1.32107 22.8163ZM6.41071 22.7562L2.29483 23.6249L5.9893 25.6537L6.41071 22.7562ZM10.1289 12.898L14.0866 15.1143L13.7365 15.7435L12.6632 15.4758C13.0646 16.4819 12.9927 17.4994 12.4325 18.506C11.8431 19.565 11.0081 20.2264 9.93325 20.4797C8.85843 20.733 7.7548 20.5445 6.61188 19.9085C5.46895 19.2724 4.70032 18.4326 4.31765 17.3682C3.9245 16.2979 4.04769 15.2129 4.67793 14.0805C4.96387 13.5667 5.31619 13.131 5.74537 12.7794C6.16872 12.4382 6.66774 12.2078 7.22029 12.1033C7.77283 11.9988 8.32292 12.0715 8.86005 12.3155L8.32318 13.2801C7.79416 13.0956 7.26733 13.1045 6.75198 13.3396C6.23664 13.5746 5.81092 13.9694 5.48996 14.5461C5.04063 15.3535 4.96777 16.1507 5.2609 16.9318C5.5482 17.7234 6.17478 18.3743 7.11848 18.8995C8.06218 19.4247 8.93503 19.6083 9.74871 19.4294C10.567 19.2669 11.1956 18.779 11.645 17.9716C12.0651 17.2166 12.1601 16.5279 11.9204 15.8727C11.6808 15.2174 11.1894 14.6693 10.4461 14.2281L9.11559 16.6188L8.3082 16.1695L10.1289 12.898ZM8.96699 8.66027L9.92589 7.8804L17.8027 10.4145L13.4264 5.03349L14.2735 4.34448L19.6645 10.973L18.6777 11.7756L10.8725 9.29151L15.1958 14.6074L14.3579 15.2888L8.96699 8.66027ZM20.9262 1.70598C22.1655 1.32674 23.2488 1.42192 24.176 1.99151C25.1033 2.56111 25.7565 3.46554 26.1393 4.71629C26.5255 5.97851 26.5008 7.12805 26.0731 8.14994C25.6375 9.18681 24.7965 9.88339 23.5572 10.2626C22.9147 10.4593 22.3173 10.5166 21.7422 10.4416C21.167 10.3666 20.6591 10.1832 20.2114 9.86843C19.7672 9.56513 19.3858 9.17988 19.0636 8.70121C18.745 8.234 18.4926 7.69632 18.3065 7.08816C17.9167 5.81447 17.9484 4.68787 18.4281 3.71283C18.9078 2.73778 19.7328 2.07118 20.9262 1.70598ZM21.2142 2.64691C20.2962 2.92783 19.6945 3.46332 19.4092 4.25339C19.1239 5.04345 19.1103 5.90099 19.3982 6.84192C19.7143 7.87464 20.2275 8.60859 20.93 9.05873C21.6324 9.50888 22.4122 9.59653 23.2728 9.33317C24.1334 9.06981 24.7306 8.56078 25.0573 7.78313C25.3761 7.02046 25.3907 6.12499 25.0782 5.10374C24.7692 4.09396 24.2595 3.37149 23.557 2.92135C22.8581 2.48268 22.0748 2.38355 21.2142 2.64691ZM33.6912 3.63532L32.5887 3.57563C32.5445 2.40629 31.8754 1.78555 30.5821 1.70141C29.9714 1.66168 29.4847 1.75027 29.133 1.97992C28.7821 2.19761 28.5919 2.53397 28.5623 2.989C28.5522 3.14467 28.5668 3.28993 28.6069 3.41279C28.647 3.53565 28.7246 3.63691 28.8381 3.74049C28.9516 3.84408 29.0547 3.92294 29.1458 4.00102C29.2497 4.0679 29.4135 4.13868 29.6251 4.21258C29.848 4.29923 30.0245 4.35881 30.1546 4.39133C30.2968 4.42463 30.4972 4.48577 30.7807 4.56434C31.1353 4.65956 31.418 4.7501 31.6416 4.82478C31.8772 4.90023 32.1464 5.01395 32.4492 5.16592C32.7631 5.33065 33.0053 5.49071 33.186 5.67082C33.3666 5.85093 33.5083 6.0766 33.6349 6.34939C33.7606 6.63416 33.8002 6.94939 33.7784 7.28469C33.7395 7.88342 33.5391 8.37545 33.1773 8.76078C32.8156 9.1461 32.3905 9.39504 31.9014 9.51955C31.4115 9.65603 30.8799 9.6936 30.2932 9.65543C29.2274 9.5861 28.3936 9.27932 27.7797 8.73432C27.1658 8.18931 26.8915 7.41387 26.9562 6.41997L28.0459 6.49087C28.0223 7.22288 28.2395 7.76612 28.6727 8.13102C29.1179 8.49669 29.7058 8.70329 30.4482 8.75159C31.0349 8.78976 31.5464 8.69076 31.9811 8.47853C32.4039 8.26552 32.6451 7.88438 32.6809 7.33354C32.6981 7.0701 32.6522 6.85066 32.5561 6.66403C32.4481 6.47662 32.2898 6.32202 32.0581 6.18669C31.8264 6.05136 31.5923 5.95196 31.3575 5.86453C31.1227 5.7771 30.8048 5.67224 30.4271 5.56349C30.368 5.54762 30.3329 5.53331 30.3097 5.51978C29.436 5.27054 28.8722 5.0655 28.6165 4.92861C27.8016 4.51484 27.4342 3.87765 27.4919 2.99152C27.5449 2.17724 27.8832 1.59798 28.5084 1.22979C29.1336 0.861604 29.8773 0.705555 30.7275 0.760865C31.6615 0.821628 32.4011 1.09822 32.9232 1.57712C33.4564 2.06877 33.7129 2.74686 33.6912 3.63532ZM41.9642 4.0674L41.6141 4.98703L38.9337 3.96679L36.2444 11.0323L35.1902 10.631L37.8795 3.56553L35.1991 2.54528L35.5492 1.62565L41.9642 4.0674ZM43.7145 5.29687L39.2784 12.599L38.3144 12.0133L42.7505 4.7112L43.7145 5.29687ZM46.8969 15.7013C46.0741 16.4075 45.2044 16.7494 44.3215 16.7266C43.4387 16.7037 42.6107 16.3153 41.8461 15.5696C40.9784 14.7235 40.5675 13.7697 40.622 12.6998C40.6678 11.6215 41.1811 10.5967 42.1362 9.61733C43.0242 8.70666 44.019 8.18501 45.1293 8.07771C46.2396 7.97041 47.2457 8.34812 48.1564 9.23619C48.8008 9.86454 49.1918 10.5979 49.3464 11.4191C49.5012 12.2573 49.307 13.0065 48.7553 13.6753L47.9477 12.8878C48.2472 12.4088 48.351 11.8898 48.2595 11.3649C48.1681 10.8399 47.9074 10.351 47.452 9.90694C46.7733 9.24508 46.0233 8.98296 45.2104 9.12895C44.3976 9.27494 43.6477 9.70017 42.9607 10.4047C42.1983 11.1865 41.7839 11.9724 41.7177 12.7794C41.6428 13.578 41.9319 14.2957 42.5676 14.9156C43.0831 15.4183 43.6465 15.6828 44.249 15.6837C44.8515 15.6846 45.4592 15.4224 46.0893 14.9138L46.8969 15.7013ZM52.1681 21.2243L51.7155 20.2173C52.7343 19.6417 52.979 18.7624 52.4606 17.5746C52.2158 17.0137 51.9138 16.6218 51.5485 16.4147C51.1941 16.2027 50.808 16.1879 50.39 16.3703C50.2471 16.4327 50.1247 16.5123 50.0339 16.6043C49.9431 16.6963 49.8887 16.8117 49.8487 16.9601C49.8088 17.1085 49.786 17.2362 49.7584 17.353C49.7466 17.476 49.7588 17.654 49.7902 17.8759C49.8154 18.1137 49.8434 18.2979 49.8742 18.4285C49.9098 18.57 49.9474 18.7762 50.0076 19.0642C50.0856 19.4229 50.1349 19.7157 50.1711 19.9486C50.2121 20.1926 50.2345 20.484 50.2383 20.8227C50.2359 21.1773 50.2047 21.4658 50.1276 21.709C50.0504 21.9522 49.9148 22.1815 49.7305 22.4191C49.5351 22.6615 49.2731 22.8413 48.9652 22.9757C48.4153 23.2157 47.8862 23.2633 47.3778 23.1186C46.8695 22.9738 46.4533 22.7103 46.1184 22.3327C45.7724 21.96 45.4952 21.5049 45.26 20.966C44.8328 19.9871 44.723 19.1055 44.9257 18.31C45.1284 17.5145 45.6917 16.9151 46.6046 16.5167L47.0414 17.5176C46.3801 17.8323 45.9969 18.2745 45.8714 18.8268C45.7506 19.3902 45.8367 20.0073 46.1343 20.6892C46.3695 21.2281 46.692 21.6372 47.08 21.9261C47.4632 22.2041 47.9125 22.2436 48.4184 22.0228C48.6604 21.9173 48.8344 21.7759 48.9561 21.6049C49.0731 21.4229 49.1379 21.2113 49.1519 20.9434C49.1658 20.6754 49.1468 20.4218 49.1168 20.1731C49.0868 19.9243 49.0342 19.5938 48.9576 19.2082C48.9446 19.1484 48.9412 19.1106 48.9426 19.0838C48.7634 18.1932 48.6869 17.598 48.6913 17.3081C48.6853 16.3942 49.083 15.7755 49.8968 15.4203C50.6447 15.0939 51.3146 15.1288 51.9286 15.5156C52.5425 15.9023 53.0223 16.4916 53.3631 17.2724C53.7375 18.1303 53.8309 18.9144 53.6448 19.5979C53.4524 20.2972 52.9675 20.8362 52.1681 21.2243Z" fill="white"/>
</svg>
