<svg width="948" height="939" viewBox="0 0 948 939" fill="none" xmlns="http://www.w3.org/2000/svg">
<path d="M155.667 778.802C112.983 734.88 109.753 660.514 139.292 575.612C168.82 490.741 231.05 395.499 318.998 310.029C406.947 224.558 503.928 165.076 589.608 137.984C675.32 110.883 749.563 116.237 792.248 160.159C834.932 204.081 838.162 278.446 808.622 363.348C779.094 448.22 716.864 543.461 628.916 628.932C540.967 714.402 443.986 773.885 358.306 800.976C272.594 828.077 198.351 822.724 155.667 778.802Z" stroke="white"/>
<path d="M792.245 778.802C834.929 734.88 838.16 660.514 808.62 575.612C779.092 490.741 716.862 395.499 628.914 310.029C540.965 224.558 443.984 165.076 358.304 137.984C272.592 110.883 198.349 116.237 155.664 160.159C112.98 204.081 109.751 278.446 139.29 363.348C168.818 448.22 231.048 543.461 318.996 628.932C406.945 714.402 503.926 773.885 589.606 800.976C675.318 828.077 749.561 822.724 792.245 778.802Z" stroke="white"/>
</svg>
