<svg width="33" height="32" viewBox="0 0 33 32" fill="none" xmlns="http://www.w3.org/2000/svg">
<path d="M19.1738 23.6529C18.9512 20.4251 17.5042 19.8964 16.8086 20.0355C17.226 20.0355 18.1442 21.0094 18.4782 24.9053C18.8121 28.8011 20.2869 28.9402 20.9825 28.5227C20.2869 28.5227 19.4521 27.6877 19.1738 23.6529Z" fill="#DDE0EB"/>
<path d="M21.3972 5.56641C22.0803 5.56641 22.8599 5.71657 23.4841 5.98407C24.829 6.58689 27.2963 8.82207 26.4059 12.9403C26.2204 13.5432 25.5989 14.916 24.5972 15.5838L24.458 19.6186C24.3653 22.3548 23.4563 27.9942 20.5624 28.6621C20.5288 28.6651 20.4928 28.6648 20.4545 28.6615C20.3979 28.6657 20.341 28.6664 20.2841 28.6621C18.8372 28.5506 18.3827 25.1838 18.3363 23.5142C18.251 22.4483 17.8051 20.4023 16.6958 20.0794C16.5789 20.0546 16.4536 20.0403 16.3189 20.0368C16.1842 20.0404 16.0589 20.0546 15.942 20.0794C14.8328 20.4025 14.3868 22.4483 14.3015 23.5142C14.2551 25.1838 13.8006 28.5508 12.3537 28.6621C12.2967 28.6664 12.2398 28.6658 12.183 28.6615C12.1449 28.6647 12.1088 28.6651 12.0754 28.6621C9.18158 27.9941 8.27252 22.3548 8.17977 19.6186L8.12705 18.0941C7.99903 17.2377 7.85288 16.2907 7.70096 15.3186C6.89818 14.6009 6.3957 13.4717 6.23221 12.9403C5.34178 8.82206 7.80902 6.58688 9.15395 5.98407C9.36508 5.89359 9.68897 5.79133 10.0874 5.71749C10.446 5.62117 10.8306 5.56642 11.2406 5.56641C11.8435 5.61278 13.2719 5.81687 14.1624 6.26206C14.2946 6.32819 14.4249 6.38394 14.551 6.43244C15.1844 6.59599 15.7046 6.66568 16.0722 6.68488C16.0722 6.69032 16.2248 6.68913 16.301 6.69032C16.3887 6.68996 16.5656 6.68488 16.5656 6.68488C16.9332 6.66569 17.4534 6.59599 18.0868 6.43244C18.2129 6.38394 18.3431 6.3282 18.4754 6.26206C19.3658 5.81687 20.7942 5.6128 21.3972 5.56641Z" fill="white"/>
<path d="M6.92946 10.7138C7.04077 7.59725 9.48019 6.07609 10.686 5.70508C8.45988 5.70508 6.51217 7.51377 6.09478 10.7138C5.76087 13.2738 7.2542 15.0268 8.04261 15.5833C7.9313 19.479 8.64551 23.3283 9.01652 24.7659C10.1296 28.2164 11.7991 28.708 12.4948 28.5225C9.26696 27.0755 8.73819 19.2935 8.87729 15.5833C8.18164 15.2587 6.81816 13.8303 6.92946 10.7138Z" fill="#DDE0EB"/>
<path d="M29.0512 21.984L27.5208 22.8188L26.5469 21.0101L28.0773 20.3145L29.0512 21.984Z" fill="#3F5163"/>
<path d="M7.80257 13.0745C6.52471 9.14754 9.09188 7.34672 10.6165 7.01442C10.8791 6.95717 11.0981 7.17485 11.0982 7.44367C11.0984 7.71273 10.8777 7.9259 10.6119 7.96774C8.32496 8.32771 7.99834 11.2394 8.50063 12.7225C8.58348 12.9671 8.4466 13.2659 8.19183 13.3084C8.02262 13.3366 7.85565 13.2377 7.80257 13.0745Z" fill="#DDE0EB"/>
<path d="M24.1777 8.34863C27.866 8.34863 30.8564 11.339 30.8564 15.0273C30.8563 18.7155 27.8659 21.7051 24.1777 21.7051C20.4897 21.7049 17.5002 18.7154 17.5 15.0273C17.5 11.3392 20.4896 8.34882 24.1777 8.34863ZM24.1777 10.0186C21.4117 10.0187 19.1689 12.2612 19.1689 15.0273C19.1691 17.7933 21.4118 20.0359 24.1777 20.0361C26.9439 20.0361 29.1864 17.7934 29.1865 15.0273C29.1865 12.2611 26.944 10.0186 24.1777 10.0186Z" fill="#69A7FF"/>
<path d="M24.3926 8.35352C21.0287 8.46778 18.335 11.4115 18.335 15.0273C18.3351 18.6431 21.0288 21.5849 24.3926 21.6992C24.3213 21.7015 24.2495 21.7051 24.1777 21.7051C20.4897 21.7049 17.5002 18.7154 17.5 15.0273C17.5 11.3392 20.4896 8.34882 24.1777 8.34863C24.2495 8.34863 24.3213 8.35127 24.3926 8.35352Z" fill="#5F96E6"/>
<path d="M29.6059 21.5664L27.1016 22.9577L29.6116 27.3503C30.0459 28.1104 31.0582 28.2995 31.7376 27.7475C32.2742 27.3114 32.4183 26.552 32.0786 25.9497L29.6059 21.5664Z" fill="#FFAB02"/>
<path d="M30.3016 26.8531L27.9363 22.6792L27.7972 22.54L27.1016 22.9574C27.6117 23.8386 28.8268 25.9348 29.6059 27.2705C30.385 28.6061 31.5074 28.0125 31.9711 27.5487C31.192 27.8826 30.5334 27.2241 30.3016 26.8531Z" fill="#ED9E00"/>
<path d="M15 7.93161L18.6174 3.20117H31.8348" stroke="#DE4251" stroke-width="1.11304" stroke-linecap="round" stroke-linejoin="round"/>
<path d="M27.7969 5.00977H31.6925" stroke="#DE4251" stroke-width="1.11304" stroke-linecap="round" stroke-linejoin="round"/>
<path d="M27.7969 6.67969H31.6925" stroke="#DE4251" stroke-width="1.11304" stroke-linecap="round" stroke-linejoin="round"/>
<path d="M10.5462 17.8096L5.95493 22.4009H0.667969" stroke="#FFAB02" stroke-width="1.11304" stroke-linecap="round" stroke-linejoin="round"/>
<path d="M0.808594 24.21H4.28685" stroke="#FFAB02" stroke-width="1.11304" stroke-linecap="round" stroke-linejoin="round"/>
<path d="M0.808594 25.8789H4.28685" stroke="#FFAB02" stroke-width="1.11304" stroke-linecap="round" stroke-linejoin="round"/>
</svg>
