<svg width="52" height="52" viewBox="0 0 52 52" fill="none" xmlns="http://www.w3.org/2000/svg">
<g clip-path="url(#clip0_1791_13772)">
<path d="M37.618 28.5816C38.8901 28.1203 39.9969 28.1407 40.8892 29.033L41.8464 29.9902C42.866 31.0098 44.519 31.0098 45.5387 29.9902C46.5583 28.9707 46.5583 27.3176 45.5387 26.2979L44.5815 25.3407C42.9368 23.696 44.1016 20.8838 46.4276 20.8838H47.7813C49.2232 20.8838 50.3922 19.7149 50.3922 18.2729C50.3922 16.831 49.2233 15.662 47.7813 15.662H46.4276C44.1016 15.662 42.9368 12.8498 44.5815 11.205L45.5387 10.2478C46.5583 9.22823 46.5583 7.5751 45.5387 6.55552C44.5191 5.53593 42.8661 5.53593 41.8464 6.55552L40.8892 7.51274C39.2445 9.15745 36.4322 7.99262 36.4322 5.66664V4.31302C36.4322 2.87113 35.2633 1.70215 33.8214 1.70215C32.3795 1.70215 31.2105 2.87103 31.2105 4.31302V5.66674C31.2105 7.99273 28.3982 9.15755 26.7535 7.51284L25.7963 6.55562C24.7767 5.53603 23.1236 5.53603 22.104 6.55562C21.0844 7.5752 21.0844 9.22834 22.104 10.2479L23.0612 11.2051C24.7059 12.8499 23.5411 15.6621 21.2151 15.6621H19.8614C18.4195 15.6621 17.2505 16.831 17.2505 18.273C17.2505 19.1773 17.7103 19.9743 18.4089 20.4429M32.1323 31.3113C33.5741 31.3113 34.7431 32.4802 34.7431 33.9221C34.7431 35.364 33.5742 36.5329 32.1323 36.5329H30.7785C28.4526 36.5329 27.2877 39.3452 28.9324 40.9899L29.8897 41.9471C30.9092 42.9667 30.9092 44.6198 29.8897 45.6394C28.8701 46.659 27.2169 46.659 26.1974 45.6394L25.2401 44.6822C23.5954 43.0375 20.7832 44.2023 20.7832 46.5283V47.882C20.7832 49.3239 19.6143 50.4929 18.1723 50.4929C16.7304 50.4929 15.5614 49.324 15.5614 47.882V46.5283C15.5614 44.2023 12.7492 43.0375 11.1045 44.6822L10.1472 45.6394C9.12765 46.659 7.47452 46.659 6.45493 45.6394C5.43534 44.6198 5.43534 42.9667 6.45493 41.9471L7.41216 40.9899C9.05686 39.3452 7.89204 36.5329 5.56605 36.5329H4.21243C2.77055 36.5329 1.60156 35.364 1.60156 33.9221C1.60156 32.4803 2.77045 31.3113 4.21243 31.3113H5.56616C7.89214 31.3113 9.05696 28.499 7.41226 26.8543L6.45503 25.8971C5.43545 24.8775 5.43545 23.2244 6.45503 22.2048C7.47462 21.1852 9.12775 21.1852 10.1473 22.2048L11.1046 23.162C11.7214 23.7788 12.6211 24.0634 13.3563 23.9769" stroke="#972D9E" stroke-width="1.52344" stroke-miterlimit="10" stroke-linecap="round" stroke-linejoin="round"/>
<path d="M33.2548 29.2656C36.2133 29.3954 39.2143 28.3307 41.4734 26.0716L41.5862 25.9588C45.9267 21.6183 45.8579 14.5381 41.3794 10.2846C37.0651 6.18691 30.2369 6.36272 26.0296 10.5701C21.7572 14.8426 21.7572 21.7696 26.0296 26.0421L26.0443 26.0568C30.309 30.3215 30.309 37.2359 26.0443 41.5006C21.7686 45.7763 14.8056 45.8728 10.5151 41.6119C6.21506 37.3415 6.20592 30.3937 10.4877 26.112L10.5281 26.0715C12.8648 23.7349 15.9952 22.6762 19.0513 22.8952" stroke="#972D9E" stroke-width="1.52344" stroke-miterlimit="10" stroke-linecap="round" stroke-linejoin="round"/>
<path d="M18.2996 38.147C20.7151 38.147 22.6734 36.1888 22.6734 33.7732C22.6734 31.3576 20.7151 29.3994 18.2996 29.3994C15.884 29.3994 13.9258 31.3576 13.9258 33.7732C13.9258 36.1888 15.884 38.147 18.2996 38.147Z" stroke="#972D9E" stroke-width="1.52344" stroke-miterlimit="10" stroke-linecap="round" stroke-linejoin="round"/>
<path d="M33.8074 22.6392C36.223 22.6392 38.1812 20.681 38.1812 18.2654C38.1812 15.8498 36.223 13.8916 33.8074 13.8916C31.3918 13.8916 29.4336 15.8498 29.4336 18.2654C29.4336 20.681 31.3918 22.6392 33.8074 22.6392Z" stroke="#972D9E" stroke-width="1.52344" stroke-miterlimit="10" stroke-linecap="round" stroke-linejoin="round"/>
</g>
<defs>
<clipPath id="clip0_1791_13772">
<rect width="52" height="52" fill="white"/>
</clipPath>
</defs>
</svg>
