<svg width="52" height="52" viewBox="0 0 52 52" fill="none" xmlns="http://www.w3.org/2000/svg">
<path d="M51.2119 50.3423H41.0881C40.6494 50.3423 40.3 49.9929 40.3 49.5541V16.0548C40.3 15.616 40.6494 15.2666 41.0881 15.2666H51.2119C51.6506 15.2666 52 15.616 52 16.0548V49.5541C52 49.9929 51.6506 50.3423 51.2119 50.3423ZM41.8763 48.766H50.4238V16.8429H41.8763V48.766ZM37.83 50.3423H27.6981C27.2594 50.3423 26.91 49.9929 26.91 49.5541V26.1866C26.91 25.7479 27.2594 25.3985 27.6981 25.3985H37.8219C38.2606 25.3985 38.61 25.7479 38.61 26.1866V49.5541C38.6181 49.9929 38.2606 50.3423 37.83 50.3423ZM28.4863 48.766H37.0338V26.9748H28.4863V48.766ZM24.3019 50.3423H14.17C13.7313 50.3423 13.3819 49.9929 13.3819 49.5541V32.7679C13.3819 32.3291 13.7313 31.9798 14.17 31.9798H24.2937C24.7325 31.9798 25.0819 32.3291 25.0819 32.7679V49.5541C25.09 49.9929 24.7325 50.3423 24.3019 50.3423ZM14.9581 48.766H23.5056V33.556H14.9581V48.766ZM10.9119 50.3423H0.788125C0.349375 50.3423 0 49.9929 0 49.5541V39.4304C0 38.9916 0.349375 38.6423 0.788125 38.6423H10.9119C11.3506 38.6423 11.7 38.9916 11.7 39.4304V49.5541C11.7 49.9929 11.3506 50.3423 10.9119 50.3423ZM1.57625 48.766H10.1319V40.2104H1.57625V48.766ZM5.85 29.3716C5.60625 29.3716 5.3625 29.2579 5.20813 29.0466C5.08739 28.8771 5.03844 28.6668 5.07192 28.4614C5.10539 28.256 5.21857 28.0722 5.38688 27.9498L38.8944 3.57476C39.1544 3.38789 39.4956 3.37164 39.7719 3.54226C40.0481 3.70476 40.1863 4.02164 40.1375 4.33851L38.3744 15.5104C38.3372 15.7128 38.2224 15.8926 38.0546 16.0117C37.8867 16.1307 37.679 16.1796 37.4757 16.1478C37.2724 16.116 37.0895 16.0062 36.966 15.8416C36.8425 15.677 36.7881 15.4707 36.8144 15.2666L38.2769 5.97164L6.31313 29.2173C6.18008 29.3185 6.0172 29.3728 5.85 29.3716Z" fill="#972D9E"/>
<path d="M39.3571 4.99654C39.3165 4.99654 39.2759 4.99654 39.2352 4.98841L28.0552 3.22529C27.9531 3.2092 27.8552 3.17305 27.7672 3.11891C27.6791 3.06477 27.6027 2.99372 27.5422 2.90986C27.4818 2.826 27.4386 2.731 27.415 2.63034C27.3915 2.52968 27.3882 2.42536 27.4052 2.32341C27.4702 1.89279 27.8684 1.60029 28.3071 1.66529L39.479 3.42841C39.9096 3.49341 40.2021 3.89966 40.1371 4.33029C40.0721 4.72029 39.739 4.99654 39.3571 4.99654Z" fill="#972D9E"/>
<path d="M13.875 5.625H11.925C11.7 4.575 11.1 3.6 10.275 3H13.875C14.1 3 14.25 2.85 14.25 2.625C14.25 2.4 14.1 2.25 13.875 2.25H4.875C4.65 2.25 4.5 2.4 4.5 2.625C4.5 2.85 4.65 3 4.875 3H7.95C9.525 3 10.875 4.125 11.175 5.625H4.875C4.65 5.625 4.5 5.775 4.5 6C4.5 6.225 4.65 6.375 4.875 6.375H11.25C11.25 6.375 11.25 6.375 11.25 6.45C11.25 8.325 9.675 9.825 7.8 9.75H4.875C4.875 9.75 4.875 9.75 4.8 9.75H4.725C4.725 9.75 4.65 9.75 4.65 9.825C4.65 9.825 4.65 9.825 4.575 9.825C4.575 9.825 4.575 9.9 4.5 9.9C4.5 9.9 4.5 9.9 4.5 9.975V10.05V10.125C4.5 10.125 4.5 10.125 4.5 10.2V10.275C4.5 10.275 4.5 10.35 4.575 10.35C4.575 10.35 4.575 10.35 4.575 10.425L9.075 15.675C9.15 15.75 9.225 15.825 9.375 15.825C9.45 15.825 9.525 15.825 9.6 15.75C9.75 15.6 9.75 15.375 9.675 15.225L5.7 10.5H7.8H7.875C10.125 10.5 11.925 8.625 11.925 6.375H13.8C14.1 6.375 14.25 6.225 14.25 6C14.25 5.775 14.1 5.625 13.875 5.625Z" fill="#972D9E"/>
</svg>
