<svg width="57" height="57" viewBox="0 0 57 57" fill="none" xmlns="http://www.w3.org/2000/svg">
<rect x="13.0898" y="13.2793" width="31" height="31" rx="15.5" fill="#440C46"/>
<path d="M24.8125 21.4365C25.0021 21.44 25.1879 21.4938 25.3496 21.5928L35.626 27.8799C35.7806 27.9733 35.9085 28.1053 35.9971 28.2627C36.0856 28.4201 36.1313 28.5978 36.1309 28.7783L36.123 28.9131C36.1061 29.0466 36.0634 29.1759 35.9971 29.2939C35.9085 29.4513 35.7805 29.5834 35.626 29.6768L25.3496 35.9639C25.1879 36.0629 25.0021 36.1166 24.8125 36.1201C24.623 36.1236 24.4357 36.0763 24.2705 35.9834C24.107 35.8919 23.9709 35.7582 23.876 35.5967C23.7812 35.4352 23.7308 35.2517 23.7305 35.0645V22.4932C23.7307 22.3058 23.7811 22.1215 23.876 21.96C23.9472 21.8387 24.0415 21.7331 24.1533 21.6494L24.2705 21.5732C24.4357 21.4803 24.623 21.433 24.8125 21.4365Z" fill="#FCFCFD" stroke="#FCFCFD" stroke-width="0.152158"/>
<path d="M47.6877 48.3316L46.7157 49.1144L40.1334 44.8625L42.865 52.2152L41.9397 52.9603L38.955 44.394L39.9644 43.5811L47.6877 48.3316ZM39.862 53.868L35.9399 46.2774L36.9421 45.7596L40.8641 53.3502L39.862 53.868ZM32.3532 56.1752L32.0687 55.2332L36.6523 53.849L35.8787 51.2873L31.5938 52.5813L31.3197 51.6738L35.6046 50.3798L34.7512 47.5538L30.1102 48.9553L29.8258 48.0134L35.5466 46.2858L38.0166 54.4649L32.3532 56.1752ZM29.8787 56.1522L28.7212 56.029L27.7941 48.7501L25.1175 55.6456L23.8885 55.5148L22.7466 48.213L20.249 55.1276L19.1274 55.0082L22.2986 46.7534L23.4799 46.8791L24.6801 54.1992L27.4177 47.2981L28.599 47.4238L29.8787 56.1522ZM11.02 50.2113C9.98635 49.4296 9.42847 48.4962 9.3464 47.411C9.26432 46.3259 9.61415 45.2665 10.4031 44.2232C11.1993 43.1704 12.1451 42.5166 13.2238 42.2641C14.3192 42.0092 15.3765 42.2823 16.4102 43.064C16.9462 43.4693 17.3428 43.9197 17.6192 44.4296C17.8955 44.9395 18.0447 45.4585 18.0521 46.0058C18.0667 46.5434 17.9782 47.0783 17.7792 47.6199C17.5875 48.1519 17.2998 48.6716 16.9162 49.1789C16.1128 50.2413 15.1814 50.876 14.1103 51.0589C13.0391 51.2418 12.0154 50.9641 11.02 50.2113ZM11.6136 49.4265C12.3793 50.0056 13.1658 50.1791 13.9731 49.9471C14.7804 49.7151 15.4832 49.2235 16.0768 48.4387C16.7282 47.5773 17.022 46.7313 16.9749 45.8983C16.9278 45.0653 16.5417 44.3821 15.8239 43.8393C15.1061 43.2964 14.3436 43.1109 13.522 43.3021C12.7173 43.4909 11.9832 44.0039 11.339 44.8558C10.702 45.698 10.4155 46.5345 10.4626 47.3675C10.5169 48.1909 10.8957 48.8836 11.6136 49.4265ZM6.15038 45.0756L5.51448 44.0157L9.14073 36.5782L3.19312 40.1467L2.6313 39.2103L9.95777 34.8145L10.6122 35.9053L7.04562 43.279L12.9212 39.7537L13.4769 40.6798L6.15038 45.0756ZM7.89377 29.1576L8.85366 28.9412L10.0996 34.4665L1.76491 36.3459L1.51677 35.2456L8.89159 33.5825L7.89377 29.1576ZM0.55093 28.7475L9.08406 28.3166L9.14094 29.4432L0.607816 29.874L0.55093 28.7475ZM0.871333 26.4693L1.09409 25.2536L8.72968 22.0654L1.90725 20.8154L2.10405 19.7413L10.5082 21.2811L10.2789 22.5323L2.73027 25.7119L9.47007 26.9468L9.27543 28.0091L0.871333 26.4693ZM6.34534 11.7646L7.20098 12.2506L4.83649 16.414L7.16342 17.7355L9.37383 13.8434L10.1982 14.3115L7.98776 18.2036L10.5547 19.6615L12.9488 15.4459L13.8044 15.9318L10.8533 21.1282L3.4238 16.9089L6.34534 11.7646ZM18.9455 10.6997L19.5608 11.4675L15.1409 15.0095L9.79798 8.34217L10.6782 7.63678L15.4058 13.5362L18.9455 10.6997ZM21.4468 1.91018L21.8224 2.81969L17.3968 4.64709L18.4182 7.12052L22.5553 5.4122L22.9171 6.28844L18.78 7.99676L19.9066 10.7253L24.3877 8.875L24.7632 9.78451L19.2396 12.0653L15.9787 4.1681L21.4468 1.91018ZM30.1808 3.66889L29.0812 3.76706C28.8706 2.61599 28.1198 2.09704 26.8278 2.19825C26.2176 2.24604 25.7485 2.40316 25.4332 2.68063C25.1169 2.94614 24.9766 3.30619 25.0122 3.7608C25.0244 3.91632 25.0596 4.05801 25.1168 4.1739C25.174 4.28978 25.2653 4.37893 25.3924 4.46526C25.5195 4.5516 25.6328 4.61494 25.7342 4.67923C25.8465 4.73061 26.0187 4.77731 26.2387 4.82026C26.4716 4.87423 26.6548 4.90803 26.7883 4.92165C26.9337 4.93433 27.1409 4.96625 27.4327 5.00358C27.7972 5.04724 28.0899 5.09653 28.3219 5.13854C28.5659 5.17962 28.8485 5.25377 29.1699 5.361C29.5042 5.47926 29.7666 5.60314 29.9712 5.75563C30.1757 5.90813 30.3481 6.11128 30.5123 6.36323C30.6774 6.62715 30.7616 6.93351 30.7878 7.26848C30.8347 7.86665 30.7065 8.38223 30.4034 8.81522C30.1003 9.24822 29.7151 9.55523 29.2488 9.74824C28.7833 9.95321 28.2626 10.0662 27.6764 10.1121C26.6116 10.1956 25.7426 10.0109 25.0572 9.559C24.3718 9.10714 23.9897 8.37875 23.912 7.3858L25.0006 7.30052C25.0817 8.02841 25.3742 8.53512 25.855 8.83448C26.3478 9.13291 26.9591 9.25354 27.7009 9.19544C28.2871 9.14952 28.7792 8.97856 29.1792 8.70649C29.5672 8.43536 29.7516 8.02371 29.7085 7.47339C29.6879 7.2102 29.6112 6.99954 29.4895 6.82853C29.3558 6.65845 29.1771 6.52801 28.9284 6.42712C28.6798 6.32623 28.434 6.26122 28.1891 6.20819C27.9442 6.15515 27.6146 6.09671 27.2252 6.04295C27.1645 6.03567 27.1276 6.02652 27.1028 6.01643C26.2025 5.89437 25.6151 5.77186 25.3426 5.67284C24.477 5.37954 24.0225 4.80127 23.9531 3.91598C23.8894 3.10248 24.1416 2.48088 24.7079 2.02727C25.2742 1.57366 25.9881 1.31312 26.8375 1.24658C27.7706 1.17349 28.5421 1.34175 29.1271 1.74129C29.725 2.15185 30.0756 2.78641 30.1808 3.66889ZM38.109 5.60637L37.0355 5.34816C37.2037 4.19014 36.6579 3.45856 35.4012 3.14178C34.8078 2.9922 34.313 2.99123 33.9256 3.15346C33.5412 3.30406 33.2932 3.60044 33.1817 4.04261C33.1436 4.19388 33.1317 4.33938 33.1489 4.46747C33.1661 4.59556 33.2241 4.70918 33.317 4.8316C33.4099 4.95402 33.497 5.05023 33.5725 5.14351C33.6626 5.22809 33.8108 5.32733 34.0056 5.43831C34.2091 5.56385 34.3719 5.65439 34.494 5.70993C34.6278 5.7684 34.8138 5.86481 35.0784 5.99338C35.4099 6.15119 35.6716 6.2914 35.878 6.40531C36.0961 6.52215 36.3402 6.6827 36.6105 6.88695C36.8895 7.10578 37.0986 7.30701 37.2438 7.51684C37.3889 7.72667 37.4873 7.97425 37.5624 8.26544C37.6346 8.56827 37.6165 8.88547 37.5344 9.21128C37.3878 9.79308 37.1017 10.2407 36.6761 10.5542C36.2506 10.8677 35.7875 11.0356 35.2839 11.0696C34.7774 11.1152 34.2479 11.0559 33.6777 10.9122C32.6421 10.6512 31.8775 10.1985 31.3724 9.55145C30.8672 8.90435 30.7378 8.09209 30.9813 7.1263L32.0401 7.39321C31.8845 8.10887 31.9998 8.68245 32.3598 9.11972C32.7315 9.55991 33.2723 9.86947 33.9937 10.0513C34.5639 10.195 35.0848 10.1902 35.5508 10.0602C36.005 9.92718 36.3113 9.59599 36.4462 9.06073C36.5107 8.80474 36.5053 8.58062 36.4446 8.37968C36.3723 8.17581 36.2445 7.99512 36.0412 7.8201C35.8378 7.64507 35.6256 7.50496 35.4105 7.37648C35.1953 7.248 34.9017 7.08736 34.5499 6.91205C34.4946 6.88575 34.4626 6.86531 34.4423 6.84781C33.6282 6.44459 33.1107 6.14089 32.884 5.96C32.1575 5.40561 31.9115 4.71245 32.1285 3.85138C32.328 3.06013 32.7655 2.55166 33.4471 2.30269C34.1286 2.05372 34.8882 2.03482 35.7144 2.24307C36.622 2.47185 37.2994 2.87772 37.7261 3.44317C38.1615 4.0232 38.2911 4.7365 38.109 5.60637ZM44.5936 6.69901C45.6558 7.44159 46.2481 8.35353 46.3707 9.43485C46.4932 10.5162 46.1832 11.5879 45.4337 12.6599C44.6774 13.7417 43.7567 14.4304 42.6882 14.723C41.6031 15.0186 40.5363 14.7853 39.4741 14.0427C38.9234 13.6576 38.5102 13.2224 38.215 12.7232C37.9198 12.2239 37.7514 11.7109 37.7235 11.1643C37.6888 10.6275 37.7573 10.0898 37.9359 9.5411C38.1076 9.00227 38.3757 8.47223 38.7401 7.95098C39.5033 6.85931 40.4103 6.19028 41.4739 5.96748C42.5374 5.74467 43.5708 5.98393 44.5936 6.69901ZM44.0298 7.50547C43.243 6.95541 42.4506 6.81136 41.6524 7.07334C40.8543 7.33531 40.1704 7.85281 39.6066 8.65927C38.9878 9.54441 38.7258 10.4008 38.804 11.2315C38.8821 12.0621 39.2935 12.7304 40.0311 13.2461C40.7687 13.7617 41.5375 13.9186 42.3514 13.6969C43.1486 13.4782 43.8629 12.9381 44.4749 12.0628C45.0799 11.1973 45.335 10.3507 45.2569 9.52005C45.1718 8.69923 44.7674 8.02115 44.0298 7.50547ZM49.8002 11.9502L50.4346 13.011L46.7983 20.4435L52.7507 16.8832L53.3113 17.8203L45.9788 22.2061L45.3259 21.1145L48.9025 13.7456L43.0221 17.2629L42.4677 16.336L49.8002 11.9502Z" fill="white"/>
</svg>
