<svg width="52" height="52" viewBox="0 0 52 52" fill="none" xmlns="http://www.w3.org/2000/svg">
<path d="M34.9309 2.31244L28.8184 8.42493C28.6575 8.5868 28.6222 8.83604 28.7331 9.03617C28.8439 9.23534 29.0745 9.33936 29.2962 9.28636C29.9193 9.13917 30.5648 9.32756 31.023 9.78573C31.751 10.5148 31.751 11.6999 31.023 12.4279C30.294 13.1569 29.1088 13.1569 28.3808 12.4279C27.9226 11.9697 27.7353 11.3252 27.8805 10.7021C27.9325 10.4794 27.8304 10.2498 27.6303 10.139C27.4321 10.0281 27.1819 10.0625 27.02 10.2243L20.9076 16.3368C20.7074 16.5369 20.7074 16.8607 20.9076 17.0609L27.02 23.1733C27.1819 23.3342 27.4301 23.3695 27.6293 23.2586C27.8285 23.1487 27.9315 22.9202 27.8814 22.6975C27.7382 22.0705 27.9256 21.4239 28.3808 20.9687C29.1088 20.2397 30.295 20.2407 31.023 20.9687C31.754 21.7006 31.7569 22.8878 31.0279 23.6168C30.5737 24.071 29.9271 24.2594 29.2992 24.1162C29.0765 24.0642 28.8479 24.1681 28.738 24.3683C28.6271 24.5675 28.6624 24.8157 28.8243 24.9776L34.9368 31.0891C35.0368 31.1891 35.1673 31.2392 35.2988 31.2392C35.4293 31.2392 35.5608 31.1891 35.6608 31.0891L40.9187 25.8302C41.0423 26.3316 41.3023 26.7986 41.685 27.1812C42.8133 28.3085 44.648 28.3085 45.7753 27.1812C46.9036 26.0529 46.9036 24.2182 45.7753 23.0899C45.3937 22.7082 44.9266 22.4482 44.4253 22.3246L49.6842 17.0658C49.8833 16.8656 49.8833 16.5419 49.6842 16.3417L35.6549 2.31244C35.4626 2.12111 35.1232 2.12111 34.9309 2.31244ZM42.8476 22.4541C42.6857 22.616 42.6514 22.8652 42.7623 23.0654C42.8731 23.2655 43.1037 23.3666 43.3264 23.3146C43.9465 23.1684 44.5931 23.3558 45.0512 23.8149C45.7802 24.543 45.7802 25.7282 45.0512 26.4571C44.3223 27.1862 43.1371 27.1851 42.4091 26.4571C41.9509 25.999 41.7645 25.3544 41.9097 24.7313C41.9617 24.5086 41.8596 24.279 41.6595 24.1681C41.4603 24.0583 41.2111 24.0916 41.0492 24.2525L35.2988 30.003L30.4 25.1051C30.9033 24.9815 31.3703 24.7225 31.752 24.3408C32.8793 23.2125 32.8774 21.3758 31.7471 20.2446C30.6188 19.1183 28.7841 19.1183 27.6568 20.2446C27.2751 20.6263 27.0151 21.0943 26.8925 21.5976L21.9937 16.6988L26.8905 11.8019C27.0141 12.3023 27.2741 12.7703 27.6568 13.153C28.7841 14.2793 30.6188 14.2793 31.7471 13.152C32.8744 12.0247 32.8744 10.1899 31.7471 9.06168C31.3645 8.67902 30.8974 8.41901 30.3961 8.29541L35.2929 3.39855L48.598 16.7037L42.8476 22.4541ZM16.3446 49.6812C16.4407 49.7774 16.5712 49.8313 16.7066 49.8313C16.842 49.8313 16.9725 49.7774 17.0687 49.6812L22.3275 44.4224C22.4512 44.9237 22.7112 45.3908 23.0928 45.7734C24.2211 46.8997 26.0558 46.8997 27.1832 45.7734H27.1842C28.3115 44.6461 28.3115 42.8104 27.1842 41.682C26.8015 41.3004 26.3345 41.0404 25.8331 40.9168L31.092 35.6579C31.1881 35.5618 31.2421 35.4313 31.2421 35.2959C31.2421 35.1605 31.1881 35.03 31.092 34.9338L25.8312 29.673C26.3345 29.5504 26.8025 29.2904 27.1842 28.9087C28.3115 27.7814 28.3085 25.9437 27.1783 24.8134C26.0509 23.6861 24.2162 23.6861 23.0879 24.8134C22.7063 25.1951 22.4472 25.6631 22.3236 26.1665L17.0628 20.9047C16.8705 20.7133 16.531 20.7133 16.3387 20.9047L11.0808 26.1645C10.9572 25.6631 10.6972 25.1951 10.3146 24.8134C9.18724 23.6861 7.35251 23.6852 6.22422 24.8134C5.67675 25.3599 5.37553 26.086 5.37553 26.8591C5.37553 27.6303 5.67675 28.3563 6.22422 28.9038C6.60589 29.2855 7.0729 29.5465 7.57426 29.6701L2.3154 34.928C2.11622 35.1281 2.11622 35.4519 2.3154 35.652L16.3446 49.6812ZM9.15193 29.5405C9.31381 29.3787 9.34815 29.1295 9.23727 28.9293C9.12642 28.7301 8.89781 28.6281 8.6741 28.6801C8.04913 28.8263 7.4055 28.6379 6.94731 28.1797C6.5941 27.8255 6.39984 27.3566 6.39984 26.8591C6.39984 26.3598 6.5941 25.8908 6.9483 25.5376C7.65373 24.8302 8.88407 24.8302 9.59048 25.5376C10.0487 25.9957 10.2351 26.6403 10.0909 27.2633C10.0389 27.486 10.1409 27.7156 10.3401 27.8265C10.5392 27.9383 10.7885 27.9031 10.9513 27.7422L16.7007 21.9908L22.4512 27.7422C22.614 27.9031 22.8623 27.9374 23.0604 27.8275C23.2606 27.7176 23.3626 27.488 23.3126 27.2663C23.1703 26.6384 23.3568 25.9928 23.812 25.5376C24.541 24.8085 25.7262 24.8085 26.4542 25.5365C27.1861 26.2695 27.1881 27.4566 26.4601 28.1847C26.0048 28.6408 25.3573 28.8263 24.7313 28.684C24.5066 28.634 24.279 28.737 24.1701 28.9362C24.0592 29.1354 24.0946 29.3845 24.2555 29.5454L30.0059 35.2959L24.2555 41.0463C24.0936 41.2082 24.0592 41.4574 24.1701 41.6566C24.281 41.8557 24.5096 41.9607 24.7333 41.9067C25.3553 41.7616 26.0009 41.948 26.4601 42.4071C26.8133 42.7603 27.0085 43.2293 27.0085 43.7277C27.0085 44.2261 26.8133 44.6961 26.4601 45.0493C25.7311 45.7783 24.5459 45.7783 23.8179 45.0493C23.3587 44.5911 23.1723 43.9455 23.3175 43.3225C23.3695 43.1008 23.2675 42.8702 23.0673 42.7593C22.8681 42.6475 22.6189 42.6838 22.457 42.8447L16.7066 48.5951L3.4015 35.29L9.15193 29.5405ZM15.3937 15.2091C15.5242 15.2091 15.6557 15.1591 15.7557 15.0591C15.9559 14.8589 15.9559 14.5352 15.7557 14.335L13.4677 12.0479C13.2686 11.8488 12.9438 11.8478 12.7437 12.0479C12.5445 12.2481 12.5445 12.5719 12.7446 12.7721L15.0317 15.0591C15.1317 15.1591 15.2632 15.2091 15.3937 15.2091ZM16.6364 8.96203C16.3577 9.01114 16.1723 9.27702 16.2223 9.55566L16.8287 12.9661C16.8728 13.2143 17.0887 13.3889 17.332 13.3889C17.3615 13.3889 17.3919 13.386 17.4223 13.3801C17.6999 13.331 17.8854 13.0651 17.8363 12.7865L17.23 9.37613C17.1799 9.09743 16.914 8.91496 16.6364 8.96203ZM9.72962 15.2536C9.45392 15.2056 9.18509 15.3901 9.13603 15.6677C9.08697 15.9464 9.27241 16.2123 9.55006 16.2613L12.9615 16.8676C12.9919 16.8725 13.0213 16.8755 13.0517 16.8755C13.295 16.8755 13.5109 16.7018 13.555 16.4536C13.6041 16.1749 13.4187 15.9091 13.141 15.86L9.72962 15.2536ZM35.4345 34.9889C35.2343 35.1891 35.2343 35.5129 35.4345 35.713L37.7225 38C37.8226 38.0992 37.9531 38.1502 38.0845 38.1502C38.215 38.1502 38.3465 38.0992 38.4466 37.9991C38.6457 37.7999 38.6457 37.4761 38.4456 37.276L36.1586 34.9889C35.9594 34.7888 35.6346 34.7888 35.4345 34.9889ZM33.7683 36.6671C33.4897 36.7162 33.3042 36.9821 33.3543 37.2607L33.9606 40.6712C34.0048 40.9194 34.2206 41.094 34.464 41.094C34.4934 41.094 34.5238 41.0911 34.5542 41.0852C34.8319 41.0361 35.0173 40.7702 34.9683 40.4916L34.3619 37.0812C34.3119 36.8035 34.047 36.618 33.7683 36.6671ZM41.5508 34.802C41.7941 34.802 42.0099 34.6274 42.0541 34.3792C42.1031 34.1015 41.9187 33.8356 41.6401 33.7856L38.2287 33.1803C37.95 33.1312 37.6851 33.3157 37.6351 33.5943C37.586 33.8729 37.7715 34.1388 38.0501 34.1879L41.4605 34.7942C41.4909 34.7991 41.5213 34.802 41.5508 34.802Z" fill="#972D9E"/>
</svg>
