<svg width="51" height="51" viewBox="0 0 51 51" fill="none" xmlns="http://www.w3.org/2000/svg">
<path d="M31.2609 18.7404C30.5872 18.5491 29.8798 18.5082 29.1886 18.6205C28.4974 18.7328 27.8393 18.9956 27.2609 19.3904C26.6525 19.8678 26.1576 20.4741 25.8118 21.1658C25.4659 21.8575 25.2778 22.6172 25.2609 23.3904C25.1977 24.7603 25.295 26.133 25.5509 27.4804C25.5813 27.6463 25.6691 27.7963 25.7989 27.9041C25.9286 28.0119 26.0921 28.0708 26.2609 28.0704H26.3909C26.4893 28.0561 26.5839 28.0218 26.6686 27.9696C26.7533 27.9174 26.8265 27.8485 26.8837 27.767C26.9408 27.6855 26.9806 27.5932 27.0008 27.4958C27.021 27.3983 27.021 27.2978 27.0009 27.2004C26.7599 25.9659 26.6726 24.7063 26.7409 23.4504C26.7388 22.9134 26.8499 22.3821 27.067 21.891C27.2842 21.4 27.6023 20.9602 28.0009 20.6004C28.4121 20.3171 28.8815 20.1296 29.3748 20.0517C29.868 19.9739 30.3724 20.0076 30.8509 20.1504C31.0378 20.2007 31.2372 20.1748 31.405 20.0782C31.5729 19.9816 31.6955 19.8223 31.7459 19.6354C31.7963 19.4484 31.7703 19.249 31.6737 19.0812C31.5771 18.9133 31.4178 18.7907 31.2309 18.7404H31.2609Z" fill="#972D9E"/>
<path d="M47.2 16.4601C46.2858 15.4557 45.1033 14.7336 43.7921 14.3793C42.4809 14.0249 41.0958 14.053 39.8 14.4601V5.14012C39.8 4.17647 39.4179 3.25213 38.7374 2.56978C38.0569 1.88744 37.1337 1.50277 36.17 1.50012H5.17C4.68947 1.49616 4.21291 1.58739 3.76782 1.76854C3.32272 1.9497 2.91791 2.21719 2.57672 2.55559C2.23553 2.89399 1.96472 3.2966 1.77992 3.74019C1.59512 4.18378 1.49998 4.65958 1.5 5.14012V45.8601C1.5 46.8255 1.8835 47.7514 2.56613 48.434C3.24876 49.1166 4.17461 49.5001 5.14 49.5001H36.14C37.1037 49.4975 38.0269 49.1128 38.7074 48.4305C39.3879 47.7481 39.77 46.8238 39.77 45.8601V44.8601C39.782 44.7578 39.7723 44.654 39.7413 44.5557C39.7104 44.4574 39.659 44.3667 39.5905 44.2897C39.522 44.2127 39.438 44.1511 39.344 44.1089C39.25 44.0667 39.1481 44.0448 39.045 44.0448C38.9419 44.0448 38.84 44.0667 38.746 44.1089C38.652 44.1511 38.568 44.2127 38.4995 44.2897C38.431 44.3667 38.3796 44.4574 38.3487 44.5557C38.3177 44.654 38.308 44.7578 38.32 44.8601V45.8601C38.32 46.4392 38.0906 46.9947 37.6821 47.4052C37.2736 47.8156 36.7191 48.0475 36.14 48.0501H5.14C4.56705 48.0396 4.02128 47.8039 3.62079 47.3941C3.22029 46.9842 2.99727 46.4332 3 45.8601V5.14012C3.01026 4.57577 3.23902 4.0374 3.63815 3.63827C4.03727 3.23915 4.57565 3.01039 5.14 3.00012H11.2V5.14012C11.2026 6.10205 11.5859 7.02382 12.2661 7.70401C12.9463 8.38419 13.8681 8.76749 14.83 8.77012H26.47C27.4337 8.77013 28.358 8.388 29.0403 7.70753C29.7227 7.02706 30.1074 6.10378 30.11 5.14012V3.00012H36.17C36.7491 3.00277 37.3036 3.23467 37.7121 3.64508C38.1206 4.0555 38.35 4.61103 38.35 5.19012V14.9701C37.2843 15.3995 36.2765 15.9606 35.35 16.6401C33.4319 15.2003 31.1417 14.3397 28.75 14.1601C27.7122 14.1409 26.6818 14.3382 25.7245 14.7393C24.7672 15.1405 23.904 15.7368 23.19 16.4901C21.19 18.4901 20.71 21.9201 20.9 24.2701C21.48 31.0001 24 37.7601 27.41 42.0001C27.5983 42.2385 27.8385 42.4308 28.1123 42.5625C28.386 42.6942 28.6862 42.7618 28.99 42.7601C29.1966 42.7596 29.402 42.7293 29.6 42.6701C30.0062 42.5451 30.3654 42.301 30.6311 41.9693C30.8968 41.6376 31.0567 41.2338 31.09 40.8101C31.65 34.6601 34.09 32.0001 35.2 32.0001C36.31 32.0001 38.75 34.6601 39.31 40.8001C39.3427 41.2251 39.5022 41.6305 39.7679 41.9639C40.0335 42.2973 40.393 42.5433 40.8 42.6701C41.1911 42.7984 41.6122 42.8029 42.0059 42.683C42.3997 42.563 42.7468 42.3246 43 42.0001C46.44 37.8001 48.91 31.0001 49.46 24.2701C49.66 21.7901 49 18.4501 47.2 16.4601ZM28.65 5.14012C28.6474 5.71748 28.4168 6.27045 28.0086 6.67871C27.6003 7.08697 27.0474 7.31749 26.47 7.32012H14.83C14.2526 7.31749 13.6997 7.08697 13.2914 6.67871C12.8832 6.27045 12.6526 5.71748 12.65 5.14012V3.00012H28.65V5.14012ZM48 24.1001C47.48 30.5701 45.12 37.0501 41.86 41.0201C41.7868 41.1182 41.6849 41.1911 41.5685 41.2288C41.452 41.2664 41.3267 41.2669 41.21 41.2301C41.081 41.1862 40.9683 41.1046 40.8862 40.9958C40.8042 40.8871 40.7568 40.7562 40.75 40.6201C40.15 34.0001 37.44 30.5001 35.2 30.5001C32.96 30.5001 30.2 34.0501 29.64 40.6201C29.6354 40.7582 29.5875 40.8913 29.5032 41.0008C29.4189 41.1102 29.3023 41.1904 29.17 41.2301C29.055 41.2693 28.9303 41.27 28.8149 41.2321C28.6994 41.1942 28.5995 41.1198 28.53 41.0201C25.26 37.0201 22.91 30.5701 22.38 24.1001C22.2 21.9001 22.71 18.9901 24.24 17.4701C24.8025 16.8715 25.4809 16.3935 26.2338 16.0652C26.9867 15.7369 27.7986 15.565 28.62 15.5601H28.75C33.13 15.6501 37.35 20.1601 37.4 20.2101C37.4638 20.2866 37.5426 20.3493 37.6315 20.3942C37.7204 20.4392 37.8176 20.4654 37.9171 20.4713C38.0165 20.4773 38.1162 20.4628 38.2098 20.4288C38.3035 20.3948 38.3892 20.342 38.4616 20.2737C38.5341 20.2053 38.5918 20.1228 38.6312 20.0313C38.6706 19.9398 38.6908 19.8412 38.6907 19.7415C38.6905 19.6419 38.67 19.5434 38.6303 19.452C38.5906 19.3606 38.5327 19.2783 38.46 19.2101C37.878 18.6002 37.2566 18.029 36.6 17.5001C38.35 16.3001 42.83 13.8501 46.13 17.4301C47.67 19.1101 48.19 22.0001 48 24.1001Z" fill="#972D9E"/>
<path d="M11.74 15.5604H20.68C20.8736 15.5604 21.0593 15.4835 21.1962 15.3466C21.3331 15.2097 21.41 15.024 21.41 14.8304C21.41 14.735 21.391 14.6406 21.3542 14.5526C21.3174 14.4645 21.2635 14.3847 21.1956 14.3177C21.1277 14.2507 21.0471 14.1979 20.9586 14.1623C20.8701 14.1267 20.7754 14.1091 20.68 14.1104H11.74C11.549 14.1104 11.3659 14.1863 11.2309 14.3213C11.0958 14.4563 11.02 14.6395 11.02 14.8304C11.02 15.0223 11.0955 15.2065 11.2302 15.3431C11.365 15.4797 11.5481 15.5578 11.74 15.5604ZM7.86998 14.1104H6.86998C6.77459 14.1091 6.67989 14.1267 6.59138 14.1623C6.50286 14.1979 6.42231 14.2507 6.35439 14.3177C6.28647 14.3847 6.23254 14.4645 6.19573 14.5526C6.15892 14.6406 6.13997 14.735 6.13998 14.8304C6.13998 15.024 6.21689 15.2097 6.35379 15.3466C6.49069 15.4835 6.67637 15.5604 6.86998 15.5604H7.86998C8.06185 15.5578 8.24497 15.4797 8.37972 15.3431C8.51446 15.2065 8.59 15.0223 8.58998 14.8304C8.58998 14.7359 8.57136 14.6422 8.53517 14.5549C8.49899 14.4675 8.44596 14.3882 8.3791 14.3213C8.31224 14.2544 8.23287 14.2014 8.14551 14.1652C8.05816 14.129 7.96453 14.1104 7.86998 14.1104ZM11.74 22.3504H18C18.1936 22.3504 18.3793 22.2735 18.5162 22.1366C18.6531 21.9997 18.73 21.814 18.73 21.6204C18.73 21.4268 18.6531 21.2411 18.5162 21.1042C18.3793 20.9673 18.1936 20.8904 18 20.8904H11.74C11.5464 20.8904 11.3607 20.9673 11.2238 21.1042C11.0869 21.2411 11.01 21.4268 11.01 21.6204C11.01 21.814 11.0869 21.9997 11.2238 22.1366C11.3607 22.2735 11.5464 22.3504 11.74 22.3504ZM7.86998 20.8904H6.86998C6.67637 20.8904 6.49069 20.9673 6.35379 21.1042C6.21689 21.2411 6.13998 21.4268 6.13998 21.6204C6.13998 21.814 6.21689 21.9997 6.35379 22.1366C6.49069 22.2735 6.67637 22.3504 6.86998 22.3504H7.86998C8.06359 22.3504 8.24927 22.2735 8.38617 22.1366C8.52307 21.9997 8.59998 21.814 8.59998 21.6204C8.59998 21.4268 8.52307 21.2411 8.38617 21.1042C8.24927 20.9673 8.06359 20.8904 7.86998 20.8904ZM11.74 29.1404H18C18.1936 29.1404 18.3793 29.0635 18.5162 28.9266C18.6531 28.7897 18.73 28.604 18.73 28.4104C18.73 28.2168 18.6531 28.0311 18.5162 27.8942C18.3793 27.7573 18.1936 27.6804 18 27.6804H11.74C11.5464 27.6804 11.3607 27.7573 11.2238 27.8942C11.0869 28.0311 11.01 28.2168 11.01 28.4104C11.01 28.604 11.0869 28.7897 11.2238 28.9266C11.3607 29.0635 11.5464 29.1404 11.74 29.1404ZM7.86998 27.6804H6.86998C6.67637 27.6804 6.49069 27.7573 6.35379 27.8942C6.21689 28.0311 6.13998 28.2168 6.13998 28.4104C6.13998 28.604 6.21689 28.7897 6.35379 28.9266C6.49069 29.0635 6.67637 29.1404 6.86998 29.1404H7.86998C8.06359 29.1404 8.24927 29.0635 8.38617 28.9266C8.52307 28.7897 8.59998 28.604 8.59998 28.4104C8.59998 28.2168 8.52307 28.0311 8.38617 27.8942C8.24927 27.7573 8.06359 27.6804 7.86998 27.6804ZM11.74 35.9304H19.74C19.9336 35.9304 20.1193 35.8535 20.2562 35.7166C20.3931 35.5797 20.47 35.394 20.47 35.2004C20.47 35.0068 20.3931 34.8211 20.2562 34.6842C20.1193 34.5473 19.9336 34.4704 19.74 34.4704H11.74C11.5464 34.4704 11.3607 34.5473 11.2238 34.6842C11.0869 34.8211 11.01 35.0068 11.01 35.2004C11.01 35.394 11.0869 35.5797 11.2238 35.7166C11.3607 35.8535 11.5464 35.9304 11.74 35.9304ZM7.86998 34.4704H6.86998C6.67637 34.4704 6.49069 34.5473 6.35379 34.6842C6.21689 34.8211 6.13998 35.0068 6.13998 35.2004C6.13998 35.394 6.21689 35.5797 6.35379 35.7166C6.49069 35.8535 6.67637 35.9304 6.86998 35.9304H7.86998C8.06359 35.9304 8.24927 35.8535 8.38617 35.7166C8.52307 35.5797 8.59998 35.394 8.59998 35.2004C8.59998 35.0068 8.52307 34.8211 8.38617 34.6842C8.24927 34.5473 8.06359 34.4704 7.86998 34.4704ZM11.74 42.7104H23.59C23.6923 42.7225 23.7961 42.7127 23.8944 42.6818C23.9927 42.6508 24.0834 42.5994 24.1604 42.5309C24.2374 42.4624 24.299 42.3784 24.3412 42.2844C24.3835 42.1904 24.4053 42.0885 24.4053 41.9854C24.4053 41.8824 24.3835 41.7805 24.3412 41.6864C24.299 41.5924 24.2374 41.5084 24.1604 41.4399C24.0834 41.3714 23.9927 41.32 23.8944 41.2891C23.7961 41.2581 23.6923 41.2484 23.59 41.2604H11.74C11.5624 41.2813 11.3986 41.3667 11.2798 41.5003C11.1609 41.634 11.0953 41.8066 11.0953 41.9854C11.0953 42.1643 11.1609 42.3369 11.2798 42.4705C11.3986 42.6042 11.5624 42.6895 11.74 42.7104ZM7.86998 41.2604H6.86998C6.76762 41.2484 6.66388 41.2581 6.56557 41.2891C6.46725 41.32 6.37661 41.3714 6.29959 41.4399C6.22257 41.5084 6.16093 41.5924 6.11872 41.6864C6.07651 41.7805 6.05469 41.8824 6.05469 41.9854C6.05469 42.0885 6.07651 42.1904 6.11872 42.2844C6.16093 42.3784 6.22257 42.4624 6.29959 42.5309C6.37661 42.5994 6.46725 42.6508 6.56557 42.6818C6.66388 42.7127 6.76762 42.7225 6.86998 42.7104H7.86998C8.04759 42.6895 8.21136 42.6042 8.3302 42.4705C8.44904 42.3369 8.51469 42.1643 8.51469 41.9854C8.51469 41.8066 8.44904 41.634 8.3302 41.5003C8.21136 41.3667 8.04759 41.2813 7.86998 41.2604Z" fill="#972D9E"/>
</svg>
