<svg width="52" height="52" viewBox="0 0 52 52" fill="none" xmlns="http://www.w3.org/2000/svg">
<g clip-path="url(#clip0_1791_13749)">
<path d="M6.20789 40.1371C5.45137 40.1161 4.69834 40.2471 3.99328 40.5221C3.28823 40.7972 2.64546 41.2107 2.10297 41.7384C1.56048 42.2661 1.12927 42.8972 0.834822 43.5944C0.540377 44.2915 0.388672 45.0407 0.388672 45.7975C0.388672 46.5543 0.540377 47.3034 0.834822 48.0006C1.12927 48.6978 1.56048 49.3288 2.10297 49.8565C2.64546 50.3842 3.28823 50.7978 3.99328 51.0729C4.69834 51.3479 5.45137 51.4788 6.20789 51.4579C7.65955 51.4579 9.11122 50.9054 10.2162 49.8004C12.1662 47.8504 12.3829 44.8387 10.9096 42.6396L15.4596 38.0896C18.2871 40.5596 21.9704 42.0762 26.0112 42.0762C30.0521 42.0762 33.7354 40.5704 36.5629 38.0896L41.1129 42.6396C39.6287 44.8387 39.8562 47.8612 41.8062 49.8004C42.3322 50.3271 42.9571 50.7446 43.645 51.0291C44.3329 51.3135 45.0702 51.4592 45.8146 51.4579C46.7 51.4585 47.5733 51.2514 48.3642 50.8533C49.1551 50.4552 49.8416 49.8772 50.3686 49.1657C50.8957 48.4541 51.2485 47.6289 51.3987 46.7563C51.549 45.8837 51.4925 44.988 51.2339 44.1412C50.9752 43.2943 50.5216 42.52 49.9094 41.8802C49.2972 41.2405 48.5435 40.7533 47.7089 40.4577C46.8742 40.162 45.9819 40.0663 45.1035 40.178C44.2251 40.2898 43.3852 40.606 42.6512 41.1012L38.1012 36.5512C40.5712 33.7237 42.0879 30.0404 42.0879 25.9996C42.0879 21.9587 40.582 18.2754 38.1012 15.4479L42.6512 10.8979C43.6045 11.5371 44.7095 11.8621 45.8146 11.8621C46.5711 11.883 47.3241 11.7521 48.0292 11.477C48.7342 11.202 49.377 10.7884 49.9195 10.2607C50.462 9.73301 50.8932 9.10193 51.1876 8.40475C51.4821 7.70758 51.6338 6.95845 51.6338 6.20165C51.6338 5.44484 51.4821 4.69572 51.1876 3.99854C50.8932 3.30136 50.462 2.67028 49.9195 2.1426C49.377 1.61491 48.7342 1.20132 48.0292 0.92627C47.3241 0.651222 46.5711 0.520296 45.8146 0.541229C44.2979 0.541229 42.8787 1.12623 41.8062 2.19873C39.8562 4.14873 39.6395 7.1604 41.1129 9.35956L36.5629 13.9096C33.7354 11.4396 30.0521 9.9229 26.0112 9.9229C21.9704 9.9229 18.2871 11.4287 15.4596 13.9096L10.9096 9.35956C12.3937 7.1604 12.1662 4.1379 10.2162 2.19873C9.15172 1.13813 7.71056 0.542194 6.20789 0.541229C5.32243 0.540643 4.44918 0.747713 3.65826 1.14581C2.86735 1.5439 2.18081 2.12193 1.65379 2.83346C1.12677 3.545 0.773963 4.37021 0.623693 5.24282C0.473423 6.11543 0.529883 7.01112 0.788539 7.85795C1.04719 8.70478 1.50084 9.47915 2.11303 10.1189C2.72523 10.7586 3.47892 11.2458 4.31356 11.5415C5.14821 11.8371 6.04055 11.9329 6.91892 11.8211C7.79729 11.7093 8.63721 11.3931 9.37122 10.8979L13.9212 15.4479C11.4512 18.2754 9.93455 21.9587 9.93455 25.9996C9.93455 30.0404 11.4404 33.7237 13.9212 36.5512L9.37122 41.1012C8.43955 40.4729 7.34539 40.1371 6.20789 40.1371ZM8.67789 48.2729C8.35362 48.5974 7.96858 48.8549 7.54476 49.0306C7.12094 49.2062 6.66666 49.2966 6.20789 49.2966C5.74911 49.2966 5.29483 49.2062 4.87101 49.0306C4.44719 48.8549 4.06215 48.5974 3.73789 48.2729C3.41334 47.9486 3.15588 47.5636 2.98022 47.1398C2.80456 46.716 2.71415 46.2617 2.71415 45.8029C2.71415 45.3441 2.80456 44.8898 2.98022 44.466C3.15588 44.0422 3.41334 43.6572 3.73789 43.3329C4.06105 43.0064 4.44574 42.7472 4.86971 42.5703C5.29367 42.3934 5.7485 42.3024 6.20789 42.3024C6.66727 42.3024 7.1221 42.3934 7.54606 42.5703C7.97003 42.7472 8.35472 43.0064 8.67789 43.3329C9.00243 43.6572 9.25989 44.0422 9.43555 44.466C9.61121 44.8898 9.70162 45.3441 9.70162 45.8029C9.70162 46.2617 9.61121 46.716 9.43555 47.1398C9.25989 47.5636 9.00243 47.9486 8.67789 48.2729ZM16.6079 36.2154C17.4421 31.7521 21.4179 28.4154 26.0004 28.4154C30.5829 28.4154 34.5695 31.7412 35.4037 36.2154C32.9229 38.4904 29.6296 39.8987 26.0112 39.8987C22.3712 39.8987 19.0779 38.5012 16.6079 36.2154ZM26.0004 26.2596C23.3137 26.2596 21.1254 24.0712 21.1254 21.3846C21.1254 18.6979 23.3137 16.5096 26.0004 16.5096C28.6871 16.5096 30.8754 18.6979 30.8754 21.3846C30.8754 24.0712 28.6871 26.2596 26.0004 26.2596ZM48.2629 43.3221C48.5874 43.6463 48.8449 44.0314 49.0205 44.4552C49.1962 44.879 49.2866 45.3333 49.2866 45.7921C49.2866 46.2508 49.1962 46.7051 49.0205 47.1289C48.8449 47.5528 48.5874 47.9378 48.2629 48.2621C47.9386 48.5866 47.5536 48.8441 47.1298 49.0197C46.7059 49.1954 46.2517 49.2858 45.7929 49.2858C45.3341 49.2858 44.8798 49.1954 44.456 49.0197C44.0322 48.8441 43.6471 48.5866 43.3229 48.2621C42.9983 47.9378 42.7409 47.5528 42.5652 47.1289C42.3896 46.7051 42.2991 46.2508 42.2991 45.7921C42.2991 45.3333 42.3896 44.879 42.5652 44.4552C42.7409 44.0314 42.9983 43.6463 43.3229 43.3221C44.6446 42.0004 46.9412 42.0004 48.2629 43.3221ZM43.3229 3.73706C43.646 3.41057 44.0307 3.15138 44.4547 2.97449C44.8787 2.79761 45.3335 2.70653 45.7929 2.70653C46.2523 2.70653 46.7071 2.79761 47.1311 2.97449C47.555 3.15138 47.9397 3.41057 48.2629 3.73706C48.5874 4.06133 48.8449 4.44637 49.0205 4.87019C49.1962 5.294 49.2866 5.74829 49.2866 6.20706C49.2866 6.66584 49.1962 7.12012 49.0205 7.54394C48.8449 7.96776 48.5874 8.3528 48.2629 8.67706C47.9386 9.00161 47.5536 9.25907 47.1298 9.43473C46.7059 9.61039 46.2517 9.7008 45.7929 9.7008C45.3341 9.7008 44.8798 9.61039 44.456 9.43473C44.0322 9.25907 43.6471 9.00161 43.3229 8.67706C42.9983 8.3528 42.7409 7.96776 42.5652 7.54394C42.3896 7.12012 42.2991 6.66584 42.2991 6.20706C42.2991 5.74829 42.3896 5.294 42.5652 4.87019C42.7409 4.44637 42.9983 4.06133 43.3229 3.73706ZM3.73789 8.67706C3.41334 8.3528 3.15588 7.96776 2.98022 7.54394C2.80456 7.12012 2.71415 6.66584 2.71415 6.20706C2.71415 5.74829 2.80456 5.294 2.98022 4.87019C3.15588 4.44637 3.41334 4.06133 3.73789 3.73706C4.38789 3.07623 5.27622 2.7079 6.20789 2.7079C7.13955 2.7079 8.01705 3.07623 8.67789 3.73706C9.00243 4.06133 9.25989 4.44637 9.43555 4.87019C9.61121 5.294 9.70162 5.74829 9.70162 6.20706C9.70162 6.66584 9.61121 7.12012 9.43555 7.54394C9.25989 7.96776 9.00243 8.3528 8.67789 8.67706C8.35362 9.00161 7.96858 9.25907 7.54476 9.43473C7.12094 9.61039 6.66666 9.7008 6.20789 9.7008C5.74911 9.7008 5.29483 9.61039 4.87101 9.43473C4.44719 9.25907 4.06215 9.00161 3.73789 8.67706ZM26.0004 12.1004C33.6704 12.1004 39.8996 18.3404 39.8996 25.9996C39.8996 29.1087 38.8596 31.9687 37.1262 34.2871C36.0104 30.9396 33.4104 28.2854 30.1712 27.0287C31.9046 25.7396 33.042 23.6921 33.042 21.3737C33.042 17.4846 29.8787 14.3321 26.0004 14.3321C22.1221 14.3321 18.9587 17.4954 18.9587 21.3737C18.9587 23.6921 20.0854 25.7504 21.8296 27.0287C18.5904 28.2746 15.9904 30.9396 14.8746 34.2871C13.1412 31.9687 12.1012 29.1087 12.1012 25.9996C12.1012 18.3404 18.3304 12.1004 26.0004 12.1004Z" fill="#972D9E"/>
</g>
<defs>
<clipPath id="clip0_1791_13749">
<rect width="52" height="52" fill="white"/>
</clipPath>
</defs>
</svg>
