<svg width="52" height="52" viewBox="0 0 52 52" fill="none" xmlns="http://www.w3.org/2000/svg">
<path d="M26.0008 34.125C15.2758 34.125 15.2758 17.875 26.0008 17.875C36.6039 17.875 37.0622 34.125 26.0008 34.125ZM26.0008 21.125C19.5008 21.125 19.5008 30.875 26.0008 30.875C32.5008 30.875 32.5008 21.125 26.0008 21.125Z" fill="#972D9E"/>
<path d="M25.9999 40.625C17.9578 40.625 10.2569 36.3529 4.87488 28.9022C4.26304 28.0582 3.93359 27.0424 3.93359 26C3.93359 24.9576 4.26304 23.9418 4.87488 23.0977C10.2569 15.6471 17.9578 11.375 25.9999 11.375C34.042 11.375 41.7429 15.6471 47.1249 23.0977C47.7367 23.9418 48.0662 24.9576 48.0662 26C48.0662 27.0424 47.7367 28.0582 47.1249 28.9022C41.7429 36.3529 34.042 40.625 25.9999 40.625ZM7.5025 26.9978C12.3418 33.6895 18.91 37.375 25.9999 37.375C33.0898 37.375 39.658 33.6895 44.4973 26.9978C44.7078 26.7074 44.8211 26.3579 44.8211 25.9992C44.8211 25.6405 44.7078 25.291 44.4973 25.0006C39.658 18.3105 33.0898 14.625 25.9999 14.625C18.91 14.625 12.3418 18.3105 7.5025 25.0022C7.292 25.2926 7.17864 25.6421 7.17864 26.0008C7.17864 26.3595 7.292 26.7074 7.5025 26.9978Z" fill="#972D9E"/>
</svg>
