<svg width="40" height="41" viewBox="0 0 40 41" fill="none" xmlns="http://www.w3.org/2000/svg">
<path d="M20.0007 36.6107C22.3018 36.6107 24.1673 34.7452 24.1673 32.444C24.1673 30.1428 22.3018 28.2773 20.0007 28.2773C17.6995 28.2773 15.834 30.1428 15.834 32.444C15.834 34.7452 17.6995 36.6107 20.0007 36.6107Z" fill="#689F38"/>
<path d="M20.0002 30.2876C25.2525 30.2876 29.5102 26.0298 29.5102 20.7776C29.5102 15.5254 25.2525 11.2676 20.0002 11.2676C14.748 11.2676 10.4902 15.5254 10.4902 20.7776C10.4902 26.0298 14.748 30.2876 20.0002 30.2876Z" fill="#689F38"/>
<path d="M20.0007 13.2767C22.3018 13.2767 24.1673 11.4112 24.1673 9.11003C24.1673 6.80884 22.3018 4.94336 20.0007 4.94336C17.6995 4.94336 15.834 6.80884 15.834 9.11003C15.834 11.4112 17.6995 13.2767 20.0007 13.2767Z" fill="#689F38"/>
<path d="M25.8327 35.0482C28.1339 35.0482 29.9993 33.1827 29.9993 30.8815C29.9993 28.5803 28.1339 26.7148 25.8327 26.7148C23.5315 26.7148 21.666 28.5803 21.666 30.8815C21.666 33.1827 23.5315 35.0482 25.8327 35.0482Z" fill="#689F38"/>
<path d="M14.1667 14.8411C16.4679 14.8411 18.3333 12.9757 18.3333 10.6745C18.3333 8.37329 16.4679 6.50781 14.1667 6.50781C11.8655 6.50781 10 8.37329 10 10.6745C10 12.9757 11.8655 14.8411 14.1667 14.8411Z" fill="#689F38"/>
<path d="M30.1042 30.7767C32.4054 30.7767 34.2708 28.9112 34.2708 26.61C34.2708 24.3088 32.4054 22.4434 30.1042 22.4434C27.803 22.4434 25.9375 24.3088 25.9375 26.61C25.9375 28.9112 27.803 30.7767 30.1042 30.7767Z" fill="#689F38"/>
<path d="M9.89714 19.1107C12.1983 19.1107 14.0638 17.2452 14.0638 14.944C14.0638 12.6428 12.1983 10.7773 9.89714 10.7773C7.59595 10.7773 5.73047 12.6428 5.73047 14.944C5.73047 17.2452 7.59595 19.1107 9.89714 19.1107Z" fill="#689F38"/>
<path d="M31.6667 24.9447C33.9679 24.9447 35.8333 23.0792 35.8333 20.778C35.8333 18.4768 33.9679 16.6113 31.6667 16.6113C29.3655 16.6113 27.5 18.4768 27.5 20.778C27.5 23.0792 29.3655 24.9447 31.6667 24.9447Z" fill="#689F38"/>
<path d="M8.33268 24.9447C10.6339 24.9447 12.4993 23.0792 12.4993 20.778C12.4993 18.4768 10.6339 16.6113 8.33268 16.6113C6.0315 16.6113 4.16602 18.4768 4.16602 20.778C4.16602 23.0792 6.0315 24.9447 8.33268 24.9447Z" fill="#689F38"/>
<path d="M30.1042 19.1107C32.4054 19.1107 34.2708 17.2452 34.2708 14.944C34.2708 12.6428 32.4054 10.7773 30.1042 10.7773C27.803 10.7773 25.9375 12.6428 25.9375 14.944C25.9375 17.2452 27.803 19.1107 30.1042 19.1107Z" fill="#689F38"/>
<path d="M9.89714 30.7767C12.1983 30.7767 14.0638 28.9112 14.0638 26.61C14.0638 24.3088 12.1983 22.4434 9.89714 22.4434C7.59595 22.4434 5.73047 24.3088 5.73047 26.61C5.73047 28.9112 7.59595 30.7767 9.89714 30.7767Z" fill="#689F38"/>
<path d="M25.8327 14.8411C28.1339 14.8411 29.9993 12.9757 29.9993 10.6745C29.9993 8.37329 28.1339 6.50781 25.8327 6.50781C23.5315 6.50781 21.666 8.37329 21.666 10.6745C21.666 12.9757 23.5315 14.8411 25.8327 14.8411Z" fill="#689F38"/>
<path d="M14.1667 35.0482C16.4679 35.0482 18.3333 33.1827 18.3333 30.8815C18.3333 28.5803 16.4679 26.7148 14.1667 26.7148C11.8655 26.7148 10 28.5803 10 30.8815C10 33.1827 11.8655 35.0482 14.1667 35.0482Z" fill="#689F38"/>
<path d="M18.3326 27.3021L12.1543 21.1229L14.511 18.7663L18.3326 22.5871L26.321 14.5996L28.6776 16.9563L18.3326 27.3021Z" fill="white"/>
</svg>
