<svg width="40" height="41" viewBox="0 0 40 41" fill="none" xmlns="http://www.w3.org/2000/svg">
<path d="M36.3758 12.4799L26.6792 11.9022C26.1016 11.861 25.7715 12.5212 26.1428 12.975L28.5773 15.9872C28.8249 16.276 28.7423 16.6886 28.4948 16.895L21.3564 22.5891C21.0676 22.7954 20.6962 22.7954 20.4487 22.5066L17.4365 19.0406L16.5287 18.009C16.2812 17.7202 15.8686 17.7202 15.621 17.9265L14.672 18.7105L3.24235 28.5309C2.99477 28.7372 2.95351 29.1085 3.11856 29.3974C3.32487 29.6862 3.69623 29.7687 3.98507 29.6037L14.9608 23.3318C15.2496 23.1668 15.5797 23.2493 15.786 23.4556L19.087 27.2105L19.9948 28.242C20.2423 28.4896 20.6137 28.5309 20.9025 28.3246L21.9754 27.4581L31.0943 20.0721C31.3831 19.8246 31.7957 19.9071 32.002 20.1547L34.4365 23.1668C34.8079 23.6207 35.5093 23.4144 35.5919 22.8367L37.036 13.2226C37.036 12.8513 36.7472 12.4799 36.3758 12.4799Z" fill="#4FD3C4"/>
</svg>
