<svg width="31" height="16" viewBox="0 0 31 16" fill="none" xmlns="http://www.w3.org/2000/svg">
<path d="M6.31603 11.3466C6.32421 11.3466 6.32421 11.3466 6.31603 11.3466V11.3466ZM6.48771 12.2132C6.56946 12.2459 6.68392 12.2867 6.82289 12.3276C6.83107 12.3276 6.83924 12.3358 6.84742 12.3358C6.89647 12.3521 6.95369 12.3685 7.00275 12.3767C7.0191 12.3767 7.03545 12.3848 7.04362 12.3848C7.09267 12.4012 7.14172 12.4094 7.19895 12.4176C7.2153 12.4176 7.23983 12.4257 7.25618 12.4257C7.30523 12.4339 7.36245 12.4421 7.41968 12.4584C7.43603 12.4584 7.46055 12.4666 7.4769 12.4666C7.53413 12.4748 7.59136 12.483 7.64858 12.4911C7.66493 12.4911 7.68946 12.4911 7.70581 12.4993C7.77121 12.5075 7.82843 12.5075 7.89384 12.5157C7.97559 12.5238 8.04916 12.5238 8.13092 12.5238C10.1829 12.5238 11.0985 11.2894 11.0985 10.0631C11.0985 9.09844 10.5017 8.31363 9.54521 8.01115C9.9458 7.82312 10.2565 7.56969 10.469 7.25086C10.6897 6.93203 10.796 6.57233 10.796 6.17174C10.796 5.19073 10.0684 4.19336 8.44157 4.19336C8.28624 4.19336 8.13091 4.20154 7.97559 4.22606C7.96741 4.22606 7.95106 4.22606 7.94289 4.23424C7.87749 4.24241 7.81208 4.25059 7.75486 4.26694C7.73851 4.26694 7.72216 4.27511 7.70581 4.27511C7.64858 4.28329 7.59136 4.29964 7.53413 4.30781C7.51778 4.30781 7.5096 4.31599 7.49325 4.31599C7.43603 4.33234 7.37063 4.34869 7.3134 4.36504C7.30523 4.36504 7.30523 4.36504 7.29705 4.37321C7.10085 4.43044 6.91282 4.50401 6.74114 4.58577C6.49589 4.70022 6.38961 4.98635 6.49589 5.23978L6.50406 5.25613C6.56129 5.37875 6.65939 5.47686 6.78202 5.52591C6.91282 5.57496 7.04362 5.57496 7.16625 5.51773C7.17442 5.50956 7.19077 5.50956 7.20712 5.50138C7.26435 5.47686 7.32158 5.45233 7.38698 5.42781C7.40333 5.41963 7.42785 5.41146 7.45238 5.40328C7.51778 5.37875 7.58318 5.3624 7.64858 5.34605C7.66493 5.33788 7.68946 5.33788 7.71398 5.3297C7.78756 5.31335 7.86113 5.297 7.93471 5.28883C7.95106 5.28883 7.97559 5.28065 7.99194 5.28065C8.05734 5.27248 8.13092 5.2643 8.19632 5.2643C8.20449 5.2643 8.22084 5.2643 8.22902 5.2643C9.02201 5.2643 9.49616 5.66488 9.49616 6.34342C9.49616 7.24269 8.51515 7.56152 7.85296 7.56152H7.65676C7.3788 7.56152 7.1499 7.79042 7.1499 8.06838C7.1499 8.34633 7.3788 8.57523 7.65676 8.57523H7.85296C8.73587 8.57523 9.76594 8.95947 9.77412 10.0386C9.78229 10.3983 9.64332 10.7498 9.40624 10.9951C9.11193 11.2976 8.67865 11.4447 8.10639 11.4447C8.09004 11.4447 8.08186 11.4447 8.07369 11.4447C7.98376 11.4447 7.89384 11.4365 7.80391 11.4284C7.78756 11.4284 7.76303 11.4284 7.74668 11.4202C7.65676 11.412 7.56683 11.3957 7.4769 11.3711C7.45238 11.363 7.43603 11.363 7.4115 11.3548C7.32975 11.3384 7.25618 11.3139 7.17442 11.2894C7.1499 11.2812 7.1172 11.273 7.09267 11.2649C7.02727 11.2403 6.97004 11.224 6.91282 11.1995C6.89647 11.1913 6.88012 11.1913 6.86377 11.1831C6.75749 11.1422 6.64304 11.1422 6.53676 11.1749C6.53676 11.1749 6.53676 11.1749 6.54494 11.1749C6.53676 11.1749 6.53676 11.1749 6.52859 11.1749C6.43866 11.1995 6.35691 11.2567 6.29968 11.3303C6.29968 11.3384 6.29151 11.3384 6.29151 11.3466V11.3384C6.25881 11.3793 6.23428 11.4202 6.20976 11.4692L6.18523 11.5428C6.10348 11.8044 6.22611 12.1069 6.48771 12.2132ZM10.7143 6.76035C10.608 7.12006 10.3873 7.43072 10.0848 7.68414C10.3873 7.43072 10.5998 7.12006 10.7143 6.76035ZM14.9653 12.5238C16.7312 12.5238 17.6795 11.0441 17.6795 9.65435C17.6795 8.07655 16.6821 7.01378 15.2024 7.01378C14.5157 7.01378 13.8944 7.25904 13.4366 7.71684C13.4693 7.58604 13.502 7.46342 13.5429 7.34896C13.551 7.34079 13.551 7.32444 13.5592 7.31626C13.6001 7.20181 13.6491 7.09553 13.6982 6.99743C14.017 6.3516 14.5484 5.86109 15.2269 5.57496C15.3414 5.52591 15.4558 5.48503 15.5785 5.45233C15.5866 5.45233 15.603 5.44416 15.6112 5.44416C15.742 5.40328 15.8809 5.37876 16.0199 5.35423C16.1262 5.33788 16.2325 5.32153 16.3388 5.31335C16.5922 5.28883 16.7966 5.07627 16.7966 4.81467V4.76562C16.7966 4.61847 16.7393 4.48767 16.6331 4.38956C16.6085 4.36504 16.5758 4.34869 16.5431 4.32416C16.5431 4.32416 16.5431 4.32416 16.535 4.32416C16.5104 4.30781 16.4777 4.29964 16.445 4.28329C16.4369 4.28329 16.4287 4.28329 16.4287 4.27511C16.4042 4.26694 16.3715 4.25876 16.3469 4.25876C16.3388 4.25876 16.3306 4.25876 16.3224 4.25876C16.3061 4.25876 16.2979 4.25876 16.2815 4.25876C16.2652 4.25876 16.2407 4.25876 16.2243 4.25876C16.1507 4.26694 16.0772 4.27511 16.0118 4.28329C14.998 4.40591 14.1069 4.81467 13.4366 5.46868C12.5618 6.34342 12.0795 7.62692 12.0795 9.08209C12.0877 11.1749 13.2159 12.5238 14.9653 12.5238ZM16.2897 4.24241C16.2979 4.24241 16.3061 4.24241 16.3061 4.24241C16.2897 4.24241 16.2652 4.24241 16.2488 4.24241C16.2652 4.24241 16.2734 4.24241 16.2897 4.24241ZM13.4611 8.93494C13.7391 8.38721 14.3031 8.0275 14.8836 8.0275C15.8155 8.0275 16.396 8.67334 16.396 9.71975C16.396 10.7825 15.8237 11.4938 14.9735 11.4938C14.0007 11.4938 13.3794 10.6762 13.3548 9.35187C13.3467 9.18837 13.3875 9.05757 13.4611 8.93494ZM21.0068 12.5238C22.8053 12.5238 23.8435 10.9787 23.8435 8.27275C23.8435 5.68124 22.8625 4.19336 21.1376 4.19336C19.3881 4.19336 18.3008 5.79569 18.3008 8.37903C18.3253 10.9378 19.3636 12.5238 21.0068 12.5238ZM21.0803 5.2316C22.372 5.2316 22.5682 7.16911 22.5682 8.3218C22.5682 9.5072 22.372 11.4856 21.0722 11.4856C20.1565 11.4856 19.5843 10.3002 19.5843 8.39538C19.5761 6.4497 20.1565 5.2316 21.0803 5.2316Z" fill="#344054"/>
<path d="M27.4152 6.79354C27.6605 6.70361 27.9057 6.62186 28.151 6.53194C28.9522 6.24581 28.6088 4.97048 27.7995 5.24844C26.8838 5.57544 25.9601 5.89427 25.0444 6.22128C24.6847 6.34391 24.3659 6.82624 24.6439 7.19412C25.2243 7.96259 25.8129 8.73105 26.3933 9.49951C26.9002 10.1699 28.0529 9.50769 27.5379 8.82915C27.3253 8.5512 27.1127 8.27324 26.9084 7.99529C27.8322 8.47762 28.7233 9.1725 28.8377 10.0718C29.0421 11.6414 26.8348 12.7042 25.6903 13.1783C24.3904 13.7097 22.9843 13.9795 21.5945 14.192C17.695 14.7888 13.7055 14.8052 9.7978 14.3555C8.4489 14.2002 7.09183 13.9795 5.78381 13.6198C4.27958 13.2029 2.0723 12.3935 1.43464 10.7912C0.756099 9.06623 3.42119 7.82361 4.69652 7.3985C5.50586 7.12872 5.15432 5.84522 4.34499 6.115C2.63638 6.68726 0.322816 7.88901 0.0285111 9.86739C-0.208568 11.4615 1.07493 12.7859 2.31755 13.5707C3.88718 14.5517 5.71023 15.0423 7.52511 15.3611C12.0296 16.1541 16.6731 16.1868 21.2021 15.5818C22.9761 15.3447 24.7501 15.0177 26.4015 14.3065C27.9548 13.6361 29.8187 12.4998 30.1212 10.6686C30.4319 8.90273 28.9685 7.60288 27.4152 6.79354ZM24.9463 4.20202C26.099 4.20202 27.0473 3.26188 27.0473 2.10101C27.0473 0.948316 26.1072 0 24.9463 0C23.7936 0 22.8453 0.940141 22.8453 2.10101C22.8453 3.26188 23.7855 4.20202 24.9463 4.20202ZM24.9463 1.33255C25.3714 1.33255 25.7148 1.6759 25.7148 2.10101C25.7148 2.52612 25.3714 2.86947 24.9463 2.86947C24.5212 2.86947 24.1779 2.52612 24.1779 2.10101C24.1697 1.6759 24.5212 1.33255 24.9463 1.33255Z" fill="#344054"/>
</svg>
