<svg width="57" height="57" viewBox="0 0 57 57" fill="none" xmlns="http://www.w3.org/2000/svg">
<rect x="13.0898" y="12.7197" width="31" height="31" rx="15.5" fill="#440C46"/>
<path d="M24.8125 20.8779C25.0021 20.8814 25.1879 20.9352 25.3496 21.0342L35.626 27.3213C35.7806 27.4147 35.9085 27.5467 35.9971 27.7041C36.0856 27.8615 36.1313 28.0392 36.1309 28.2197L36.123 28.3545C36.1061 28.488 36.0634 28.6173 35.9971 28.7354C35.9085 28.8927 35.7805 29.0248 35.626 29.1182L25.3496 35.4053C25.1879 35.5043 25.0021 35.558 24.8125 35.5615C24.623 35.565 24.4357 35.5177 24.2705 35.4248C24.107 35.3333 23.9709 35.1996 23.876 35.0381C23.7812 34.8766 23.7308 34.6931 23.7305 34.5059V21.9346C23.7307 21.7472 23.7811 21.5629 23.876 21.4014C23.9472 21.2801 24.0415 21.1745 24.1533 21.0908L24.2705 21.0146C24.4357 20.9217 24.623 20.8745 24.8125 20.8779Z" fill="#FCFCFD" stroke="#FCFCFD" stroke-width="0.152158"/>
<path d="M47.6877 47.7721L46.7157 48.5548L40.1334 44.3029L42.865 51.6556L41.9397 52.4007L38.955 43.8344L39.9644 43.0216L47.6877 47.7721ZM39.862 53.3084L35.9399 45.7178L36.9421 45.2L40.8641 52.7906L39.862 53.3084ZM32.3532 55.6156L32.0687 54.6736L36.6523 53.2895L35.8787 50.7277L31.5938 52.0217L31.3197 51.1142L35.6046 49.8202L34.7512 46.9943L30.1102 48.3958L29.8258 47.4538L35.5466 45.7262L38.0166 53.9054L32.3532 55.6156ZM29.8787 55.5926L28.7212 55.4695L27.7941 48.1905L25.1175 55.086L23.8885 54.9553L22.7466 47.6535L20.249 54.568L19.1274 54.4487L22.2986 46.1939L23.4799 46.3196L24.6801 53.6396L27.4177 46.7385L28.599 46.8642L29.8787 55.5926ZM11.02 49.6518C9.98635 48.87 9.42847 47.9366 9.3464 46.8515C9.26432 45.7663 9.61415 44.7069 10.4031 43.6637C11.1993 42.6108 12.1451 41.957 13.2238 41.7045C14.3192 41.4497 15.3765 41.7227 16.4102 42.5044C16.9462 42.9098 17.3428 43.3601 17.6192 43.8701C17.8955 44.38 18.0447 44.899 18.0521 45.4462C18.0667 45.9839 17.9782 46.5187 17.7792 47.0603C17.5875 47.5924 17.2998 48.112 16.9162 48.6193C16.1128 49.6817 15.1814 50.3164 14.1103 50.4993C13.0391 50.6822 12.0154 50.4046 11.02 49.6518ZM11.6136 48.8669C12.3793 49.446 13.1658 49.6195 13.9731 49.3876C14.7804 49.1556 15.4832 48.664 16.0768 47.8791C16.7282 47.0177 17.022 46.1717 16.9749 45.3387C16.9278 44.5057 16.5417 43.8226 15.8239 43.2797C15.1061 42.7368 14.3436 42.5514 13.522 42.7425C12.7173 42.9313 11.9832 43.4444 11.339 44.2962C10.702 45.1385 10.4155 45.9749 10.4626 46.8079C10.5169 47.6314 10.8957 48.3241 11.6136 48.8669ZM6.15038 44.516L5.51448 43.4562L9.14073 36.0187L3.19312 39.5871L2.6313 38.6507L9.95777 34.255L10.6122 35.3457L7.04562 42.7194L12.9212 39.1942L13.4769 40.1203L6.15038 44.516ZM7.89377 28.5981L8.85366 28.3816L10.0996 33.9069L1.76491 35.7864L1.51677 34.686L8.89159 33.023L7.89377 28.5981ZM0.55093 28.1879L9.08406 27.757L9.14094 28.8836L0.607816 29.3145L0.55093 28.1879ZM0.871333 25.9097L1.09409 24.694L8.72968 21.5059L1.90725 20.2559L2.10405 19.1817L10.5082 20.7216L10.2789 21.9727L2.73027 25.1524L9.47007 26.3872L9.27543 27.4496L0.871333 25.9097ZM6.34534 11.2051L7.20098 11.691L4.83649 15.8544L7.16342 17.1759L9.37383 13.2838L10.1982 13.752L7.98776 17.6441L10.5547 19.1019L12.9488 14.8863L13.8044 15.3722L10.8533 20.5687L3.4238 16.3493L6.34534 11.2051ZM18.9455 10.1401L19.5608 10.908L15.1409 14.4499L9.79798 7.7826L10.6782 7.07721L15.4058 12.9767L18.9455 10.1401ZM21.4468 1.35061L21.8224 2.26012L17.3968 4.08752L18.4182 6.56095L22.5553 4.85263L22.9171 5.72887L18.78 7.43719L19.9066 10.1657L24.3877 8.31543L24.7632 9.22494L19.2396 11.5058L15.9787 3.60853L21.4468 1.35061ZM30.1808 3.10932L29.0812 3.20749C28.8706 2.05642 28.1198 1.53747 26.8278 1.63868C26.2176 1.68647 25.7485 1.84359 25.4332 2.12106C25.1169 2.38657 24.9766 2.74662 25.0122 3.20123C25.0244 3.35675 25.0596 3.49844 25.1168 3.61433C25.174 3.73021 25.2653 3.81936 25.3924 3.90569C25.5195 3.99203 25.6328 4.05537 25.7342 4.11966C25.8465 4.17104 26.0187 4.21774 26.2387 4.26069C26.4716 4.31466 26.6548 4.34846 26.7883 4.36208C26.9337 4.37476 27.1409 4.40668 27.4327 4.44401C27.7972 4.48767 28.0899 4.53696 28.3219 4.57897C28.5659 4.62005 28.8485 4.6942 29.1699 4.80143C29.5042 4.91969 29.7666 5.04357 29.9712 5.19606C30.1757 5.34856 30.3481 5.55171 30.5123 5.80366C30.6774 6.06757 30.7616 6.37394 30.7878 6.70891C30.8347 7.30708 30.7065 7.82266 30.4034 8.25565C30.1003 8.68865 29.7151 8.99566 29.2488 9.18867C28.7833 9.39364 28.2626 9.50666 27.6764 9.55258C26.6116 9.63598 25.7426 9.45129 25.0572 8.99943C24.3718 8.54757 23.9897 7.81918 23.912 6.82622L25.0006 6.74095C25.0817 7.46884 25.3742 7.97555 25.855 8.27491C26.3478 8.57334 26.9591 8.69397 27.7009 8.63586C28.2871 8.58995 28.7792 8.41899 29.1792 8.14692C29.5672 7.87579 29.7516 7.46414 29.7085 6.91382C29.6879 6.65063 29.6112 6.43997 29.4895 6.26896C29.3558 6.09888 29.1771 5.96844 28.9284 5.86755C28.6798 5.76665 28.434 5.70165 28.1891 5.64862C27.9442 5.59558 27.6146 5.53714 27.2252 5.48338C27.1645 5.4761 27.1276 5.46695 27.1028 5.45686C26.2025 5.3348 25.6151 5.21229 25.3426 5.11327C24.477 4.81997 24.0225 4.2417 23.9531 3.35641C23.8894 2.54291 24.1416 1.92131 24.7079 1.4677C25.2742 1.01409 25.9881 0.75355 26.8375 0.687014C27.7706 0.613919 28.5421 0.782184 29.1271 1.18172C29.725 1.59228 30.0756 2.22684 30.1808 3.10932ZM38.109 5.0468L37.0355 4.78859C37.2037 3.63057 36.6579 2.89899 35.4012 2.58221C34.8078 2.43263 34.313 2.43166 33.9256 2.59389C33.5412 2.74449 33.2932 3.04087 33.1817 3.48304C33.1436 3.63431 33.1317 3.77981 33.1489 3.9079C33.1661 4.03599 33.2241 4.14961 33.317 4.27203C33.4099 4.39445 33.497 4.49066 33.5725 4.58394C33.6626 4.66852 33.8108 4.76776 34.0056 4.87874C34.2091 5.00428 34.3719 5.09482 34.494 5.15036C34.6278 5.20883 34.8138 5.30524 35.0784 5.43381C35.4099 5.59162 35.6716 5.73183 35.878 5.84574C36.0961 5.96258 36.3402 6.12313 36.6105 6.32738C36.8895 6.54621 37.0986 6.74744 37.2438 6.95727C37.3889 7.1671 37.4873 7.41468 37.5624 7.70587C37.6346 8.0087 37.6165 8.3259 37.5344 8.65171C37.3878 9.23351 37.1017 9.68116 36.6761 9.99466C36.2506 10.3082 35.7875 10.4761 35.2839 10.51C34.7774 10.5556 34.2479 10.4963 33.6777 10.3526C32.6421 10.0916 31.8775 9.63898 31.3724 8.99188C30.8672 8.34478 30.7378 7.53252 30.9813 6.56673L32.0401 6.83364C31.8845 7.5493 31.9998 8.12288 32.3598 8.56014C32.7315 9.00034 33.2723 9.3099 33.9937 9.49175C34.5639 9.63547 35.0848 9.63067 35.5508 9.5006C36.005 9.36761 36.3113 9.03641 36.4462 8.50116C36.5107 8.24517 36.5053 8.02105 36.4446 7.82011C36.3723 7.61624 36.2445 7.43555 36.0412 7.26053C35.8378 7.0855 35.6256 6.94539 35.4105 6.81691C35.1953 6.68843 34.9017 6.52779 34.5499 6.35248C34.4946 6.32618 34.4626 6.30574 34.4423 6.28824C33.6282 5.88501 33.1107 5.58132 32.884 5.40043C32.1575 4.84604 31.9115 4.15288 32.1285 3.29181C32.328 2.50056 32.7655 1.99209 33.4471 1.74312C34.1286 1.49414 34.8882 1.47525 35.7144 1.6835C36.622 1.91228 37.2994 2.31815 37.7261 2.8836C38.1615 3.46363 38.2911 4.17693 38.109 5.0468ZM44.5936 6.13944C45.6558 6.88202 46.2481 7.79396 46.3707 8.87528C46.4932 9.95659 46.1832 11.0283 45.4337 12.1003C44.6774 13.1822 43.7567 13.8709 42.6882 14.1635C41.6031 14.459 40.5363 14.2257 39.4741 13.4831C38.9234 13.0981 38.5102 12.6628 38.215 12.1636C37.9198 11.6644 37.7514 11.1513 37.7235 10.6047C37.6888 10.068 37.7573 9.53019 37.9359 8.98153C38.1076 8.4427 38.3757 7.91266 38.7401 7.39141C39.5033 6.29974 40.4103 5.63071 41.4739 5.40791C42.5374 5.1851 43.5708 5.42436 44.5936 6.13944ZM44.0298 6.9459C43.243 6.39584 42.4506 6.25179 41.6524 6.51377C40.8543 6.77574 40.1704 7.29324 39.6066 8.0997C38.9878 8.98484 38.7258 9.84125 38.804 10.6719C38.8821 11.5026 39.2935 12.1708 40.0311 12.6865C40.7687 13.2022 41.5375 13.359 42.3514 13.1373C43.1486 12.9186 43.8629 12.3785 44.4749 11.5032C45.0799 10.6377 45.335 9.79114 45.2569 8.96048C45.1718 8.13966 44.7674 7.46158 44.0298 6.9459ZM49.8002 11.3907L50.4346 12.4514L46.7983 19.884L52.7507 16.3236L53.3113 17.2608L45.9788 21.6465L45.3259 20.5549L48.9025 13.1861L43.0221 16.7033L42.4677 15.7765L49.8002 11.3907Z" fill="#101828"/>
</svg>
